WorkSans-ExtraLight.ufo
<glyph name="dollar" format="2">
  <advance width="587"/>
  <unicode hex="0024"/>
  <outline>
    <contour>
      <point x="313" y="-100" type="line"/>
      <point x="313" y="0" type="line"/>
      <point x="445" y="3"/>
      <point x="529" y="70"/>
      <point x="529" y="168" type="curve" smooth="yes"/>
      <point x="529" y="290"/>
      <point x="421" y="314"/>
      <point x="313" y="336" type="curve"/>
      <point x="313" y="636" type="line"/>
      <point x="410" y="631"/>
      <point x="472" y="587"/>
      <point x="499" y="496" type="curve"/>
      <point x="522" y="514" type="line"/>
      <point x="490" y="609"/>
      <point x="420" y="655"/>
      <point x="313" y="660" type="curve"/>
      <point x="313" y="760" type="line"/>
      <point x="289" y="760" type="line"/>
      <point x="289" y="660" type="line"/>
      <point x="152" y="658"/>
      <point x="71" y="576"/>
      <point x="71" y="484" type="curve" smooth="yes"/>
      <point x="71" y="362"/>
      <point x="180" y="338"/>
      <point x="289" y="315" type="curve"/>
      <point x="289" y="24" type="line"/>
      <point x="184" y="30"/>
      <point x="101" y="87"/>
      <point x="81" y="185" type="curve"/>
      <point x="55" y="171" type="line"/>
      <point x="83" y="65"/>
      <point x="170" y="5"/>
      <point x="289" y="0" type="curve"/>
      <point x="289" y="-100" type="line"/>
    </contour>
    <contour>
      <point x="313" y="310" type="line"/>
      <point x="410" y="289"/>
      <point x="502" y="266"/>
      <point x="502" y="167" type="curve" smooth="yes"/>
      <point x="502" y="76"/>
      <point x="419" y="26"/>
      <point x="313" y="24" type="curve"/>
    </contour>
    <contour>
      <point x="99" y="485" type="curve" smooth="yes"/>
      <point x="99" y="570"/>
      <point x="171" y="634"/>
      <point x="289" y="636" type="curve"/>
      <point x="289" y="341" type="line"/>
      <point x="191" y="362"/>
      <point x="99" y="384"/>
    </contour>
  </outline>
</glyph>
<glyph name="percent" format="2">
  <advance width="774"/>
  <unicode hex="0025"/>
  <outline>
    <contour>
      <point x="449" y="167" type="curve" smooth="yes"/>
      <point x="449" y="77"/>
      <point x="495" y="-2"/>
      <point x="593" y="-2" type="curve" smooth="yes"/>
      <point x="691" y="-2"/>
      <point x="735" y="77"/>
      <point x="735" y="167" type="curve" smooth="yes"/>
      <point x="735" y="257"/>
      <point x="691" y="337"/>
      <point x="593" y="337" type="curve" smooth="yes"/>
      <point x="494" y="337"/>
      <point x="449" y="257"/>
    </contour>
    <contour>
      <point x="39" y="491" type="curve" smooth="yes"/>
      <point x="39" y="402"/>
      <point x="84" y="323"/>
      <point x="182" y="323" type="curve" smooth="yes"/>
      <point x="280" y="323"/>
      <point x="324" y="402"/>
      <point x="324" y="491" type="curve" smooth="yes"/>
      <point x="324" y="581"/>
      <point x="280" y="662"/>
      <point x="182" y="662" type="curve" smooth="yes"/>
      <point x="83" y="662"/>
      <point x="39" y="581"/>
    </contour>
    <contour>
      <point x="298" y="491" type="curve" smooth="yes"/>
      <point x="298" y="412"/>
      <point x="263" y="346"/>
      <point x="182" y="346" type="curve" smooth="yes"/>
      <point x="101" y="346"/>
      <point x="66" y="412"/>
      <point x="66" y="491" type="curve" smooth="yes"/>
      <point x="66" y="570"/>
      <point x="101" y="639"/>
      <point x="182" y="639" type="curve" smooth="yes"/>
      <point x="262" y="639"/>
      <point x="298" y="570"/>
    </contour>
    <contour>
      <point x="708" y="167" type="curve" smooth="yes"/>
      <point x="708" y="88"/>
      <point x="673" y="21"/>
      <point x="593" y="21" type="curve" smooth="yes"/>
      <point x="512" y="21"/>
      <point x="476" y="88"/>
      <point x="476" y="167" type="curve" smooth="yes"/>
      <point x="476" y="246"/>
      <point x="511" y="314"/>
      <point x="593" y="314" type="curve" smooth="yes"/>
      <point x="673" y="314"/>
      <point x="708" y="246"/>
    </contour>
    <contour>
      <point x="180" y="0" type="line"/>
      <point x="622" y="660" type="line"/>
      <point x="593" y="660" type="line"/>
      <point x="151" y="0" type="line"/>
    </contour>
  </outline>
</glyph>
<glyph name="ampersand" format="2">
  <advance width="582"/>
  <unicode hex="0026"/>
  <outline>
    <contour>
      <point x="445" y="90" type="curve"/>
      <point x="500" y="163"/>
      <point x="521" y="266"/>
      <point x="519" y="362" type="curve"/>
      <point x="495" y="364" type="line"/>
      <point x="496" y="264"/>
      <point x="475" y="172"/>
      <point x="427" y="107" type="curve"/>
      <point x="385" y="49"/>
      <point x="321" y="14"/>
      <point x="236" y="14" type="curve" smooth="yes"/>
      <point x="145" y="14"/>
      <point x="73" y="63"/>
      <point x="73" y="144" type="curve" smooth="yes"/>
      <point x="73" y="239"/>
      <point x="142" y="285"/>
      <point x="257" y="350" type="curve" smooth="yes"/>
      <point x="382" y="421"/>
      <point x="414" y="474"/>
      <point x="414" y="545" type="curve" smooth="yes"/>
      <point x="414" y="622"/>
      <point x="357" y="667"/>
      <point x="276" y="667" type="curve" smooth="yes"/>
      <point x="188" y="667"/>
      <point x="133" y="611"/>
      <point x="133" y="531" type="curve" smooth="yes"/>
      <point x="133" y="460"/>
      <point x="173" y="419"/>
      <point x="310" y="241" type="curve" smooth="yes"/>
      <point x="463" y="41"/>
      <point x="511" y="-10"/>
      <point x="583" y="-10" type="curve"/>
      <point x="588" y="12" type="line"/>
      <point x="525" y="12"/>
      <point x="482" y="55"/>
      <point x="327" y="258" type="curve" smooth="yes"/>
      <point x="181" y="449"/>
      <point x="160" y="471"/>
      <point x="160" y="532" type="curve" smooth="yes"/>
      <point x="160" y="598"/>
      <point x="205" y="643"/>
      <point x="276" y="643" type="curve" smooth="yes"/>
      <point x="344" y="643"/>
      <point x="388" y="605"/>
      <point x="388" y="545" type="curve" smooth="yes"/>
      <point x="388" y="483"/>
      <point x="359" y="436"/>
      <point x="241" y="369" type="curve" smooth="yes"/>
      <point x="121" y="302"/>
      <point x="46" y="248"/>
      <point x="46" y="143" type="curve" smooth="yes"/>
      <point x="46" y="48"/>
      <point x="128" y="-10"/>
      <point x="239" y="-10" type="curve" smooth="yes"/>
      <point x="333" y="-10"/>
      <point x="400" y="30"/>
    </contour>
  </outline>
</glyph>
<glyph name="quotesingle" format="2">
  <advance width="165"/>
  <unicode hex="0027"/>
  <outline>
    <contour>
      <point x="69" y="682" type="line"/>
      <point x="69" y="506" type="line"/>
      <point x="94" y="506" type="line"/>
      <point x="99" y="682" type="line"/>
    </contour>
  </outline>
</glyph>
<glyph name="parenleft" format="2">
  <advance width="271"/>
  <unicode hex="0028"/>
  <outline>
    <contour>
      <point x="55" y="284" type="curve" smooth="yes"/>
      <point x="55" y="82"/>
      <point x="115" y="-65"/>
      <point x="243" y="-174" type="curve"/>
      <point x="258" y="-157" type="line"/>
      <point x="135" y="-52"/>
      <point x="82" y="89"/>
      <point x="82" y="284" type="curve" smooth="yes"/>
      <point x="82" y="479"/>
      <point x="135" y="621"/>
      <point x="258" y="725" type="curve"/>
      <point x="243" y="742" type="line"/>
      <point x="115" y="633"/>
      <point x="55" y="487"/>
    </contour>
  </outline>
</glyph>
<glyph name="asterisk" format="2">
  <advance width="522"/>
  <unicode hex="002A"/>
  <outline>
    <contour>
      <point x="261" y="510" type="line"/>
      <point x="254" y="505" type="line"/>
      <point x="302" y="430" type="line"/>
      <point x="380" y="324" type="line"/>
      <point x="400" y="339" type="line"/>
      <point x="323" y="446" type="line"/>
      <point x="268" y="515" type="line"/>
    </contour>
    <contour>
      <point x="199" y="446" type="line"/>
      <point x="121" y="339" type="line"/>
      <point x="142" y="324" type="line"/>
      <point x="219" y="430" type="line"/>
      <point x="268" y="505" type="line"/>
      <point x="261" y="510" type="line"/>
      <point x="254" y="515" type="line"/>
    </contour>
    <contour>
      <point x="47" y="566" type="line"/>
      <point x="172" y="525" type="line"/>
      <point x="258" y="502" type="line"/>
      <point x="261" y="510" type="line"/>
      <point x="264" y="518" type="line"/>
      <point x="180" y="550" type="line"/>
      <point x="55" y="590" type="line"/>
    </contour>
    <contour>
      <point x="248" y="730" type="line"/>
      <point x="248" y="598" type="line"/>
      <point x="252" y="510" type="line"/>
      <point x="261" y="510" type="line"/>
      <point x="269" y="510" type="line"/>
      <point x="274" y="598" type="line"/>
      <point x="274" y="730" type="line"/>
    </contour>
    <contour>
      <point x="341" y="550" type="line"/>
      <point x="258" y="518" type="line"/>
      <point x="261" y="510" type="line"/>
      <point x="264" y="502" type="line"/>
      <point x="349" y="525" type="line"/>
      <point x="474" y="566" type="line"/>
      <point x="467" y="590" type="line"/>
    </contour>
  </outline>
</glyph>
<glyph name="plus" format="2">
  <advance width="604"/>
  <unicode hex="002B"/>
  <outline>
    <contour>
      <point x="289" y="549" type="line"/>
      <point x="289" y="77" type="line"/>
      <point x="316" y="77" type="line"/>
      <point x="316" y="549" type="line"/>
    </contour>
    <contour>
      <point x="68" y="329" type="line"/>
      <point x="68" y="303" type="line"/>
      <point x="536" y="303" type="line"/>
      <point x="536" y="329" type="line"/>
    </contour>
  </outline>
</glyph>
<glyph name="zero" format="2">
  <advance width="596"/>
  <unicode hex="0030"/>
  <outline>
    <contour>
      <point x="535" y="330" type="curve" smooth="yes"/>
      <point x="535" y="549"/>
      <point x="451" y="670"/>
      <point x="298" y="670" type="curve" smooth="yes"/>
      <point x="145" y="670"/>
      <point x="61" y="549"/>
      <point x="61" y="330" type="curve" smooth="yes"/>
      <point x="61" y="111"/>
      <point x="145" y="-10"/>
      <point x="298" y="-10" type="curve" smooth="yes"/>
      <point x="451" y="-10"/>
      <point x="535" y="111"/>
    </contour>
    <contour>
      <point x="90" y="330" type="curve" smooth="yes"/>
      <point x="90" y="534"/>
      <point x="164" y="645"/>
      <point x="298" y="645" type="curve" smooth="yes"/>
      <point x="432" y="645"/>
      <point x="507" y="534"/>
      <point x="507" y="330" type="curve" smooth="yes"/>
      <point x="507" y="126"/>
      <point x="432" y="15"/>
      <point x="298" y="15" type="curve" smooth="yes"/>
      <point x="164" y="15"/>
      <point x="90" y="126"/>
    </contour>
  </outline>
</glyph>
<glyph name="two" format="2">
  <advance width="543"/>
  <unicode hex="0032"/>
  <outline>
    <contour>
      <point x="497" y="0" type="line"/>
      <point x="497" y="25" type="line"/>
      <point x="142" y="25" type="line" smooth="yes"/>
      <point x="131" y="25"/>
      <point x="113" y="25"/>
      <point x="101" y="25" type="curve"/>
      <point x="101" y="26" type="line"/>
      <point x="338" y="217"/>
      <point x="471" y="332"/>
      <point x="471" y="473" type="curve" smooth="yes"/>
      <point x="471" y="595"/>
      <point x="392" y="670"/>
      <point x="264" y="670" type="curve" smooth="yes"/>
      <point x="136" y="670"/>
      <point x="56" y="589"/>
      <point x="48" y="466" type="curve"/>
      <point x="73" y="453" type="line"/>
      <point x="79" y="569"/>
      <point x="151" y="645"/>
      <point x="264" y="645" type="curve" smooth="yes"/>
      <point x="374" y="645"/>
      <point x="443" y="579"/>
      <point x="443" y="473" type="curve" smooth="yes"/>
      <point x="443" y="338"/>
      <point x="299" y="220"/>
      <point x="58" y="24" type="curve"/>
      <point x="58" y="0" type="line"/>
    </contour>
  </outline>
</glyph>
<glyph name="three" format="2">
  <advance width="533"/>
  <unicode hex="0033"/>
  <outline>
    <contour>
      <point x="66" y="534" type="curve"/>
      <point x="94" y="520" type="line"/>
      <point x="116" y="597"/>
      <point x="178" y="645"/>
      <point x="263" y="645" type="curve" smooth="yes"/>
      <point x="365" y="645"/>
      <point x="426" y="589"/>
      <point x="426" y="494" type="curve" smooth="yes"/>
      <point x="426" y="411"/>
      <point x="375" y="346"/>
      <point x="277" y="346" type="curve" smooth="yes"/>
      <point x="232" y="346" type="line"/>
      <point x="232" y="320" type="line"/>
      <point x="277" y="320" type="line" smooth="yes"/>
      <point x="385" y="320"/>
      <point x="443" y="261"/>
      <point x="443" y="174" type="curve" smooth="yes"/>
      <point x="443" y="76"/>
      <point x="367" y="15"/>
      <point x="266" y="15" type="curve" smooth="yes"/>
      <point x="152" y="15"/>
      <point x="89" y="72"/>
      <point x="70" y="157" type="curve"/>
      <point x="45" y="142" type="line"/>
      <point x="69" y="49"/>
      <point x="144" y="-10"/>
      <point x="265" y="-10" type="curve" smooth="yes"/>
      <point x="381" y="-10"/>
      <point x="471" y="62"/>
      <point x="471" y="171" type="curve" smooth="yes"/>
      <point x="471" y="260"/>
      <point x="413" y="327"/>
      <point x="328" y="332" type="curve"/>
      <point x="328" y="333" type="line"/>
      <point x="407" y="345"/>
      <point x="455" y="414"/>
      <point x="455" y="498" type="curve" smooth="yes"/>
      <point x="455" y="603"/>
      <point x="384" y="670"/>
      <point x="263" y="670" type="curve" smooth="yes"/>
      <point x="170" y="670"/>
      <point x="96" y="618"/>
    </contour>
  </outline>
</glyph>
<glyph name="four" format="2">
  <advance width="561"/>
  <unicode hex="0034"/>
  <outline>
    <contour>
      <point x="399" y="223" type="line"/>
      <point x="399" y="660" type="line"/>
      <point x="362" y="660" type="line"/>
      <point x="39" y="221" type="line"/>
      <point x="39" y="199" type="line"/>
      <point x="371" y="199" type="line"/>
      <point x="371" y="0" type="line"/>
      <point x="399" y="0" type="line"/>
      <point x="399" y="199" type="line"/>
      <point x="534" y="199" type="line"/>
      <point x="534" y="223" type="line"/>
    </contour>
    <contour>
      <point x="370" y="634" type="curve"/>
      <point x="372" y="634" type="line"/>
      <point x="371" y="565" type="line"/>
      <point x="371" y="223" type="line"/>
      <point x="70" y="223" type="line"/>
      <point x="323" y="565" type="line" smooth="yes"/>
      <point x="338" y="586"/>
      <point x="356" y="612"/>
    </contour>
  </outline>
</glyph>
<glyph name="six" format="2">
  <advance width="555"/>
  <unicode hex="0036"/>
  <outline>
    <contour>
      <point x="58" y="330" type="curve" smooth="yes"/>
      <point x="58" y="112"/>
      <point x="137" y="-10"/>
      <point x="291" y="-10" type="curve" smooth="yes"/>
      <point x="420" y="-10"/>
      <point x="503" y="70"/>
      <point x="503" y="194" type="curve" smooth="yes"/>
      <point x="503" y="317"/>
      <point x="425" y="399"/>
      <point x="295" y="399" type="curve" smooth="yes"/>
      <point x="196" y="399"/>
      <point x="95" y="330"/>
      <point x="95" y="213" type="curve"/>
      <point x="92" y="213" type="line"/>
      <point x="88" y="247"/>
      <point x="84" y="284"/>
      <point x="84" y="317" type="curve" smooth="yes"/>
      <point x="84" y="483"/>
      <point x="146" y="645"/>
      <point x="307" y="645" type="curve" smooth="yes"/>
      <point x="393" y="645"/>
      <point x="443" y="598"/>
      <point x="462" y="534" type="curve"/>
      <point x="488" y="546" type="line"/>
      <point x="461" y="620"/>
      <point x="406" y="670"/>
      <point x="308" y="670" type="curve" smooth="yes"/>
      <point x="165" y="670"/>
      <point x="58" y="557"/>
    </contour>
    <contour>
      <point x="474" y="196" type="curve" smooth="yes"/>
      <point x="474" y="87"/>
      <point x="404" y="16"/>
      <point x="290" y="16" type="curve" smooth="yes"/>
      <point x="184" y="16"/>
      <point x="111" y="93"/>
      <point x="111" y="196" type="curve" smooth="yes"/>
      <point x="111" y="284"/>
      <point x="184" y="374"/>
      <point x="294" y="374" type="curve" smooth="yes"/>
      <point x="404" y="374"/>
      <point x="474" y="301"/>
    </contour>
  </outline>
</glyph>
<glyph name="seven" format="2">
  <advance width="507"/>
  <unicode hex="0037"/>
  <outline>
    <contour>
      <point x="25" y="635" type="line"/>
      <point x="474" y="635" type="line"/>
      <point x="473" y="646" type="line"/>
      <point x="299" y="466"/>
      <point x="219" y="248"/>
      <point x="202" y="0" type="curve"/>
      <point x="231" y="0" type="line"/>
      <point x="248" y="257"/>
      <point x="331" y="461"/>
      <point x="493" y="635" type="curve"/>
      <point x="493" y="660" type="line"/>
      <point x="25" y="660" type="line"/>
    </contour>
  </outline>
</glyph>
<glyph name="eight" format="2">
  <advance width="572"/>
  <unicode hex="0038"/>
  <outline>
    <contour>
      <point x="86" y="506" type="curve" smooth="yes"/>
      <point x="86" y="425"/>
      <point x="136" y="367"/>
      <point x="220" y="348" type="curve"/>
      <point x="220" y="347" type="line"/>
      <point x="122" y="328"/>
      <point x="57" y="261"/>
      <point x="57" y="171" type="curve" smooth="yes"/>
      <point x="57" y="64"/>
      <point x="151" y="-10"/>
      <point x="286" y="-10" type="curve" smooth="yes"/>
      <point x="421" y="-10"/>
      <point x="515" y="64"/>
      <point x="515" y="171" type="curve" smooth="yes"/>
      <point x="515" y="259"/>
      <point x="451" y="327"/>
      <point x="353" y="347" type="curve"/>
      <point x="353" y="348" type="line"/>
      <point x="436" y="368"/>
      <point x="486" y="425"/>
      <point x="486" y="506" type="curve" smooth="yes"/>
      <point x="486" y="605"/>
      <point x="407" y="670"/>
      <point x="286" y="670" type="curve" smooth="yes"/>
      <point x="164" y="670"/>
      <point x="86" y="605"/>
    </contour>
    <contour>
      <point x="458" y="504" type="curve" smooth="yes"/>
      <point x="458" y="418"/>
      <point x="390" y="360"/>
      <point x="286" y="360" type="curve" smooth="yes"/>
      <point x="182" y="360"/>
      <point x="114" y="418"/>
      <point x="114" y="504" type="curve" smooth="yes"/>
      <point x="114" y="590"/>
      <point x="182" y="644"/>
      <point x="286" y="644" type="curve" smooth="yes"/>
      <point x="390" y="644"/>
      <point x="458" y="590"/>
    </contour>
    <contour>
      <point x="86" y="172" type="curve" smooth="yes"/>
      <point x="86" y="267"/>
      <point x="168" y="333"/>
      <point x="286" y="333" type="curve" smooth="yes"/>
      <point x="405" y="333"/>
      <point x="486" y="267"/>
      <point x="486" y="172" type="curve" smooth="yes"/>
      <point x="486" y="79"/>
      <point x="405" y="15"/>
      <point x="286" y="15" type="curve" smooth="yes"/>
      <point x="167" y="15"/>
      <point x="86" y="79"/>
    </contour>
  </outline>
</glyph>
<glyph name="nine" format="2">
  <advance width="577"/>
  <unicode hex="0039"/>
  <outline>
    <contour>
      <point x="59" y="466" type="curve" smooth="yes"/>
      <point x="59" y="341"/>
      <point x="142" y="261"/>
      <point x="272" y="261" type="curve" smooth="yes"/>
      <point x="370" y="261"/>
      <point x="478" y="328"/>
      <point x="477" y="451" type="curve"/>
      <point x="479" y="451" type="line"/>
      <point x="485" y="416"/>
      <point x="489" y="378"/>
      <point x="489" y="338" type="curve" smooth="yes"/>
      <point x="489" y="174"/>
      <point x="437" y="15"/>
      <point x="277" y="15" type="curve" smooth="yes"/>
      <point x="168" y="15"/>
      <point x="108" y="68"/>
      <point x="93" y="147" type="curve"/>
      <point x="64" y="132" type="line"/>
      <point x="86" y="46"/>
      <point x="165" y="-10"/>
      <point x="277" y="-10" type="curve" smooth="yes"/>
      <point x="418" y="-10"/>
      <point x="515" y="103"/>
      <point x="515" y="330" type="curve" smooth="yes"/>
      <point x="515" y="544"/>
      <point x="431" y="670"/>
      <point x="276" y="670" type="curve" smooth="yes"/>
      <point x="144" y="670"/>
      <point x="59" y="590"/>
    </contour>
    <contour>
      <point x="462" y="464" type="curve" smooth="yes"/>
      <point x="462" y="376"/>
      <point x="383" y="287"/>
      <point x="274" y="287" type="curve" smooth="yes"/>
      <point x="161" y="287"/>
      <point x="88" y="357"/>
      <point x="88" y="464" type="curve" smooth="yes"/>
      <point x="88" y="573"/>
      <point x="161" y="644"/>
      <point x="277" y="644" type="curve" smooth="yes"/>
      <point x="386" y="644"/>
      <point x="462" y="567"/>
    </contour>
  </outline>
</glyph>
<glyph name="less" format="2">
  <advance width="604"/>
  <unicode hex="003C"/>
  <outline>
    <contour>
      <point x="536" y="516" type="line"/>
      <point x="536" y="547" type="line"/>
      <point x="87" y="316" type="line"/>
      <point x="87" y="288" type="line"/>
    </contour>
    <contour>
      <point x="87" y="311" type="line"/>
      <point x="87" y="283" type="line"/>
      <point x="536" y="52" type="line"/>
      <point x="536" y="83" type="line"/>
    </contour>
  </outline>
</glyph>
<glyph name="question" format="2">
  <advance width="486"/>
  <unicode hex="003F"/>
  <outline>
    <contour>
      <point x="32" y="501" type="curve"/>
      <point x="56" y="488" type="line"/>
      <point x="70" y="586"/>
      <point x="127" y="645"/>
      <point x="247" y="645" type="curve" smooth="yes"/>
      <point x="347" y="645"/>
      <point x="415" y="590"/>
      <point x="415" y="499" type="curve" smooth="yes"/>
      <point x="415" y="397"/>
      <point x="365" y="344"/>
      <point x="219" y="303" type="curve"/>
      <point x="219" y="161" type="line"/>
      <point x="247" y="161" type="line"/>
      <point x="247" y="287" type="line"/>
      <point x="380" y="322"/>
      <point x="443" y="388"/>
      <point x="443" y="501" type="curve" smooth="yes"/>
      <point x="443" y="607"/>
      <point x="362" y="670"/>
      <point x="248" y="670" type="curve" smooth="yes"/>
      <point x="116" y="670"/>
      <point x="50" y="606"/>
    </contour>
    <component base="period" xOffset="139"/>
  </outline>
</glyph>
<glyph name="A" format="2">
  <advance width="600"/>
  <unicode hex="0041"/>
  <anchor x="581" y="0" name="bottomC"/>
  <anchor x="300" y="660" name="top"/>
  <anchor x="585" y="0" name="ogonek"/>
  <anchor x="300" y="0" name="bottom"/>
  <outline>
    <contour>
      <point x="44" y="0" type="line"/>
      <point x="280" y="578" type="line"/>
      <point x="300" y="631" type="line"/>
      <point x="300" y="631" type="line"/>
      <point x="320" y="577" type="line"/>
      <point x="556" y="0" type="line"/>
      <point x="585" y="0" type="line"/>
      <point x="316" y="660" type="line"/>
      <point x="284" y="660" type="line"/>
      <point x="15" y="0" type="line"/>
    </contour>
    <contour>
      <point x="474" y="224" type="line"/>
      <point x="474" y="250" type="line"/>
      <point x="124" y="250" type="line"/>
      <point x="124" y="224" type="line"/>
    </contour>
  </outline>
</glyph>
<glyph name="E" format="2">
  <advance width="593"/>
  <unicode hex="0045"/>
  <anchor x="321" y="0" name="bottomC"/>
  <anchor x="321" y="660" name="top"/>
  <anchor x="559" y="0" name="ogonek"/>
  <anchor x="321" y="0" name="bottom"/>
  <outline>
    <contour>
      <point x="101" y="660" type="line"/>
      <point x="101" y="0" type="line"/>
      <point x="129" y="0" type="line"/>
      <point x="129" y="660" type="line"/>
    </contour>
    <contour>
      <point x="113" y="25" type="line"/>
      <point x="113" y="0" type="line"/>
      <point x="559" y="0" type="line"/>
      <point x="559" y="25" type="line"/>
    </contour>
    <contour>
      <point x="113" y="349" type="line"/>
      <point x="113" y="324" type="line"/>
      <point x="459" y="324" type="line"/>
      <point x="459" y="349" type="line"/>
    </contour>
    <contour>
      <point x="113" y="660" type="line"/>
      <point x="113" y="635" type="line"/>
      <point x="543" y="635" type="line"/>
      <point x="543" y="660" type="line"/>
    </contour>
  </outline>
</glyph>
<glyph name="F" format="2">
  <advance width="565"/>
  <unicode hex="0046"/>
  <anchor x="125" y="0" name="bottomC"/>
  <anchor x="318" y="660" name="top"/>
  <anchor x="129" y="0" name="ogonek"/>
  <anchor x="115" y="0" name="bottom"/>
  <outline>
    <contour>
      <point x="101" y="660" type="line"/>
      <point x="101" y="0" type="line"/>
      <point x="129" y="0" type="line"/>
      <point x="129" y="660" type="line"/>
    </contour>
    <contour>
      <point x="113" y="349" type="line"/>
      <point x="113" y="324" type="line"/>
      <point x="459" y="324" type="line"/>
      <point x="459" y="349" type="line"/>
    </contour>
    <contour>
      <point x="113" y="660" type="line"/>
      <point x="113" y="635" type="line"/>
      <point x="542" y="635" type="line"/>
      <point x="542" y="660" type="line"/>
    </contour>
  </outline>
</glyph>
<glyph name="H" format="2">
  <advance width="703"/>
  <unicode hex="0048"/>
  <anchor x="595" y="0" name="bottomC"/>
  <anchor x="352" y="660" name="top"/>
  <anchor x="602" y="0" name="ogonek"/>
  <anchor x="352" y="0" name="bottom"/>
  <outline>
    <contour>
      <point x="574" y="660" type="line"/>
      <point x="574" y="0" type="line"/>
      <point x="602" y="0" type="line"/>
      <point x="602" y="660" type="line"/>
    </contour>
    <contour>
      <point x="101" y="660" type="line"/>
      <point x="101" y="0" type="line"/>
      <point x="129" y="0" type="line"/>
      <point x="129" y="660" type="line"/>
    </contour>
    <contour>
      <point x="115" y="349" type="line"/>
      <point x="115" y="324" type="line"/>
      <point x="589" y="324" type="line"/>
      <point x="589" y="349" type="line"/>
    </contour>
  </outline>
</glyph>
<glyph name="L" format="2">
  <advance width="553"/>
  <unicode hex="004C"/>
  <anchor x="465" y="336" name="center"/>
  <anchor x="337" y="0" name="bottomC"/>
  <anchor x="115" y="660" name="top"/>
  <anchor x="337" y="0" name="bottom"/>
  <anchor x="268" y="700" name="topright"/>
  <anchor x="538" y="0" name="ogonek"/>
  <outline>
    <contour>
      <point x="101" y="660" type="line"/>
      <point x="101" y="0" type="line"/>
      <point x="129" y="0" type="line"/>
      <point x="129" y="660" type="line"/>
    </contour>
    <contour>
      <point x="113" y="25" type="line"/>
      <point x="113" y="0" type="line"/>
      <point x="538" y="0" type="line"/>
      <point x="538" y="25" type="line"/>
    </contour>
  </outline>
</glyph>
<glyph name="M" format="2">
  <advance width="799"/>
  <unicode hex="004D"/>
  <anchor x="412" y="0" name="bottomC"/>
  <anchor x="399" y="660" name="top"/>
  <anchor x="698" y="0" name="ogonek"/>
  <anchor x="399" y="0" name="bottom"/>
  <outline>
    <contour>
      <point x="658" y="660" type="line"/>
      <point x="419" y="87" type="line"/>
      <point x="400" y="33" type="line"/>
      <point x="399" y="33" type="line"/>
      <point x="380" y="88" type="line"/>
      <point x="141" y="660" type="line"/>
      <point x="101" y="660" type="line"/>
      <point x="101" y="0" type="line"/>
      <point x="128" y="0" type="line"/>
      <point x="128" y="549" type="line"/>
      <point x="125" y="628" type="line"/>
      <point x="126" y="628" type="line"/>
      <point x="385" y="0" type="line"/>
      <point x="414" y="0" type="line"/>
      <point x="673" y="628" type="line"/>
      <point x="673" y="628" type="line"/>
      <point x="671" y="549" type="line"/>
      <point x="671" y="0" type="line"/>
      <point x="698" y="0" type="line"/>
      <point x="698" y="660" type="line"/>
    </contour>
  </outline>
</glyph>
<glyph name="Q" format="2">
  <advance width="720"/>
  <unicode hex="0051"/>
  <anchor x="515" y="-191" name="bottomC"/>
  <anchor x="360" y="660" name="top"/>
  <anchor x="577" y="-191" name="ogonek"/>
  <anchor x="360" y="-210" name="bottom"/>
  <outline>
    <contour>
      <point x="352" y="1" type="line"/>
      <point x="356" y="-130"/>
      <point x="433" y="-195"/>
      <point x="536" y="-195" type="curve" smooth="yes"/>
      <point x="585" y="-195"/>
      <point x="627" y="-181"/>
      <point x="654" y="-156" type="curve"/>
      <point x="643" y="-131" type="line"/>
      <point x="617" y="-158"/>
      <point x="577" y="-168"/>
      <point x="536" y="-168" type="curve" smooth="yes"/>
      <point x="445" y="-168"/>
      <point x="380" y="-115"/>
      <point x="377" y="4" type="curve"/>
    </contour>
    <component base="O"/>
  </outline>
</glyph>
<glyph name="R" format="2">
  <advance width="621"/>
  <unicode hex="0052"/>
  <anchor x="577" y="0" name="bottomC"/>
  <anchor x="298" y="660" name="top"/>
  <anchor x="584" y="0" name="ogonek"/>
  <anchor x="350" y="0" name="bottom"/>
  <outline>
    <contour>
      <point x="115" y="660" type="line"/>
      <point x="115" y="635" type="line"/>
      <point x="342" y="635" type="line" smooth="yes"/>
      <point x="458" y="635"/>
      <point x="525" y="577"/>
      <point x="525" y="478" type="curve" smooth="yes"/>
      <point x="525" y="378"/>
      <point x="458" y="321"/>
      <point x="342" y="321" type="curve" smooth="yes"/>
      <point x="115" y="321" type="line"/>
      <point x="115" y="295" type="line"/>
      <point x="342" y="295" type="line" smooth="yes"/>
      <point x="472" y="295"/>
      <point x="553" y="364"/>
      <point x="553" y="478" type="curve" smooth="yes"/>
      <point x="553" y="591"/>
      <point x="472" y="660"/>
      <point x="342" y="660" type="curve" smooth="yes"/>
    </contour>
    <contour>
      <point x="101" y="660" type="line"/>
      <point x="101" y="0" type="line"/>
      <point x="129" y="0" type="line"/>
      <point x="129" y="660" type="line"/>
    </contour>
    <contour>
      <point x="352" y="301" type="line"/>
      <point x="552" y="0" type="line"/>
      <point x="584" y="0" type="line"/>
      <point x="375" y="318" type="line"/>
    </contour>
  </outline>
</glyph>
<glyph name="S" format="2">
  <advance width="603"/>
  <unicode hex="0053"/>
  <anchor x="288" y="0" name="bottomC"/>
  <anchor x="297" y="660" name="top"/>
  <anchor x="396" y="0" name="ogonek"/>
  <anchor x="320" y="0" name="bottom"/>
  <outline>
    <contour>
      <point x="63" y="489" type="curve" smooth="yes"/>
      <point x="63" y="391"/>
      <point x="124" y="342"/>
      <point x="314" y="310" type="curve" smooth="yes"/>
      <point x="471" y="284"/>
      <point x="526" y="240"/>
      <point x="526" y="163" type="curve" smooth="yes"/>
      <point x="526" y="68"/>
      <point x="432" y="15"/>
      <point x="313" y="15" type="curve" smooth="yes"/>
      <point x="187" y="15"/>
      <point x="89" y="68"/>
      <point x="68" y="177" type="curve"/>
      <point x="43" y="160" type="line"/>
      <point x="70" y="46"/>
      <point x="174" y="-10"/>
      <point x="312" y="-10" type="curve" smooth="yes"/>
      <point x="456" y="-10"/>
      <point x="554" y="61"/>
      <point x="554" y="163" type="curve" smooth="yes"/>
      <point x="554" y="259"/>
      <point x="492" y="308"/>
      <point x="321" y="338" type="curve" smooth="yes"/>
      <point x="144" y="368"/>
      <point x="91" y="410"/>
      <point x="91" y="490" type="curve" smooth="yes"/>
      <point x="91" y="577"/>
      <point x="171" y="645"/>
      <point x="300" y="645" type="curve" smooth="yes"/>
      <point x="416" y="645"/>
      <point x="490" y="601"/>
      <point x="520" y="501" type="curve"/>
      <point x="543" y="519" type="line"/>
      <point x="509" y="623"/>
      <point x="424" y="670"/>
      <point x="300" y="670" type="curve" smooth="yes"/>
      <point x="151" y="670"/>
      <point x="63" y="585"/>
    </contour>
  </outline>
</glyph>
<glyph name="T" format="2">
  <advance width="555"/>
  <unicode hex="0054"/>
  <anchor x="290" y="0" name="bottomC"/>
  <anchor x="278" y="660" name="top"/>
  <anchor x="292" y="0" name="ogonek"/>
  <anchor x="278" y="363" name="center"/>
  <anchor x="278" y="0" name="bottom"/>
  <outline>
    <contour>
      <point x="264" y="654" type="line"/>
      <point x="264" y="0" type="line"/>
      <point x="292" y="0" type="line"/>
      <point x="292" y="654" type="line"/>
    </contour>
    <contour>
      <point x="15" y="660" type="line"/>
      <point x="15" y="635" type="line"/>
      <point x="540" y="635" type="line"/>
      <point x="540" y="660" type="line"/>
    </contour>
  </outline>
</glyph>
<glyph name="W" format="2">
  <advance width="919"/>
  <unicode hex="0057"/>
  <anchor x="674" y="0" name="bottomC"/>
  <anchor x="460" y="660" name="top"/>
  <anchor x="680" y="0" name="ogonek"/>
  <anchor x="460" y="0" name="bottom"/>
  <outline>
    <contour>
      <point x="459" y="627" type="line"/>
      <point x="460" y="627" type="line"/>
      <point x="500" y="488" type="line"/>
      <point x="644" y="0" type="line"/>
      <point x="680" y="0" type="line"/>
      <point x="893" y="660" type="line"/>
      <point x="864" y="660" type="line"/>
      <point x="662" y="24" type="line"/>
      <point x="477" y="660" type="line"/>
      <point x="443" y="660" type="line"/>
      <point x="257" y="25" type="line"/>
      <point x="55" y="660" type="line"/>
      <point x="25" y="660" type="line"/>
      <point x="239" y="0" type="line"/>
      <point x="275" y="0" type="line"/>
      <point x="420" y="488" type="line"/>
    </contour>
  </outline>
</glyph>
<glyph name="Y" format="2">
  <advance width="523"/>
  <unicode hex="0059"/>
  <anchor x="268" y="0" name="bottomC"/>
  <anchor x="262" y="660" name="top"/>
  <anchor x="276" y="0" name="ogonek"/>
  <anchor x="262" y="0" name="bottom"/>
  <outline>
    <contour>
      <point x="475" y="660" type="line"/>
      <point x="346" y="434" type="line"/>
      <point x="262" y="286" type="line"/>
      <point x="177" y="434" type="line"/>
      <point x="48" y="660" type="line"/>
      <point x="15" y="660" type="line"/>
      <point x="248" y="256" type="line"/>
      <point x="248" y="0" type="line"/>
      <point x="276" y="0" type="line"/>
      <point x="276" y="256" type="line"/>
      <point x="508" y="660" type="line"/>
    </contour>
  </outline>
</glyph>
<glyph name="Z" format="2">
  <advance width="567"/>
  <unicode hex="005A"/>
  <anchor x="282" y="0" name="bottomC"/>
  <anchor x="282" y="660" name="top"/>
  <anchor x="537" y="0" name="ogonek"/>
  <anchor x="282" y="0" name="bottom"/>
  <outline>
    <contour>
      <point x="518" y="635" type="line"/>
      <point x="518" y="660" type="line"/>
      <point x="42" y="660" type="line"/>
      <point x="42" y="635" type="line"/>
      <point x="498" y="635" type="line"/>
      <point x="493" y="645" type="line"/>
      <point x="34" y="25" type="line"/>
      <point x="34" y="0" type="line"/>
      <point x="537" y="0" type="line"/>
      <point x="537" y="25" type="line"/>
      <point x="54" y="25" type="line"/>
      <point x="59" y="15" type="line"/>
    </contour>
  </outline>
</glyph>
<glyph name="asciicircum" format="2">
  <advance width="538"/>
  <unicode hex="005E"/>
  <outline>
    <contour>
      <point x="66" y="355" type="line"/>
      <point x="284" y="730" type="line"/>
      <point x="254" y="730" type="line"/>
      <point x="35" y="355" type="line"/>
    </contour>
    <contour>
      <point x="284" y="730" type="line"/>
      <point x="254" y="730" type="line"/>
      <point x="472" y="355" type="line"/>
      <point x="503" y="355" type="line"/>
    </contour>
  </outline>
</glyph>
<glyph name="underscore" format="2">
  <advance width="507"/>
  <unicode hex="005F"/>
  <outline>
    <contour>
      <point x="0" y="-97" type="line"/>
      <point x="0" y="-122" type="line"/>
      <point x="507" y="-122" type="line"/>
      <point x="507" y="-97" type="line"/>
    </contour>
  </outline>
</glyph>
<glyph name="grave" format="2">
  <advance width="541"/>
  <unicode hex="0060"/>
  <anchor x="245" y="500" name="_top"/>
  <outline>
    <contour>
      <point x="148" y="734" type="line"/>
      <point x="238" y="583" type="line"/>
      <point x="262" y="583" type="line"/>
      <point x="179" y="734" type="line"/>
    </contour>
  </outline>
</glyph>
<glyph name="a" format="2">
  <advance width="526"/>
  <unicode hex="0061"/>
  <anchor x="468" y="0" name="bottomC"/>
  <anchor x="248" y="500" name="top"/>
  <anchor x="519" y="-1" name="ogonek"/>
  <anchor x="248" y="0" name="bottom"/>
  <outline>
    <contour>
      <point x="58" y="388" type="curve"/>
      <point x="80" y="372" type="line"/>
      <point x="109" y="452"/>
      <point x="165" y="486"/>
      <point x="252" y="486" type="curve" smooth="yes"/>
      <point x="350" y="486"/>
      <point x="403" y="433"/>
      <point x="403" y="345" type="curve" smooth="yes"/>
      <point x="403" y="113" type="line"/>
      <point x="403" y="86" type="line" smooth="yes"/>
      <point x="403" y="6"/>
      <point x="443" y="-10"/>
      <point x="479" y="-10" type="curve" smooth="yes"/>
      <point x="497" y="-10"/>
      <point x="509" y="-7"/>
      <point x="519" y="-1" type="curve"/>
      <point x="521" y="22" type="line"/>
      <point x="512" y="16"/>
      <point x="497" y="14"/>
      <point x="483" y="14" type="curve" smooth="yes"/>
      <point x="451" y="14"/>
      <point x="431" y="35"/>
      <point x="431" y="79" type="curve" smooth="yes"/>
      <point x="431" y="347" type="line" smooth="yes"/>
      <point x="431" y="454"/>
      <point x="365" y="510"/>
      <point x="252" y="510" type="curve" smooth="yes"/>
      <point x="152" y="510"/>
      <point x="88" y="469"/>
    </contour>
    <contour>
      <point x="234" y="258" type="line" smooth="yes"/>
      <point x="104" y="234"/>
      <point x="48" y="189"/>
      <point x="48" y="111" type="curve" smooth="yes"/>
      <point x="48" y="34"/>
      <point x="109" y="-10"/>
      <point x="207" y="-10" type="curve" smooth="yes"/>
      <point x="303" y="-10"/>
      <point x="414" y="38"/>
      <point x="414" y="137" type="curve"/>
      <point x="403" y="154" type="line"/>
      <point x="403" y="57"/>
      <point x="290" y="15"/>
      <point x="212" y="15" type="curve" smooth="yes"/>
      <point x="127" y="15"/>
      <point x="77" y="50"/>
      <point x="77" y="111" type="curve" smooth="yes"/>
      <point x="77" y="174"/>
      <point x="124" y="214"/>
      <point x="247" y="236" type="curve" smooth="yes"/>
      <point x="417" y="268" type="line"/>
      <point x="414" y="291" type="line"/>
    </contour>
  </outline>
</glyph>
<glyph name="b" format="2">
  <advance width="593"/>
  <unicode hex="0062"/>
  <anchor x="306" y="0" name="bottomC"/>
  <anchor x="101" y="730" name="top"/>
  <anchor x="426" y="20" name="ogonek"/>
  <anchor x="306" y="0" name="bottom"/>
  <outline>
    <contour>
      <point x="87" y="730" type="line"/>
      <point x="87" y="104" type="line"/>
      <point x="87" y="0" type="line"/>
      <point x="113" y="0" type="line"/>
      <point x="114" y="163" type="line"/>
      <point x="115" y="174" type="line"/>
      <point x="115" y="730" type="line"/>
    </contour>
    <component base="bowl" xScale="-1.0" xOffset="656"/>
  </outline>
</glyph>
<glyph name="d" format="2">
  <advance width="593"/>
  <unicode hex="0064"/>
  <anchor x="305" y="275" name="center"/>
  <anchor x="288" y="0" name="bottomC"/>
  <anchor x="493" y="730" name="top"/>
  <anchor x="288" y="0" name="bottom"/>
  <anchor x="612" y="730" name="topright"/>
  <anchor x="394" y="20" name="ogonek"/>
  <outline>
    <contour>
      <point x="479" y="730" type="line"/>
      <point x="479" y="173" type="line"/>
      <point x="480" y="164" type="line"/>
      <point x="481" y="0" type="line"/>
      <point x="507" y="0" type="line"/>
      <point x="507" y="104" type="line"/>
      <point x="507" y="730" type="line"/>
    </contour>
    <component base="bowl" xOffset="-63"/>
  </outline>
</glyph>
<glyph name="h" format="2">
  <advance width="582"/>
  <unicode hex="0068"/>
  <anchor x="494" y="0" name="bottomC"/>
  <anchor x="101" y="730" name="top"/>
  <anchor x="502" y="0" name="ogonek"/>
  <anchor x="327" y="0" name="bottom"/>
  <outline>
    <contour>
      <point x="87" y="730" type="line"/>
      <point x="87" y="0" type="line"/>
      <point x="115" y="0" type="line"/>
      <point x="115" y="730" type="line"/>
    </contour>
    <contour>
      <point x="103" y="312" type="curve"/>
      <point x="115" y="295" type="line"/>
      <point x="115" y="404"/>
      <point x="201" y="486"/>
      <point x="310" y="486" type="curve" smooth="yes"/>
      <point x="409" y="486"/>
      <point x="474" y="429"/>
      <point x="474" y="321" type="curve" smooth="yes"/>
      <point x="474" y="1" type="line"/>
      <point x="502" y="1" type="line"/>
      <point x="502" y="328" type="line" smooth="yes"/>
      <point x="502" y="446"/>
      <point x="428" y="511"/>
      <point x="314" y="511" type="curve" smooth="yes"/>
      <point x="193" y="511"/>
      <point x="103" y="429"/>
    </contour>
  </outline>
</glyph>
<glyph name="l" format="2">
  <advance width="250"/>
  <unicode hex="006C"/>
  <anchor x="226" y="359" name="center"/>
  <anchor x="158" y="0" name="bottomC"/>
  <anchor x="97" y="730" name="top"/>
  <anchor x="186" y="0" name="bottom"/>
  <anchor x="218" y="730" name="topright"/>
  <anchor x="229" y="0" name="ogonek"/>
  <outline>
    <contour>
      <point x="83" y="730" type="line"/>
      <point x="83" y="110" type="line" smooth="yes"/>
      <point x="83" y="27"/>
      <point x="114" y="-10"/>
      <point x="177" y="-10" type="curve" smooth="yes"/>
      <point x="203" y="-10"/>
      <point x="224" y="-5"/>
      <point x="238" y="2" type="curve"/>
      <point x="241" y="28" type="line"/>
      <point x="222" y="20"/>
      <point x="209" y="16"/>
      <point x="180" y="16" type="curve" smooth="yes"/>
      <point x="132" y="16"/>
      <point x="111" y="43"/>
      <point x="111" y="112" type="curve" smooth="yes"/>
      <point x="111" y="730" type="line"/>
    </contour>
  </outline>
</glyph>
<glyph name="m" format="2">
  <advance width="965"/>
  <unicode hex="006D"/>
  <anchor x="877" y="0" name="bottomC"/>
  <anchor x="486" y="500" name="top"/>
  <anchor x="885" y="2" name="ogonek"/>
  <anchor x="486" y="0" name="bottom"/>
  <outline>
    <contour>
      <point x="488" y="324" type="curve"/>
      <point x="500" y="298" type="line"/>
      <point x="500" y="402"/>
      <point x="584" y="487"/>
      <point x="694" y="487" type="curve" smooth="yes"/>
      <point x="792" y="487"/>
      <point x="857" y="430"/>
      <point x="857" y="326" type="curve" smooth="yes"/>
      <point x="857" y="2" type="line"/>
      <point x="885" y="2" type="line"/>
      <point x="885" y="329" type="line" smooth="yes"/>
      <point x="885" y="447"/>
      <point x="809" y="512"/>
      <point x="698" y="512" type="curve" smooth="yes"/>
      <point x="581" y="512"/>
      <point x="488" y="432"/>
    </contour>
    <contour>
      <point x="87" y="500" type="line"/>
      <point x="87" y="316" type="line"/>
      <point x="87" y="0" type="line"/>
      <point x="115" y="0" type="line"/>
      <point x="115" y="342" type="line"/>
      <point x="114" y="349" type="line"/>
      <point x="113" y="500" type="line"/>
    </contour>
    <contour>
      <point x="102" y="313" type="curve"/>
      <point x="115" y="295" type="line"/>
      <point x="115" y="402"/>
      <point x="201" y="486"/>
      <point x="309" y="486" type="curve" smooth="yes"/>
      <point x="407" y="486"/>
      <point x="472" y="428"/>
      <point x="472" y="324" type="curve" smooth="yes"/>
      <point x="472" y="0" type="line"/>
      <point x="500" y="0" type="line"/>
      <point x="500" y="327" type="line" smooth="yes"/>
      <point x="500" y="446"/>
      <point x="424" y="510"/>
      <point x="313" y="510" type="curve" smooth="yes"/>
      <point x="193" y="510"/>
      <point x="102" y="427"/>
    </contour>
  </outline>
</glyph>
<glyph name="n" format="2">
  <advance width="582"/>
  <unicode hex="006E"/>
  <anchor x="494" y="0" name="bottomC"/>
  <anchor x="298" y="500" name="top"/>
  <anchor x="502" y="0" name="ogonek"/>
  <anchor x="327" y="0" name="bottom"/>
  <outline>
    <contour>
      <point x="102" y="312" type="curve"/>
      <point x="115" y="294" type="line"/>
      <point x="115" y="403"/>
      <point x="201" y="486"/>
      <point x="310" y="486" type="curve" smooth="yes"/>
      <point x="409" y="486"/>
      <point x="474" y="428"/>
      <point x="474" y="320" type="curve" smooth="yes"/>
      <point x="474" y="0" type="line"/>
      <point x="502" y="0" type="line"/>
      <point x="502" y="327" type="line" smooth="yes"/>
      <point x="502" y="445"/>
      <point x="428" y="510"/>
      <point x="314" y="510" type="curve" smooth="yes"/>
      <point x="193" y="510"/>
      <point x="102" y="428"/>
    </contour>
    <contour>
      <point x="87" y="500" type="line"/>
      <point x="87" y="316" type="line"/>
      <point x="87" y="0" type="line"/>
      <point x="115" y="0" type="line"/>
      <point x="115" y="308" type="line"/>
      <point x="114" y="316" type="line"/>
      <point x="113" y="500" type="line"/>
    </contour>
  </outline>
</glyph>
<glyph name="o" format="2">
  <advance width="576"/>
  <unicode hex="006F"/>
  <anchor x="289" y="0" name="bottomC"/>
  <anchor x="289" y="500" name="top"/>
  <anchor x="411" y="20" name="ogonek"/>
  <anchor x="289" y="0" name="bottom"/>
  <outline>
    <contour>
      <point x="53" y="250" type="curve" smooth="yes"/>
      <point x="53" y="88"/>
      <point x="142" y="-10"/>
      <point x="289" y="-10" type="curve" smooth="yes"/>
      <point x="435" y="-10"/>
      <point x="523" y="88"/>
      <point x="523" y="250" type="curve" smooth="yes"/>
      <point x="523" y="412"/>
      <point x="435" y="510"/>
      <point x="289" y="510" type="curve" smooth="yes"/>
      <point x="142" y="510"/>
      <point x="53" y="412"/>
    </contour>
    <contour>
      <point x="495" y="250" type="curve" smooth="yes"/>
      <point x="495" y="103"/>
      <point x="417" y="14"/>
      <point x="289" y="14" type="curve" smooth="yes"/>
      <point x="160" y="14"/>
      <point x="81" y="103"/>
      <point x="81" y="250" type="curve" smooth="yes"/>
      <point x="81" y="397"/>
      <point x="160" y="486"/>
      <point x="289" y="486" type="curve" smooth="yes"/>
      <point x="417" y="486"/>
      <point x="495" y="397"/>
    </contour>
  </outline>
</glyph>
<glyph name="p" format="2">
  <advance width="593"/>
  <unicode hex="0070"/>
  <anchor x="307" y="0" name="bottomC"/>
  <anchor x="306" y="500" name="top"/>
  <anchor x="427" y="20" name="ogonek"/>
  <anchor x="101" y="-210" name="bottom"/>
  <outline>
    <contour>
      <point x="87" y="500" type="line"/>
      <point x="87" y="396" type="line"/>
      <point x="87" y="-210" type="line"/>
      <point x="115" y="-210" type="line"/>
      <point x="115" y="328" type="line"/>
      <point x="114" y="333" type="line"/>
      <point x="113" y="500" type="line"/>
    </contour>
    <component base="bowl" xScale="-1.0" yScale="-1.0" xOffset="656" yOffset="500"/>
  </outline>
</glyph>
<glyph name="y" format="2">
  <advance width="491"/>
  <unicode hex="0079"/>
  <anchor x="69" y="-210" name="bottomC"/>
  <anchor x="249" y="500" name="top"/>
  <anchor x="119" y="-210" name="ogonek"/>
  <anchor x="130" y="-210" name="bottom"/>
  <outline>
    <contour>
      <point x="439" y="500" type="line"/>
      <point x="270" y="84" type="line"/>
      <point x="250" y="31" type="line"/>
      <point x="229" y="81" type="line"/>
      <point x="56" y="500" type="line"/>
      <point x="24" y="500" type="line"/>
      <point x="182" y="127" type="line"/>
      <point x="236" y="-1" type="line"/>
      <point x="199" y="-92" type="line" smooth="yes"/>
      <point x="167" y="-169"/>
      <point x="133" y="-191"/>
      <point x="84" y="-191" type="curve" smooth="yes"/>
      <point x="56" y="-191"/>
      <point x="29" y="-183"/>
      <point x="12" y="-158" type="curve"/>
      <point x="0" y="-181" type="line"/>
      <point x="16" y="-204"/>
      <point x="46" y="-215"/>
      <point x="84" y="-215" type="curve" smooth="yes"/>
      <point x="148" y="-215"/>
      <point x="187" y="-187"/>
      <point x="224" y="-98" type="curve" smooth="yes"/>
      <point x="470" y="500" type="line"/>
    </contour>
  </outline>
</glyph>
<glyph name="braceleft" format="2">
  <advance width="276"/>
  <unicode hex="007B"/>
  <outline>
    <contour>
      <point x="125" y="628" type="curve" smooth="yes"/>
      <point x="125" y="392" type="line" smooth="yes"/>
      <point x="125" y="330"/>
      <point x="85" y="297"/>
      <point x="12" y="297" type="curve"/>
      <point x="12" y="278" type="line"/>
      <point x="100" y="278"/>
      <point x="152" y="319"/>
      <point x="152" y="391" type="curve" smooth="yes"/>
      <point x="152" y="629" type="line" smooth="yes"/>
      <point x="152" y="685"/>
      <point x="188" y="719"/>
      <point x="252" y="719" type="curve"/>
      <point x="250" y="742" type="line"/>
      <point x="169" y="742"/>
      <point x="125" y="700"/>
    </contour>
    <contour>
      <point x="12" y="273" type="line"/>
      <point x="85" y="273"/>
      <point x="125" y="239"/>
      <point x="125" y="177" type="curve" smooth="yes"/>
      <point x="125" y="-59" type="line" smooth="yes"/>
      <point x="125" y="-131"/>
      <point x="169" y="-174"/>
      <point x="250" y="-174" type="curve"/>
      <point x="252" y="-150" type="line"/>
      <point x="188" y="-150"/>
      <point x="152" y="-117"/>
      <point x="152" y="-60" type="curve" smooth="yes"/>
      <point x="152" y="178" type="line" smooth="yes"/>
      <point x="152" y="250"/>
      <point x="100" y="291"/>
      <point x="12" y="291" type="curve"/>
    </contour>
  </outline>
</glyph>
<glyph name="sterling" format="2">
  <advance width="583"/>
  <unicode hex="00A3"/>
  <outline>
    <contour>
      <point x="93" y="322" type="line"/>
      <point x="93" y="298" type="line"/>
      <point x="452" y="298" type="line"/>
      <point x="452" y="322" type="line"/>
    </contour>
    <component base="sterling.part" xOffset="8"/>
  </outline>
</glyph>
<glyph name="currency" format="2">
  <advance width="614"/>
  <unicode hex="00A4"/>
  <outline>
    <contour>
      <point x="124" y="332" type="curve" smooth="yes"/>
      <point x="124" y="218"/>
      <point x="197" y="142"/>
      <point x="307" y="142" type="curve" smooth="yes"/>
      <point x="416" y="142"/>
      <point x="489" y="218"/>
      <point x="489" y="332" type="curve" smooth="yes"/>
      <point x="489" y="445"/>
      <point x="416" y="520"/>
      <point x="307" y="520" type="curve" smooth="yes"/>
      <point x="197" y="520"/>
      <point x="124" y="445"/>
    </contour>
    <contour>
      <point x="461" y="332" type="curve" smooth="yes"/>
      <point x="461" y="232"/>
      <point x="401" y="167"/>
      <point x="307" y="167" type="curve" smooth="yes"/>
      <point x="213" y="167"/>
      <point x="152" y="232"/>
      <point x="152" y="332" type="curve" smooth="yes"/>
      <point x="152" y="431"/>
      <point x="213" y="495"/>
      <point x="307" y="495" type="curve" smooth="yes"/>
      <point x="401" y="495"/>
      <point x="461" y="431"/>
    </contour>
    <contour>
      <point x="64" y="554" type="line"/>
      <point x="172" y="446" type="line"/>
      <point x="191" y="464" type="line"/>
      <point x="83" y="573" type="line"/>
    </contour>
    <contour>
      <point x="64" y="106" type="line"/>
      <point x="83" y="86" type="line"/>
      <point x="192" y="196" type="line"/>
      <point x="173" y="216" type="line"/>
    </contour>
    <contour>
      <point x="422" y="196" type="line"/>
      <point x="532" y="86" type="line"/>
      <point x="550" y="105" type="line"/>
      <point x="439" y="215" type="line"/>
    </contour>
    <contour>
      <point x="423" y="465" type="line"/>
      <point x="442" y="445" type="line"/>
      <point x="550" y="555" type="line"/>
      <point x="532" y="573" type="line"/>
    </contour>
  </outline>
</glyph>
<glyph name="yen" format="2">
  <advance width="578"/>
  <unicode hex="00A5"/>
  <outline>
    <contour>
      <point x="42" y="660" type="line"/>
      <point x="275" y="260" type="line"/>
      <point x="302" y="260" type="line"/>
      <point x="536" y="660" type="line"/>
      <point x="503" y="660" type="line"/>
      <point x="310" y="320" type="line"/>
      <point x="290" y="281" type="line"/>
      <point x="288" y="281" type="line"/>
      <point x="268" y="320" type="line"/>
      <point x="75" y="660" type="line"/>
    </contour>
    <contour>
      <point x="302" y="0" type="line"/>
      <point x="302" y="262" type="line"/>
      <point x="276" y="262" type="line"/>
      <point x="276" y="0" type="line"/>
    </contour>
    <contour>
      <point x="506" y="128" type="line"/>
      <point x="506" y="150" type="line"/>
      <point x="72" y="150" type="line"/>
      <point x="72" y="128" type="line"/>
    </contour>
    <contour>
      <point x="506" y="252" type="line"/>
      <point x="506" y="275" type="line"/>
      <point x="329" y="275" type="line"/>
      <point x="289" y="273" type="line"/>
      <point x="249" y="275" type="line"/>
      <point x="72" y="275" type="line"/>
      <point x="72" y="252" type="line"/>
    </contour>
  </outline>
</glyph>
<glyph name="registered" format="2">
  <advance width="801"/>
  <unicode hex="00AE"/>
  <outline>
    <contour>
      <point x="58" y="330" type="curve" smooth="yes"/>
      <point x="58" y="126"/>
      <point x="195" y="-10"/>
      <point x="400" y="-10" type="curve" smooth="yes"/>
      <point x="606" y="-10"/>
      <point x="742" y="126"/>
      <point x="742" y="330" type="curve" smooth="yes"/>
      <point x="742" y="534"/>
      <point x="606" y="670"/>
      <point x="400" y="670" type="curve" smooth="yes"/>
      <point x="195" y="670"/>
      <point x="58" y="534"/>
    </contour>
    <contour>
      <point x="277" y="513" type="line"/>
      <point x="277" y="143" type="line"/>
      <point x="303" y="143" type="line"/>
      <point x="303" y="513" type="line"/>
    </contour>
    <contour>
      <point x="423" y="312" type="line"/>
      <point x="532" y="143" type="line"/>
      <point x="561" y="143" type="line"/>
      <point x="445" y="321" type="line"/>
    </contour>
    <contour>
      <point x="716" y="330" type="curve" smooth="yes"/>
      <point x="716" y="140"/>
      <point x="590" y="14"/>
      <point x="400" y="14" type="curve" smooth="yes"/>
      <point x="211" y="14"/>
      <point x="85" y="140"/>
      <point x="85" y="330" type="curve" smooth="yes"/>
      <point x="85" y="520"/>
      <point x="211" y="646"/>
      <point x="400" y="646" type="curve" smooth="yes"/>
      <point x="590" y="646"/>
      <point x="716" y="520"/>
    </contour>
    <contour>
      <point x="290" y="513" type="line"/>
      <point x="290" y="492" type="line"/>
      <point x="431" y="492" type="line" smooth="yes"/>
      <point x="496" y="492"/>
      <point x="530" y="464"/>
      <point x="530" y="409" type="curve" smooth="yes"/>
      <point x="530" y="354"/>
      <point x="496" y="326"/>
      <point x="431" y="325" type="curve" smooth="yes"/>
      <point x="290" y="325" type="line"/>
      <point x="290" y="305" type="line"/>
      <point x="431" y="305" type="line" smooth="yes"/>
      <point x="511" y="305"/>
      <point x="554" y="342"/>
      <point x="554" y="409" type="curve" smooth="yes"/>
      <point x="554" y="477"/>
      <point x="511" y="513"/>
      <point x="431" y="513" type="curve" smooth="yes"/>
    </contour>
  </outline>
</glyph>
<glyph name="macron" format="2">
  <advance width="541"/>
  <unicode hex="00AF"/>
  <anchor x="270" y="500" name="_top"/>
  <outline>
    <contour>
      <point x="121" y="627" type="line"/>
      <point x="121" y="603" type="line"/>
      <point x="420" y="603" type="line"/>
      <point x="420" y="627" type="line"/>
    </contour>
  </outline>
</glyph>
<glyph name="cedilla" format="2">
  <advance width="541"/>
  <unicode hex="00B8"/>
  <anchor x="276" y="0" name="_bottomC"/>
  <outline>
    <contour>
      <point x="353" y="-115" type="curve" smooth="yes"/>
      <point x="353" y="-156"/>
      <point x="324" y="-183"/>
      <point x="283" y="-183" type="curve" smooth="yes"/>
      <point x="250" y="-183"/>
      <point x="224" y="-173"/>
      <point x="200" y="-144" type="curve"/>
      <point x="188" y="-164" type="line"/>
      <point x="213" y="-194"/>
      <point x="244" y="-204"/>
      <point x="285" y="-204" type="curve" smooth="yes"/>
      <point x="341" y="-204"/>
      <point x="379" y="-167"/>
      <point x="379" y="-116" type="curve" smooth="yes"/>
      <point x="379" y="-68"/>
      <point x="351" y="-29"/>
      <point x="269" y="8" type="curve"/>
      <point x="244" y="3" type="line"/>
      <point x="331" y="-43"/>
      <point x="353" y="-73"/>
    </contour>
  </outline>
</glyph>
<glyph name="Aring" format="2">
  <advance width="600"/>
  <unicode hex="00C5"/>
  <anchor x="581" y="0" name="bottomC"/>
  <anchor x="300" y="788" name="top"/>
  <anchor x="585" y="0" name="ogonek"/>
  <anchor x="300" y="0" name="bottom"/>
  <outline>
    <contour>
      <point x="218" y="719" type="curve" smooth="yes"/>
      <point x="218" y="672"/>
      <point x="251" y="640"/>
      <point x="300" y="640" type="curve" smooth="yes"/>
      <point x="349" y="640"/>
      <point x="382" y="672"/>
      <point x="382" y="719" type="curve" smooth="yes"/>
      <point x="382" y="767"/>
      <point x="349" y="798"/>
      <point x="300" y="798" type="curve" smooth="yes"/>
      <point x="251" y="798"/>
      <point x="218" y="767"/>
    </contour>
    <contour>
      <point x="359" y="719" type="curve" smooth="yes"/>
      <point x="359" y="684"/>
      <point x="335" y="661"/>
      <point x="300" y="661" type="curve" smooth="yes"/>
      <point x="265" y="661"/>
      <point x="241" y="684"/>
      <point x="241" y="719" type="curve" smooth="yes"/>
      <point x="241" y="755"/>
      <point x="265" y="778"/>
      <point x="300" y="778" type="curve" smooth="yes"/>
      <point x="335" y="778"/>
      <point x="359" y="755"/>
    </contour>
    <contour>
      <point x="44" y="0" type="line"/>
      <point x="280" y="578" type="line"/>
      <point x="300" y="631" type="line"/>
      <point x="300" y="631" type="line"/>
      <point x="320" y="577" type="line"/>
      <point x="556" y="0" type="line"/>
      <point x="585" y="0" type="line"/>
      <point x="316" y="660" type="line"/>
      <point x="284" y="660" type="line"/>
      <point x="15" y="0" type="line"/>
    </contour>
    <contour>
      <point x="474" y="224" type="line"/>
      <point x="474" y="250" type="line"/>
      <point x="124" y="250" type="line"/>
      <point x="124" y="224" type="line"/>
    </contour>
  </outline>
</glyph>
<glyph name="AE" format="2">
  <advance width="898"/>
  <unicode hex="00C6"/>
  <anchor x="467" y="0" name="bottomC"/>
  <anchor x="454" y="660" name="top"/>
  <anchor x="864" y="0" name="ogonek"/>
  <anchor x="454" y="0" name="bottom"/>
  <outline>
    <contour>
      <point x="408" y="660" type="line"/>
      <point x="-5" y="0" type="line"/>
      <point x="29" y="0" type="line"/>
      <point x="437" y="660" type="line"/>
    </contour>
    <contour>
      <point x="181" y="272" type="line"/>
      <point x="165" y="246" type="line"/>
      <point x="452" y="246" type="line"/>
      <point x="452" y="272" type="line"/>
    </contour>
    <contour>
      <point x="456" y="25" type="line"/>
      <point x="456" y="0" type="line"/>
      <point x="864" y="0" type="line"/>
      <point x="864" y="25" type="line"/>
    </contour>
    <contour>
      <point x="440" y="660" type="line"/>
      <point x="440" y="0" type="line"/>
      <point x="468" y="0" type="line"/>
      <point x="468" y="660" type="line"/>
    </contour>
    <contour>
      <point x="456" y="348" type="line"/>
      <point x="456" y="322" type="line"/>
      <point x="770" y="322" type="line"/>
      <point x="770" y="348" type="line"/>
    </contour>
    <contour>
      <point x="425" y="660" type="line"/>
      <point x="409" y="635" type="line"/>
      <point x="452" y="635" type="line"/>
      <point x="458" y="635" type="line"/>
      <point x="848" y="635" type="line"/>
      <point x="848" y="660" type="line"/>
    </contour>
  </outline>
</glyph>
<glyph name="Oslash" format="2">
  <advance width="720"/>
  <unicode hex="00D8"/>
  <anchor x="360" y="0" name="bottomC"/>
  <anchor x="360" y="660" name="top"/>
  <anchor x="437" y="0" name="ogonek"/>
  <anchor x="360" y="0" name="bottom"/>
  <outline>
    <contour>
      <point x="605" y="689" type="line"/>
      <point x="538" y="595" type="line"/>
      <point x="557" y="581" type="line"/>
      <point x="634" y="689" type="line"/>
    </contour>
    <contour>
      <point x="164" y="76" type="line"/>
      <point x="181" y="60" type="line"/>
      <point x="557" y="581" type="line"/>
      <point x="538" y="595" type="line"/>
    </contour>
    <contour>
      <point x="116" y="-31" type="line"/>
      <point x="181" y="60" type="line"/>
      <point x="164" y="76" type="line"/>
      <point x="86" y="-31" type="line"/>
    </contour>
    <component base="O"/>
  </outline>
</glyph>
<glyph name="germandbls" format="2">
  <advance width="567"/>
  <unicode hex="00DF"/>
  <anchor x="306" y="0" name="bottomC"/>
  <anchor x="302" y="730" name="top"/>
  <anchor x="433" y="20" name="ogonek"/>
  <anchor x="302" y="0" name="bottom"/>
  <outline>
    <contour>
      <point x="332" y="381" type="line"/>
      <point x="424" y="384"/>
      <point x="488" y="459"/>
      <point x="488" y="559" type="curve" smooth="yes"/>
      <point x="488" y="664"/>
      <point x="421" y="735"/>
      <point x="299" y="735" type="curve" smooth="yes"/>
      <point x="155" y="735"/>
      <point x="87" y="655"/>
      <point x="87" y="512" type="curve" smooth="yes"/>
      <point x="87" y="0" type="line"/>
      <point x="114" y="0" type="line"/>
      <point x="114" y="499" type="line" smooth="yes"/>
      <point x="114" y="637"/>
      <point x="174" y="710"/>
      <point x="298" y="710" type="curve" smooth="yes"/>
      <point x="399" y="710"/>
      <point x="459" y="655"/>
      <point x="459" y="559" type="curve" smooth="yes"/>
      <point x="459" y="454"/>
      <point x="392" y="391"/>
      <point x="295" y="391" type="curve" smooth="yes"/>
      <point x="252" y="391" type="line"/>
      <point x="252" y="366" type="line"/>
      <point x="295" y="366" type="line" smooth="yes"/>
      <point x="410" y="366"/>
      <point x="489" y="308"/>
      <point x="489" y="187" type="curve" smooth="yes"/>
      <point x="489" y="82"/>
      <point x="424" y="14"/>
      <point x="324" y="14" type="curve" smooth="yes"/>
      <point x="284" y="14"/>
      <point x="254" y="26"/>
      <point x="230" y="52" type="curve"/>
      <point x="219" y="32" type="line"/>
      <point x="241" y="5"/>
      <point x="279" y="-10"/>
      <point x="324" y="-10" type="curve" smooth="yes"/>
      <point x="442" y="-10"/>
      <point x="516" y="70"/>
      <point x="516" y="185" type="curve" smooth="yes"/>
      <point x="516" y="297"/>
      <point x="454" y="375"/>
      <point x="332" y="380" type="curve"/>
    </contour>
  </outline>
</glyph>
<glyph name="ae" format="2">
  <advance width="869"/>
  <unicode hex="00E6"/>
  <anchor x="594" y="0" name="bottomC"/>
  <anchor x="417" y="500" name="top"/>
  <anchor x="679" y="-1" name="ogonek"/>
  <anchor x="417" y="0" name="bottom"/>
  <outline>
    <contour>
      <point x="810" y="107" type="curve"/>
      <point x="787" y="119" type="line"/>
      <point x="760" y="54"/>
      <point x="707" y="15"/>
      <point x="616" y="15" type="curve" smooth="yes"/>
      <point x="503" y="15"/>
      <point x="430" y="103"/>
      <point x="430" y="250" type="curve" smooth="yes"/>
      <point x="430" y="397"/>
      <point x="501" y="486"/>
      <point x="614" y="486" type="curve" smooth="yes"/>
      <point x="734" y="486"/>
      <point x="793" y="411"/>
      <point x="794" y="264" type="curve"/>
      <point x="806" y="276" type="line"/>
      <point x="418" y="276" type="line"/>
      <point x="418" y="250" type="line"/>
      <point x="819" y="250" type="line"/>
      <point x="819" y="254"/>
      <point x="819" y="260"/>
      <point x="819" y="266" type="curve" smooth="yes"/>
      <point x="819" y="425"/>
      <point x="749" y="510"/>
      <point x="614" y="510" type="curve" smooth="yes"/>
      <point x="486" y="510"/>
      <point x="406" y="411"/>
      <point x="406" y="250" type="curve" smooth="yes"/>
      <point x="406" y="83"/>
      <point x="488" y="-10"/>
      <point x="616" y="-10" type="curve" smooth="yes"/>
      <point x="719" y="-10"/>
      <point x="778" y="34"/>
    </contour>
    <contour>
      <point x="421" y="180" type="curve"/>
      <point x="404" y="190" type="line"/>
      <point x="404" y="57"/>
      <point x="291" y="15"/>
      <point x="212" y="15" type="curve" smooth="yes"/>
      <point x="134" y="15"/>
      <point x="77" y="46"/>
      <point x="77" y="111" type="curve" smooth="yes"/>
      <point x="77" y="174"/>
      <point x="122" y="223"/>
      <point x="245" y="235" type="curve" smooth="yes"/>
      <point x="418" y="253" type="line"/>
      <point x="414" y="276" type="line"/>
      <point x="232" y="257" type="line" smooth="yes"/>
      <point x="103" y="243"/>
      <point x="48" y="189"/>
      <point x="48" y="111" type="curve" smooth="yes"/>
      <point x="48" y="32"/>
      <point x="112" y="-10"/>
      <point x="205" y="-10" type="curve" smooth="yes"/>
      <point x="307" y="-10"/>
      <point x="421" y="40"/>
    </contour>
    <contour>
      <point x="430" y="180" type="line"/>
      <point x="430" y="340" type="line" smooth="yes"/>
      <point x="430" y="450"/>
      <point x="366" y="510"/>
      <point x="252" y="510" type="curve" smooth="yes"/>
      <point x="153" y="510"/>
      <point x="89" y="470"/>
      <point x="58" y="388" type="curve"/>
      <point x="80" y="372" type="line"/>
      <point x="110" y="449"/>
      <point x="166" y="486"/>
      <point x="252" y="486" type="curve" smooth="yes"/>
      <point x="350" y="486"/>
      <point x="404" y="433"/>
      <point x="404" y="342" type="curve" smooth="yes"/>
      <point x="404" y="174" type="line"/>
    </contour>
  </outline>
</glyph>
<glyph name="eth" format="2">
  <advance width="585"/>
  <unicode hex="00F0"/>
  <anchor x="285" y="0" name="bottomC"/>
  <anchor x="285" y="730" name="top"/>
  <anchor x="398" y="20" name="ogonek"/>
  <anchor x="285" y="0" name="bottom"/>
  <outline>
    <contour>
      <point x="233" y="730" type="line"/>
      <point x="385" y="667"/>
      <point x="490" y="532"/>
      <point x="494" y="296" type="curve"/>
      <point x="492" y="253" type="line"/>
      <point x="488" y="104"/>
      <point x="414" y="15"/>
      <point x="290" y="15" type="curve" smooth="yes"/>
      <point x="161" y="15"/>
      <point x="82" y="101"/>
      <point x="82" y="237" type="curve" smooth="yes"/>
      <point x="82" y="373"/>
      <point x="161" y="461"/>
      <point x="284" y="461" type="curve" smooth="yes"/>
      <point x="421" y="461"/>
      <point x="492" y="363"/>
      <point x="492" y="253" type="curve"/>
      <point x="506" y="273" type="line"/>
      <point x="500" y="403"/>
      <point x="419" y="485"/>
      <point x="282" y="485" type="curve" smooth="yes"/>
      <point x="146" y="485"/>
      <point x="53" y="389"/>
      <point x="53" y="237" type="curve" smooth="yes"/>
      <point x="53" y="87"/>
      <point x="143" y="-10"/>
      <point x="289" y="-10" type="curve" smooth="yes"/>
      <point x="433" y="-10"/>
      <point x="518" y="90"/>
      <point x="518" y="284" type="curve" smooth="yes"/>
      <point x="518" y="539"/>
      <point x="412" y="666"/>
      <point x="279" y="730" type="curve"/>
    </contour>
    <contour>
      <point x="217" y="588" type="line"/>
      <point x="222" y="569" type="line"/>
      <point x="415" y="611" type="line"/>
      <point x="403" y="627" type="line"/>
    </contour>
    <contour>
      <point x="403" y="627" type="line"/>
      <point x="415" y="611" type="line"/>
      <point x="533" y="636" type="line"/>
      <point x="527" y="656" type="line"/>
    </contour>
  </outline>
</glyph>
<glyph name="aogonek" format="2">
  <advance width="526"/>
  <unicode hex="0105"/>
  <anchor x="442" y="-199" name="bottomC"/>
  <anchor x="248" y="500" name="top"/>
  <anchor x="488" y="-199" name="ogonek"/>
  <anchor x="248" y="-210" name="bottom"/>
  <outline>
    <contour>
      <point x="58" y="388" type="curve"/>
      <point x="80" y="372" type="line"/>
      <point x="110" y="449"/>
      <point x="165" y="486"/>
      <point x="252" y="486" type="curve" smooth="yes"/>
      <point x="350" y="486"/>
      <point x="403" y="433"/>
      <point x="403" y="345" type="curve" smooth="yes"/>
      <point x="403" y="115" type="line"/>
      <point x="403" y="88" type="line" smooth="yes"/>
      <point x="403" y="6"/>
      <point x="448" y="-10"/>
      <point x="481" y="-10" type="curve" smooth="yes"/>
      <point x="484" y="-10"/>
      <point x="517" y="-2"/>
      <point x="519" y="-1" type="curve"/>
      <point x="521" y="22" type="line"/>
      <point x="512" y="16"/>
      <point x="497" y="14"/>
      <point x="483" y="14" type="curve" smooth="yes"/>
      <point x="451" y="14"/>
      <point x="431" y="35"/>
      <point x="431" y="79" type="curve" smooth="yes"/>
      <point x="431" y="347" type="line" smooth="yes"/>
      <point x="431" y="454"/>
      <point x="365" y="510"/>
      <point x="252" y="510" type="curve" smooth="yes"/>
      <point x="152" y="510"/>
      <point x="88" y="469"/>
    </contour>
    <contour>
      <point x="356" y="-125" type="curve" smooth="yes"/>
      <point x="356" y="-175"/>
      <point x="397" y="-204"/>
      <point x="450" y="-204" type="curve" smooth="yes"/>
      <point x="484" y="-204"/>
      <point x="504" y="-198"/>
      <point x="520" y="-187" type="curve"/>
      <point x="512" y="-167" type="line"/>
      <point x="498" y="-178"/>
      <point x="482" y="-182"/>
      <point x="451" y="-182" type="curve" smooth="yes"/>
      <point x="411" y="-182"/>
      <point x="381" y="-160"/>
      <point x="381" y="-122" type="curve" smooth="yes"/>
      <point x="381" y="-72"/>
      <point x="421" y="-41"/>
      <point x="519" y="-1" type="curve"/>
      <point x="506" y="9" type="line"/>
      <point x="401" y="-27"/>
      <point x="356" y="-66"/>
    </contour>
    <contour>
      <point x="234" y="258" type="line" smooth="yes"/>
      <point x="104" y="234"/>
      <point x="48" y="189"/>
      <point x="48" y="111" type="curve" smooth="yes"/>
      <point x="48" y="34"/>
      <point x="109" y="-10"/>
      <point x="207" y="-10" type="curve" smooth="yes"/>
      <point x="303" y="-10"/>
      <point x="414" y="38"/>
      <point x="414" y="137" type="curve"/>
      <point x="403" y="154" type="line"/>
      <point x="403" y="57"/>
      <point x="290" y="15"/>
      <point x="212" y="15" type="curve" smooth="yes"/>
      <point x="127" y="15"/>
      <point x="77" y="50"/>
      <point x="77" y="111" type="curve" smooth="yes"/>
      <point x="77" y="174"/>
      <point x="124" y="213"/>
      <point x="247" y="236" type="curve" smooth="yes"/>
      <point x="417" y="268" type="line"/>
      <point x="414" y="291" type="line"/>
    </contour>
  </outline>
</glyph>
<glyph name="Dcroat" format="2">
  <advance width="700"/>
  <unicode hex="0110"/>
  <anchor x="284" y="0" name="bottomC"/>
  <anchor x="322" y="660" name="top"/>
  <anchor x="315" y="0" name="ogonek"/>
  <anchor x="367" y="330" name="center"/>
  <anchor x="322" y="0" name="bottom"/>
  <outline>
    <contour>
      <point x="9" y="345" type="line"/>
      <point x="9" y="323" type="line"/>
      <point x="343" y="323" type="line"/>
      <point x="343" y="345" type="line"/>
    </contour>
    <component base="D" xOffset="10"/>
  </outline>
</glyph>
<glyph name="dcroat" format="2">
  <advance width="593"/>
  <unicode hex="0111"/>
  <anchor x="305" y="275" name="center"/>
  <anchor x="288" y="0" name="bottomC"/>
  <anchor x="493" y="730" name="top"/>
  <anchor x="288" y="0" name="bottom"/>
  <anchor x="612" y="730" name="topright"/>
  <anchor x="394" y="20" name="ogonek"/>
  <outline>
    <contour>
      <point x="302" y="610" type="line"/>
      <point x="302" y="589" type="line"/>
      <point x="600" y="589" type="line"/>
      <point x="600" y="610" type="line"/>
    </contour>
    <component base="d"/>
  </outline>
</glyph>
<glyph name="gbreve" format="2">
  <advance width="503"/>
  <unicode hex="011F"/>
  <outline>
    <contour>
      <point x="378" y="468" type="curve"/>
      <point x="398" y="460" type="line"/>
      <point x="398" y="526"/>
      <point x="435" y="568"/>
      <point x="503" y="568" type="curve"/>
      <point x="495" y="592" type="line"/>
      <point x="424" y="592"/>
      <point x="378" y="544"/>
    </contour>
    <component base="gbase" xOffset="-14"/>
    <component base="breve" xOffset="10"/>
  </outline>
</glyph>
<glyph name="iogonek" format="2">
  <advance width="201"/>
  <unicode hex="012F"/>
  <anchor x="107" y="0" name="bottomC"/>
  <anchor x="101" y="646" name="top"/>
  <anchor x="115" y="0" name="ogonek"/>
  <anchor x="101" y="0" name="bottom"/>
  <outline>
    <contour>
      <point x="96" y="8" type="line"/>
      <point x="33" y="-40"/>
      <point x="3" y="-71"/>
      <point x="3" y="-119" type="curve" smooth="yes"/>
      <point x="3" y="-173"/>
      <point x="45" y="-204"/>
      <point x="94" y="-204" type="curve" smooth="yes"/>
      <point x="125" y="-204"/>
      <point x="143" y="-200"/>
      <point x="162" y="-183" type="curve"/>
      <point x="153" y="-163" type="line"/>
      <point x="137" y="-178"/>
      <point x="122" y="-183"/>
      <point x="95" y="-183" type="curve" smooth="yes"/>
      <point x="59" y="-183"/>
      <point x="28" y="-158"/>
      <point x="28" y="-118" type="curve" smooth="yes"/>
      <point x="28" y="-76"/>
      <point x="53" y="-49"/>
      <point x="115" y="0" type="curve"/>
    </contour>
    <component base="i"/>
  </outline>
</glyph>
<glyph name="lslash" format="2">
  <advance width="296"/>
  <unicode hex="0142"/>
  <anchor x="259" y="359" name="center"/>
  <anchor x="191" y="0" name="bottomC"/>
  <anchor x="130" y="730" name="top"/>
  <anchor x="219" y="0" name="bottom"/>
  <anchor x="242" y="730" name="topright"/>
  <anchor x="262" y="0" name="ogonek"/>
  <outline>
    <contour>
      <point x="129" y="366" type="line"/>
      <point x="19" y="289" type="line"/>
      <point x="19" y="260" type="line"/>
      <point x="133" y="339" type="line"/>
      <point x="268" y="434" type="line"/>
      <point x="268" y="463" type="line"/>
    </contour>
    <component base="l" xOffset="33"/>
  </outline>
</glyph>
<glyph name="OE" format="2">
  <advance width="1056"/>
  <unicode hex="0152"/>
  <anchor x="624" y="0" name="bottomC"/>
  <anchor x="576" y="660" name="top"/>
  <anchor x="1022" y="0" name="ogonek"/>
  <anchor x="576" y="0" name="bottom"/>
  <outline>
    <contour>
      <point x="58" y="330" type="curve" smooth="yes"/>
      <point x="58" y="121"/>
      <point x="170" y="-10"/>
      <point x="344" y="-10" type="curve" smooth="yes"/>
      <point x="527" y="-10"/>
      <point x="614" y="105"/>
      <point x="614" y="330" type="curve" smooth="yes"/>
      <point x="614" y="555"/>
      <point x="528" y="670"/>
      <point x="344" y="670" type="curve" smooth="yes"/>
      <point x="170" y="670"/>
      <point x="58" y="539"/>
    </contour>
    <contour>
      <point x="591" y="330" type="curve" smooth="yes"/>
      <point x="591" y="120"/>
      <point x="514" y="15"/>
      <point x="344" y="15" type="curve" smooth="yes"/>
      <point x="188" y="15"/>
      <point x="87" y="136"/>
      <point x="87" y="330" type="curve" smooth="yes"/>
      <point x="87" y="524"/>
      <point x="188" y="645"/>
      <point x="344" y="645" type="curve" smooth="yes"/>
      <point x="514" y="645"/>
      <point x="591" y="540"/>
    </contour>
    <contour>
      <point x="610" y="25" type="line"/>
      <point x="604" y="0" type="line"/>
      <point x="1022" y="0" type="line"/>
      <point x="1022" y="25" type="line"/>
    </contour>
    <contour>
      <point x="591" y="660" type="line"/>
      <point x="591" y="0" type="line"/>
      <point x="618" y="0" type="line"/>
      <point x="618" y="660" type="line"/>
    </contour>
    <contour>
      <point x="604" y="349" type="line"/>
      <point x="604" y="324" type="line"/>
      <point x="930" y="324" type="line"/>
      <point x="930" y="349" type="line"/>
    </contour>
    <contour>
      <point x="604" y="660" type="line"/>
      <point x="604" y="635" type="line"/>
      <point x="1005" y="635" type="line"/>
      <point x="1005" y="660" type="line"/>
    </contour>
  </outline>
</glyph>
<glyph name="oe" format="2">
  <advance width="987"/>
  <unicode hex="0153"/>
  <anchor x="700" y="0" name="bottomC"/>
  <anchor x="510" y="500" name="top"/>
  <anchor x="847" y="20" name="ogonek"/>
  <anchor x="510" y="0" name="bottom"/>
  <outline>
    <contour>
      <point x="53" y="250" type="curve" smooth="yes"/>
      <point x="53" y="88"/>
      <point x="142" y="-10"/>
      <point x="289" y="-10" type="curve" smooth="yes"/>
      <point x="435" y="-10"/>
      <point x="523" y="88"/>
      <point x="523" y="250" type="curve" smooth="yes"/>
      <point x="523" y="412"/>
      <point x="435" y="510"/>
      <point x="289" y="510" type="curve" smooth="yes"/>
      <point x="142" y="510"/>
      <point x="53" y="412"/>
    </contour>
    <contour>
      <point x="496" y="250" type="curve" smooth="yes"/>
      <point x="496" y="103"/>
      <point x="418" y="15"/>
      <point x="289" y="15" type="curve" smooth="yes"/>
      <point x="161" y="15"/>
      <point x="82" y="103"/>
      <point x="82" y="250" type="curve" smooth="yes"/>
      <point x="82" y="397"/>
      <point x="161" y="486"/>
      <point x="289" y="486" type="curve" smooth="yes"/>
      <point x="418" y="486"/>
      <point x="496" y="397"/>
    </contour>
    <contour>
      <point x="931" y="107" type="curve"/>
      <point x="908" y="119" type="line"/>
      <point x="878" y="54"/>
      <point x="810" y="15"/>
      <point x="728" y="15" type="curve" smooth="yes"/>
      <point x="599" y="15"/>
      <point x="524" y="103"/>
      <point x="524" y="250" type="curve" smooth="yes"/>
      <point x="524" y="397"/>
      <point x="598" y="486"/>
      <point x="723" y="486" type="curve" smooth="yes"/>
      <point x="844" y="486"/>
      <point x="910" y="397"/>
      <point x="911" y="250" type="curve"/>
      <point x="923" y="261" type="line"/>
      <point x="513" y="261" type="line"/>
      <point x="513" y="235" type="line"/>
      <point x="936" y="235" type="line"/>
      <point x="936" y="240"/>
      <point x="936" y="246"/>
      <point x="936" y="252" type="curve" smooth="yes"/>
      <point x="936" y="410"/>
      <point x="857" y="510"/>
      <point x="723" y="510" type="curve" smooth="yes"/>
      <point x="582" y="510"/>
      <point x="499" y="413"/>
      <point x="499" y="250" type="curve" smooth="yes"/>
      <point x="499" y="87"/>
      <point x="584" y="-10"/>
      <point x="728" y="-10" type="curve" smooth="yes"/>
      <point x="822" y="-10"/>
      <point x="896" y="34"/>
    </contour>
  </outline>
</glyph>
<glyph name="uni0162" format="2">
  <advance width="555"/>
  <unicode hex="0162"/>
  <anchor x="270" y="-199" name="bottomC"/>
  <anchor x="278" y="660" name="top"/>
  <anchor x="309" y="-199" name="ogonek"/>
  <anchor x="278" y="363" name="center"/>
  <anchor x="278" y="-210" name="bottom"/>
  <outline>
    <contour>
      <point x="347" y="-113" type="curve" smooth="yes"/>
      <point x="347" y="-155"/>
      <point x="319" y="-183"/>
      <point x="276" y="-183" type="curve" smooth="yes"/>
      <point x="238" y="-183"/>
      <point x="215" y="-168"/>
      <point x="195" y="-144" type="curve"/>
      <point x="182" y="-162" type="line"/>
      <point x="203" y="-188"/>
      <point x="231" y="-204"/>
      <point x="278" y="-204" type="curve" smooth="yes"/>
      <point x="336" y="-204"/>
      <point x="372" y="-167"/>
      <point x="372" y="-116" type="curve" smooth="yes"/>
      <point x="372" y="-65"/>
      <point x="347" y="-30"/>
      <point x="290" y="5" type="curve"/>
      <point x="264" y="0" type="line"/>
      <point x="321" y="-37"/>
      <point x="347" y="-66"/>
    </contour>
    <component base="T"/>
  </outline>
</glyph>
<glyph name="uni0163" format="2">
  <advance width="350"/>
  <unicode hex="0163"/>
  <anchor x="127" y="275" name="center"/>
  <anchor x="193" y="-199" name="bottomC"/>
  <anchor x="129" y="730" name="top"/>
  <anchor x="227" y="-210" name="bottom"/>
  <anchor x="255" y="767" name="topright"/>
  <anchor x="243" y="-199" name="ogonek"/>
  <outline>
    <contour>
      <point x="279" y="-115" type="curve" smooth="yes"/>
      <point x="279" y="-156"/>
      <point x="252" y="-183"/>
      <point x="211" y="-183" type="curve" smooth="yes"/>
      <point x="173" y="-183"/>
      <point x="149" y="-171"/>
      <point x="126" y="-144" type="curve"/>
      <point x="114" y="-164" type="line"/>
      <point x="139" y="-193"/>
      <point x="166" y="-204"/>
      <point x="213" y="-204" type="curve" smooth="yes"/>
      <point x="269" y="-204"/>
      <point x="304" y="-167"/>
      <point x="304" y="-116" type="curve" smooth="yes"/>
      <point x="304" y="-68"/>
      <point x="274" y="-28"/>
      <point x="191" y="12" type="curve"/>
      <point x="169" y="8" type="line"/>
      <point x="257" y="-43"/>
      <point x="279" y="-73"/>
    </contour>
    <component base="t"/>
  </outline>
</glyph>
<glyph name="florin" format="2">
  <advance width="416"/>
  <unicode hex="0192"/>
  <outline>
    <contour>
      <point x="220" y="591" type="curve" smooth="yes"/>
      <point x="131" y="17" type="line" smooth="yes"/>
      <point x="118" y="-63"/>
      <point x="82" y="-103"/>
      <point x="22" y="-103" type="curve" smooth="yes"/>
      <point x="-4" y="-103"/>
      <point x="-22" y="-98"/>
      <point x="-38" y="-87" type="curve"/>
      <point x="-45" y="-110" type="line"/>
      <point x="-21" y="-124"/>
      <point x="-5" y="-128"/>
      <point x="23" y="-128" type="curve" smooth="yes"/>
      <point x="98" y="-128"/>
      <point x="144" y="-79"/>
      <point x="159" y="16" type="curve" smooth="yes"/>
      <point x="249" y="591" type="line" smooth="yes"/>
      <point x="261" y="672"/>
      <point x="298" y="710"/>
      <point x="361" y="710" type="curve" smooth="yes"/>
      <point x="382" y="710"/>
      <point x="399" y="705"/>
      <point x="417" y="695" type="curve"/>
      <point x="421" y="720" type="line"/>
      <point x="399" y="732"/>
      <point x="382" y="735"/>
      <point x="353" y="735" type="curve" smooth="yes"/>
      <point x="278" y="735"/>
      <point x="235" y="689"/>
    </contour>
    <contour>
      <point x="32" y="400" type="line"/>
      <point x="32" y="376" type="line"/>
      <point x="384" y="376" type="line"/>
      <point x="384" y="400" type="line"/>
    </contour>
  </outline>
</glyph>
<glyph name="jdotless" format="2">
  <advance width="201"/>
  <unicode hex="0237"/>
  <anchor x="8" y="-210" name="bottomC"/>
  <anchor x="101" y="500" name="top"/>
  <anchor x="34" y="-204" name="ogonek"/>
  <anchor x="8" y="-210" name="bottom"/>
  <outline>
    <contour>
      <point x="87" y="500" type="line"/>
      <point x="87" y="-60" type="line" smooth="yes"/>
      <point x="87" y="-141"/>
      <point x="44" y="-189"/>
      <point x="-21" y="-189" type="curve" smooth="yes"/>
      <point x="-48" y="-189"/>
      <point x="-74" y="-181"/>
      <point x="-90" y="-165" type="curve"/>
      <point x="-98" y="-191" type="line"/>
      <point x="-80" y="-206"/>
      <point x="-52" y="-215"/>
      <point x="-21" y="-215" type="curve" smooth="yes"/>
      <point x="57" y="-215"/>
      <point x="115" y="-160"/>
      <point x="115" y="-62" type="curve" smooth="yes"/>
      <point x="115" y="500" type="line"/>
    </contour>
  </outline>
</glyph>
<glyph name="breve" format="2">
  <advance width="541"/>
  <unicode hex="02D8"/>
  <anchor x="254" y="500" name="_top"/>
  <outline>
    <contour>
      <point x="356" y="706" type="line"/>
      <point x="356" y="645"/>
      <point x="317" y="603"/>
      <point x="254" y="603" type="curve" smooth="yes"/>
      <point x="192" y="603"/>
      <point x="152" y="645"/>
      <point x="152" y="706" type="curve"/>
      <point x="128" y="706" type="line"/>
      <point x="128" y="628"/>
      <point x="176" y="580"/>
      <point x="254" y="580" type="curve" smooth="yes"/>
      <point x="332" y="580"/>
      <point x="380" y="628"/>
      <point x="380" y="706" type="curve"/>
    </contour>
  </outline>
</glyph>
<glyph name="ring" format="2">
  <advance width="541"/>
  <unicode hex="02DA"/>
  <anchor x="253" y="500" name="_top"/>
  <outline>
    <contour>
      <point x="161" y="662" type="curve" smooth="yes"/>
      <point x="161" y="612"/>
      <point x="199" y="575"/>
      <point x="251" y="575" type="curve" smooth="yes"/>
      <point x="303" y="575"/>
      <point x="341" y="612"/>
      <point x="341" y="662" type="curve" smooth="yes"/>
      <point x="341" y="712"/>
      <point x="303" y="749"/>
      <point x="251" y="749" type="curve" smooth="yes"/>
      <point x="199" y="749"/>
      <point x="161" y="712"/>
    </contour>
    <contour>
      <point x="318" y="662" type="curve" smooth="yes"/>
      <point x="318" y="625"/>
      <point x="289" y="596"/>
      <point x="251" y="596" type="curve" smooth="yes"/>
      <point x="213" y="596"/>
      <point x="184" y="625"/>
      <point x="184" y="662" type="curve" smooth="yes"/>
      <point x="184" y="700"/>
      <point x="213" y="729"/>
      <point x="251" y="729" type="curve" smooth="yes"/>
      <point x="289" y="729"/>
      <point x="318" y="700"/>
    </contour>
  </outline>
</glyph>
<glyph name="hungarumlaut" format="2">
  <advance width="541"/>
  <unicode hex="02DD"/>
  <anchor x="243" y="500" name="_top"/>
  <outline>
    <contour>
      <point x="372" y="734" type="line"/>
      <point x="289" y="583" type="line"/>
      <point x="313" y="583" type="line"/>
      <point x="403" y="734" type="line"/>
    </contour>
    <contour>
      <point x="233" y="734" type="line"/>
      <point x="149" y="583" type="line"/>
      <point x="174" y="583" type="line"/>
      <point x="264" y="734" type="line"/>
    </contour>
  </outline>
</glyph>
<glyph name="commaaccent" format="2">
  <unicode hex="0326"/>
  <anchor x="0" y="0" name="_bottom"/>
  <outline>
    <contour>
      <point x="-19" y="-70" type="line"/>
      <point x="-68" y="-231" type="line"/>
      <point x="-46" y="-231" type="line"/>
      <point x="11" y="-70" type="line"/>
    </contour>
  </outline>
</glyph>
<glyph name="pi" format="2">
  <advance width="689"/>
  <unicode hex="03C0"/>
  <outline>
    <contour>
      <point x="670" y="500" type="line"/>
      <point x="11" y="500" type="line"/>
      <point x="11" y="476" type="line"/>
      <point x="670" y="476" type="line"/>
    </contour>
    <contour>
      <point x="171" y="495" type="line"/>
      <point x="171" y="0" type="line"/>
      <point x="199" y="0" type="line"/>
      <point x="199" y="495" type="line"/>
    </contour>
    <contour>
      <point x="478" y="495" type="line"/>
      <point x="478" y="100" type="line" smooth="yes"/>
      <point x="478" y="24"/>
      <point x="533" y="0"/>
      <point x="612" y="0" type="curve"/>
      <point x="617" y="24" type="line"/>
      <point x="554" y="24"/>
      <point x="506" y="40"/>
      <point x="506" y="102" type="curve" smooth="yes"/>
      <point x="506" y="495" type="line"/>
    </contour>
  </outline>
</glyph>
<glyph name="daggerdbl" format="2">
  <advance width="510"/>
  <unicode hex="2021"/>
  <outline>
    <contour>
      <point x="241" y="660" type="line"/>
      <point x="241" y="-100" type="line"/>
      <point x="269" y="-100" type="line"/>
      <point x="269" y="660" type="line"/>
    </contour>
    <contour>
      <point x="47" y="451" type="line"/>
      <point x="47" y="427" type="line"/>
      <point x="463" y="427" type="line"/>
      <point x="463" y="451" type="line"/>
    </contour>
    <contour>
      <point x="47" y="133" type="line"/>
      <point x="47" y="109" type="line"/>
      <point x="463" y="109" type="line"/>
      <point x="463" y="133" type="line"/>
    </contour>
  </outline>
</glyph>
<glyph name="guilsinglleft" format="2">
  <advance width="271"/>
  <unicode hex="2039"/>
  <outline>
    <contour>
      <point x="188" y="461" type="line"/>
      <point x="47" y="265" type="line"/>
      <point x="188" y="69" type="line"/>
      <point x="221" y="69" type="line"/>
      <point x="79" y="265" type="line"/>
      <point x="221" y="461" type="line"/>
    </contour>
  </outline>
</glyph>
<glyph name="fraction" format="2">
  <advance width="211"/>
  <unicode hex="2044"/>
  <outline>
    <contour>
      <point x="-113" y="0" type="line"/>
      <point x="354" y="660" type="line"/>
      <point x="324" y="660" type="line"/>
      <point x="-143" y="0" type="line"/>
    </contour>
  </outline>
</glyph>
<glyph name="zerosuperior" format="2">
  <advance width="365"/>
  <unicode hex="2070"/>
  <outline>
    <contour>
      <point x="328" y="531" type="curve" smooth="yes"/>
      <point x="328" y="663"/>
      <point x="277" y="735"/>
      <point x="183" y="735" type="curve" smooth="yes"/>
      <point x="88" y="735"/>
      <point x="37" y="663"/>
      <point x="37" y="531" type="curve" smooth="yes"/>
      <point x="37" y="399"/>
      <point x="88" y="327"/>
      <point x="183" y="327" type="curve" smooth="yes"/>
      <point x="277" y="327"/>
      <point x="328" y="399"/>
    </contour>
    <contour>
      <point x="63" y="531" type="curve" smooth="yes"/>
      <point x="63" y="648"/>
      <point x="106" y="713"/>
      <point x="183" y="713" type="curve" smooth="yes"/>
      <point x="260" y="713"/>
      <point x="302" y="648"/>
      <point x="302" y="531" type="curve" smooth="yes"/>
      <point x="302" y="414"/>
      <point x="260" y="349"/>
      <point x="183" y="349" type="curve" smooth="yes"/>
      <point x="106" y="349"/>
      <point x="63" y="414"/>
    </contour>
  </outline>
</glyph>
<glyph name="foursuperior" format="2">
  <advance width="334"/>
  <unicode hex="2074"/>
  <anchor x="186" y="527" name="_indexring"/>
  <outline>
    <contour>
      <point x="236" y="470" type="line"/>
      <point x="236" y="730" type="line"/>
      <point x="204" y="730" type="line"/>
      <point x="14" y="467" type="line"/>
      <point x="14" y="449" type="line"/>
      <point x="212" y="449" type="line"/>
      <point x="212" y="333" type="line"/>
      <point x="236" y="333" type="line"/>
      <point x="236" y="449" type="line"/>
      <point x="315" y="449" type="line"/>
      <point x="315" y="470" type="line"/>
    </contour>
    <contour>
      <point x="179" y="659" type="line" smooth="yes"/>
      <point x="190" y="675"/>
      <point x="201" y="691"/>
      <point x="211" y="706" type="curve"/>
      <point x="213" y="706" type="line"/>
      <point x="212" y="690"/>
      <point x="212" y="674"/>
      <point x="212" y="658" type="curve" smooth="yes"/>
      <point x="212" y="470" type="line"/>
      <point x="40" y="470" type="line"/>
    </contour>
  </outline>
</glyph>
<glyph name="fivesuperior" format="2">
  <advance width="335"/>
  <unicode hex="2075"/>
  <anchor x="170" y="534" name="_indexring"/>
  <outline>
    <contour>
      <point x="69" y="539" type="curve"/>
      <point x="68" y="539" type="line"/>
      <point x="69" y="546"/>
      <point x="70" y="551"/>
      <point x="72" y="567" type="curve" smooth="yes"/>
      <point x="85" y="708" type="line"/>
      <point x="286" y="708" type="line"/>
      <point x="286" y="730" type="line"/>
      <point x="64" y="730" type="line"/>
      <point x="45" y="513" type="line"/>
      <point x="68" y="513" type="line"/>
      <point x="88" y="542"/>
      <point x="118" y="559"/>
      <point x="173" y="559" type="curve" smooth="yes"/>
      <point x="236" y="559"/>
      <point x="277" y="518"/>
      <point x="277" y="455" type="curve" smooth="yes"/>
      <point x="277" y="393"/>
      <point x="233" y="350"/>
      <point x="170" y="350" type="curve" smooth="yes"/>
      <point x="106" y="350"/>
      <point x="68" y="380"/>
      <point x="57" y="434" type="curve"/>
      <point x="34" y="423" type="line"/>
      <point x="52" y="358"/>
      <point x="100" y="328"/>
      <point x="170" y="328" type="curve" smooth="yes"/>
      <point x="250" y="328"/>
      <point x="303" y="378"/>
      <point x="303" y="455" type="curve" smooth="yes"/>
      <point x="303" y="529"/>
      <point x="252" y="580"/>
      <point x="177" y="580" type="curve" smooth="yes"/>
      <point x="122" y="580"/>
      <point x="88" y="564"/>
    </contour>
  </outline>
</glyph>
<glyph name="ninesuperior" format="2">
  <advance width="356"/>
  <unicode hex="2079"/>
  <anchor x="171" y="530" name="_indexring"/>
  <outline>
    <contour>
      <point x="37" y="612" type="curve" smooth="yes"/>
      <point x="37" y="536"/>
      <point x="87" y="487"/>
      <point x="169" y="487" type="curve" smooth="yes"/>
      <point x="224" y="487"/>
      <point x="287" y="527"/>
      <point x="287" y="593" type="curve"/>
      <point x="288" y="593" type="line"/>
      <point x="292" y="573"/>
      <point x="294" y="552"/>
      <point x="294" y="530" type="curve" smooth="yes"/>
      <point x="294" y="441"/>
      <point x="261" y="349"/>
      <point x="171" y="349" type="curve" smooth="yes"/>
      <point x="107" y="349"/>
      <point x="73" y="379"/>
      <point x="63" y="424" type="curve"/>
      <point x="39" y="413" type="line"/>
      <point x="55" y="360"/>
      <point x="102" y="327"/>
      <point x="171" y="327" type="curve" smooth="yes"/>
      <point x="260" y="327"/>
      <point x="318" y="399"/>
      <point x="318" y="531" type="curve" smooth="yes"/>
      <point x="318" y="658"/>
      <point x="266" y="735"/>
      <point x="170" y="735" type="curve" smooth="yes"/>
      <point x="89" y="735"/>
      <point x="37" y="687"/>
    </contour>
    <contour>
      <point x="277" y="610" type="curve" smooth="yes"/>
      <point x="277" y="559"/>
      <point x="232" y="508"/>
      <point x="169" y="508" type="curve" smooth="yes"/>
      <point x="105" y="508"/>
      <point x="63" y="551"/>
      <point x="63" y="611" type="curve" smooth="yes"/>
      <point x="63" y="672"/>
      <point x="105" y="713"/>
      <point x="171" y="713" type="curve" smooth="yes"/>
      <point x="233" y="713"/>
      <point x="277" y="669"/>
    </contour>
  </outline>
</glyph>
<glyph name="minussuperior" format="2">
  <advance width="332"/>
  <unicode hex="207B"/>
  <outline>
    <contour>
      <point x="295" y="522" type="line"/>
      <point x="295" y="543" type="line"/>
      <point x="38" y="543" type="line"/>
      <point x="38" y="522" type="line"/>
    </contour>
  </outline>
</glyph>
<glyph name="parenleftsuperior" format="2">
  <advance width="197"/>
  <unicode hex="207D"/>
  <outline>
    <contour>
      <point x="73" y="531" type="curve" smooth="yes"/>
      <point x="73" y="416"/>
      <point x="117" y="320"/>
      <point x="191" y="249" type="curve"/>
      <point x="205" y="263" type="line"/>
      <point x="137" y="335"/>
      <point x="98" y="417"/>
      <point x="98" y="531" type="curve" smooth="yes"/>
      <point x="98" y="645"/>
      <point x="137" y="727"/>
      <point x="205" y="799" type="curve"/>
      <point x="191" y="813" type="line"/>
      <point x="117" y="743"/>
      <point x="73" y="646"/>
    </contour>
  </outline>
</glyph>
<glyph name="Euro" format="2">
  <advance width="658"/>
  <unicode hex="20AC"/>
  <outline>
    <contour>
      <point x="40" y="266" type="line"/>
      <point x="40" y="242" type="line"/>
      <point x="389" y="242" type="line"/>
      <point x="401" y="266" type="line"/>
    </contour>
    <contour>
      <point x="40" y="416" type="line"/>
      <point x="40" y="392" type="line"/>
      <point x="429" y="392" type="line"/>
      <point x="441" y="416" type="line"/>
    </contour>
    <component base="euro.part"/>
  </outline>
</glyph>
<glyph name="uni2113" format="2">
  <advance width="338"/>
  <unicode hex="2113"/>
  <outline>
    <contour>
      <point x="298" y="7" type="curve"/>
      <point x="299" y="33" type="line"/>
      <point x="279" y="21"/>
      <point x="259" y="16"/>
      <point x="229" y="16" type="curve" smooth="yes"/>
      <point x="169" y="16"/>
      <point x="142" y="46"/>
      <point x="142" y="110" type="curve" smooth="yes"/>
      <point x="142" y="558" type="line" smooth="yes"/>
      <point x="142" y="617"/>
      <point x="161" y="647"/>
      <point x="203" y="647" type="curve" smooth="yes"/>
      <point x="243" y="647"/>
      <point x="263" y="620"/>
      <point x="263" y="563" type="curve" smooth="yes"/>
      <point x="263" y="416"/>
      <point x="175" y="286"/>
      <point x="41" y="233" type="curve"/>
      <point x="41" y="207" type="line"/>
      <point x="193" y="269"/>
      <point x="288" y="414"/>
      <point x="288" y="562" type="curve" smooth="yes"/>
      <point x="288" y="635"/>
      <point x="260" y="670"/>
      <point x="202" y="670" type="curve" smooth="yes"/>
      <point x="145" y="670"/>
      <point x="116" y="633"/>
      <point x="116" y="557" type="curve" smooth="yes"/>
      <point x="116" y="108" type="line" smooth="yes"/>
      <point x="116" y="25"/>
      <point x="149" y="-10"/>
      <point x="225" y="-10" type="curve" smooth="yes"/>
      <point x="258" y="-10"/>
      <point x="281" y="-4"/>
    </contour>
  </outline>
</glyph>
<glyph name="estimated" format="2">
  <advance width="786"/>
  <unicode hex="212E"/>
  <outline>
    <contour>
      <point x="58" y="330" type="curve" smooth="yes"/>
      <point x="58" y="124"/>
      <point x="192" y="-10"/>
      <point x="418" y="-10" type="curve" smooth="yes"/>
      <point x="544" y="-10"/>
      <point x="645" y="35"/>
      <point x="705" y="131" type="curve"/>
      <point x="705" y="176" type="line"/>
      <point x="642" y="76"/>
      <point x="537" y="21"/>
      <point x="419" y="21" type="curve" smooth="yes"/>
      <point x="309" y="21"/>
      <point x="223" y="55"/>
      <point x="167" y="117" type="curve"/>
      <point x="167" y="316" type="line"/>
      <point x="737" y="316" type="line"/>
      <point x="738" y="542"/>
      <point x="610" y="670"/>
      <point x="398" y="670" type="curve" smooth="yes"/>
      <point x="192" y="670"/>
      <point x="58" y="536"/>
    </contour>
    <contour>
      <point x="630" y="539" type="curve"/>
      <point x="630" y="347" type="line"/>
      <point x="167" y="347" type="line"/>
      <point x="167" y="549" type="line"/>
      <point x="219" y="607"/>
      <point x="299" y="639"/>
      <point x="397" y="639" type="curve" smooth="yes"/>
      <point x="498" y="639"/>
      <point x="577" y="604"/>
    </contour>
  </outline>
</glyph>
<glyph name="uparrow" format="2">
  <advance width="750"/>
  <unicode hex="2191"/>
  <outline>
    <contour>
      <point x="378" y="647" type="curve"/>
      <point x="370" y="647" type="line"/>
      <point x="422" y="549"/>
      <point x="533" y="433"/>
      <point x="672" y="330" type="curve"/>
      <point x="690" y="355" type="line"/>
      <point x="557" y="449"/>
      <point x="469" y="538"/>
      <point x="375" y="668" type="curve"/>
      <point x="373" y="668" type="line"/>
      <point x="279" y="539"/>
      <point x="190" y="448"/>
      <point x="58" y="355" type="curve"/>
      <point x="76" y="330" type="line"/>
      <point x="216" y="433"/>
      <point x="326" y="549"/>
    </contour>
    <contour>
      <point x="388" y="0" type="line"/>
      <point x="388" y="501" type="line" smooth="yes"/>
      <point x="388" y="541"/>
      <point x="386" y="593"/>
      <point x="385" y="634" type="curve"/>
      <point x="374" y="649" type="line"/>
      <point x="364" y="634" type="line"/>
      <point x="362" y="593"/>
      <point x="360" y="541"/>
      <point x="360" y="501" type="curve" smooth="yes"/>
      <point x="360" y="0" type="line"/>
    </contour>
  </outline>
</glyph>
<glyph name="updownarrow" format="2">
  <advance width="750"/>
  <unicode hex="2195"/>
  <outline>
    <contour>
      <point x="386" y="-93" type="line"/>
      <point x="387" y="-55"/>
      <point x="388" y="-4"/>
      <point x="388" y="32" type="curve" smooth="yes"/>
      <point x="388" y="628" type="line" smooth="yes"/>
      <point x="388" y="664"/>
      <point x="387" y="715"/>
      <point x="386" y="753" type="curve"/>
      <point x="374" y="768" type="line"/>
      <point x="362" y="753" type="line"/>
      <point x="361" y="715"/>
      <point x="360" y="664"/>
      <point x="360" y="628" type="curve" smooth="yes"/>
      <point x="360" y="32" type="line" smooth="yes"/>
      <point x="360" y="-4"/>
      <point x="361" y="-55"/>
      <point x="362" y="-93" type="curve"/>
      <point x="374" y="-108" type="line"/>
    </contour>
    <contour>
      <point x="378" y="766" type="curve"/>
      <point x="370" y="766" type="line"/>
      <point x="422" y="668"/>
      <point x="533" y="553"/>
      <point x="674" y="448" type="curve"/>
      <point x="690" y="474" type="line"/>
      <point x="557" y="568"/>
      <point x="469" y="656"/>
      <point x="375" y="787" type="curve"/>
      <point x="373" y="787" type="line"/>
      <point x="279" y="657"/>
      <point x="190" y="568"/>
      <point x="58" y="474" type="curve"/>
      <point x="74" y="448" type="line"/>
      <point x="216" y="553"/>
      <point x="326" y="668"/>
    </contour>
    <contour>
      <point x="58" y="186" type="line"/>
      <point x="190" y="92"/>
      <point x="279" y="3"/>
      <point x="373" y="-127" type="curve"/>
      <point x="375" y="-127" type="line"/>
      <point x="469" y="4"/>
      <point x="557" y="92"/>
      <point x="690" y="186" type="curve"/>
      <point x="674" y="212" type="line"/>
      <point x="533" y="107"/>
      <point x="422" y="-8"/>
      <point x="370" y="-106" type="curve"/>
      <point x="378" y="-106" type="line"/>
      <point x="326" y="-8"/>
      <point x="216" y="107"/>
      <point x="74" y="212" type="curve"/>
    </contour>
  </outline>
</glyph>
<glyph name="nearrow" format="2">
  <advance width="750"/>
  <unicode hex="2197"/>
  <outline>
    <contour>
      <point x="486" y="412" type="line" smooth="yes"/>
      <point x="534" y="460"/>
      <point x="552" y="479"/>
      <point x="595" y="525" type="curve"/>
      <point x="598" y="543" type="line"/>
      <point x="579" y="540" type="line"/>
      <point x="551" y="515"/>
      <point x="497" y="463"/>
      <point x="466" y="432" type="curve" smooth="yes"/>
      <point x="146" y="112" type="line"/>
      <point x="166" y="91" type="line"/>
    </contour>
    <contour>
      <point x="600" y="107" type="line"/>
      <point x="586" y="263"/>
      <point x="589" y="392"/>
      <point x="613" y="555" type="curve"/>
      <point x="609" y="558" type="line"/>
      <point x="448" y="534"/>
      <point x="317" y="531"/>
      <point x="161" y="545" type="curve"/>
      <point x="159" y="515" type="line"/>
      <point x="324" y="504"/>
      <point x="490" y="509"/>
      <point x="598" y="538" type="curve"/>
      <point x="592" y="543" type="line"/>
      <point x="564" y="435"/>
      <point x="558" y="269"/>
      <point x="569" y="105" type="curve"/>
    </contour>
  </outline>
</glyph>
<glyph name="product" format="2">
  <advance width="638"/>
  <unicode hex="220F"/>
  <outline>
    <contour>
      <point x="530" y="660" type="line"/>
      <point x="530" y="-128" type="line"/>
      <point x="558" y="-128" type="line"/>
      <point x="558" y="660" type="line"/>
    </contour>
    <contour>
      <point x="80" y="660" type="line"/>
      <point x="80" y="-128" type="line"/>
      <point x="108" y="-128" type="line"/>
      <point x="108" y="660" type="line"/>
    </contour>
    <contour>
      <point x="95" y="660" type="line"/>
      <point x="95" y="635" type="line"/>
      <point x="544" y="635" type="line"/>
      <point x="544" y="660" type="line"/>
    </contour>
  </outline>
</glyph>
<glyph name="minus" format="2">
  <advance width="604"/>
  <unicode hex="2212"/>
  <outline>
    <contour>
      <point x="74" y="329" type="line"/>
      <point x="74" y="303" type="line"/>
      <point x="530" y="303" type="line"/>
      <point x="530" y="329" type="line"/>
    </contour>
  </outline>
</glyph>
<glyph name="radical" format="2">
  <advance width="611"/>
  <unicode hex="221A"/>
  <outline>
    <contour>
      <point x="577" y="818" type="line"/>
      <point x="287" y="70" type="line"/>
      <point x="264" y="0" type="line"/>
      <point x="287" y="0" type="line"/>
      <point x="605" y="818" type="line"/>
    </contour>
    <contour>
      <point x="19" y="366" type="line"/>
      <point x="19" y="340" type="line"/>
      <point x="122" y="340" type="line"/>
      <point x="258" y="0" type="line"/>
      <point x="281" y="0" type="line"/>
      <point x="258" y="72" type="line"/>
      <point x="141" y="366" type="line"/>
    </contour>
  </outline>
</glyph>
<glyph name="infinity" format="2">
  <advance width="870"/>
  <unicode hex="221E"/>
  <outline>
    <contour>
      <point x="425" y="310" type="curve" smooth="yes"/>
      <point x="283" y="137"/>
      <point x="274" y="131"/>
      <point x="214" y="131" type="curve" smooth="yes"/>
      <point x="148" y="131"/>
      <point x="90" y="196"/>
      <point x="90" y="300" type="curve" smooth="yes"/>
      <point x="90" y="404"/>
      <point x="148" y="470"/>
      <point x="214" y="470" type="curve" smooth="yes"/>
      <point x="276" y="470"/>
      <point x="287" y="458"/>
      <point x="428" y="287" type="curve" smooth="yes"/>
      <point x="565" y="123"/>
      <point x="580" y="108"/>
      <point x="659" y="108" type="curve" smooth="yes"/>
      <point x="739" y="108"/>
      <point x="808" y="177"/>
      <point x="808" y="302" type="curve" smooth="yes"/>
      <point x="808" y="427"/>
      <point x="739" y="496"/>
      <point x="659" y="496" type="curve" smooth="yes"/>
      <point x="583" y="496"/>
      <point x="567" y="483"/>
    </contour>
    <contour>
      <point x="62" y="302" type="curve" smooth="yes"/>
      <point x="62" y="177"/>
      <point x="131" y="108"/>
      <point x="212" y="108" type="curve" smooth="yes"/>
      <point x="290" y="108"/>
      <point x="301" y="118"/>
      <point x="441" y="291" type="curve" smooth="yes"/>
      <point x="574" y="455"/>
      <point x="598" y="473"/>
      <point x="657" y="473" type="curve" smooth="yes"/>
      <point x="722" y="473"/>
      <point x="780" y="408"/>
      <point x="780" y="304" type="curve" smooth="yes"/>
      <point x="780" y="200"/>
      <point x="722" y="133"/>
      <point x="656" y="135" type="curve" smooth="yes"/>
      <point x="595" y="136"/>
      <point x="579" y="149"/>
      <point x="439" y="320" type="curve" smooth="yes"/>
      <point x="306" y="483"/>
      <point x="290" y="496"/>
      <point x="212" y="496" type="curve" smooth="yes"/>
      <point x="131" y="496"/>
      <point x="62" y="427"/>
    </contour>
  </outline>
</glyph>
<glyph name="integral" format="2">
  <advance width="401"/>
  <unicode hex="222B"/>
  <outline>
    <contour>
      <point x="188" y="623" type="curve" smooth="yes"/>
      <point x="188" y="8" type="line" smooth="yes"/>
      <point x="188" y="-70"/>
      <point x="149" y="-103"/>
      <point x="82" y="-103" type="curve" smooth="yes"/>
      <point x="58" y="-103"/>
      <point x="39" y="-96"/>
      <point x="20" y="-84" type="curve"/>
      <point x="13" y="-107" type="line"/>
      <point x="32" y="-120"/>
      <point x="54" y="-128"/>
      <point x="87" y="-128" type="curve" smooth="yes"/>
      <point x="170" y="-128"/>
      <point x="216" y="-84"/>
      <point x="216" y="7" type="curve" smooth="yes"/>
      <point x="216" y="622" type="line" smooth="yes"/>
      <point x="216" y="697"/>
      <point x="256" y="733"/>
      <point x="320" y="733" type="curve" smooth="yes"/>
      <point x="345" y="733"/>
      <point x="366" y="728"/>
      <point x="383" y="716" type="curve"/>
      <point x="389" y="740" type="line"/>
      <point x="372" y="751"/>
      <point x="351" y="758"/>
      <point x="319" y="758" type="curve" smooth="yes"/>
      <point x="237" y="758"/>
      <point x="188" y="711"/>
    </contour>
  </outline>
</glyph>
<glyph name="whiteSmallSquare" format="2">
  <advance width="600"/>
  <unicode hex="25AB"/>
  <outline>
    <contour>
      <point x="513" y="37" type="line"/>
      <point x="513" y="463" type="line"/>
      <point x="87" y="463" type="line"/>
      <point x="87" y="37" type="line"/>
    </contour>
    <contour>
      <point x="115" y="438" type="line"/>
      <point x="485" y="438" type="line"/>
      <point x="485" y="62" type="line"/>
      <point x="115" y="62" type="line"/>
    </contour>
  </outline>
</glyph>
<glyph name="blackDiamond" format="2">
  <advance width="600"/>
  <unicode hex="25C6"/>
  <outline>
    <contour>
      <point x="559" y="253" type="line"/>
      <point x="300" y="511" type="line"/>
      <point x="42" y="253" type="line"/>
      <point x="300" y="-6" type="line"/>
    </contour>
  </outline>
</glyph>
<glyph name="whiteCircle" format="2">
  <advance width="600"/>
  <unicode hex="25CB"/>
  <outline>
    <contour>
      <point x="522" y="250" type="curve" smooth="yes"/>
      <point x="522" y="378"/>
      <point x="426" y="473"/>
      <point x="300" y="473" type="curve" smooth="yes"/>
      <point x="174" y="473"/>
      <point x="78" y="378"/>
      <point x="78" y="250" type="curve" smooth="yes"/>
      <point x="78" y="122"/>
      <point x="174" y="27"/>
      <point x="300" y="27" type="curve" smooth="yes"/>
      <point x="426" y="27"/>
      <point x="522" y="122"/>
    </contour>
    <contour>
      <point x="106" y="250" type="curve" smooth="yes"/>
      <point x="106" y="363"/>
      <point x="190" y="448"/>
      <point x="300" y="448" type="curve" smooth="yes"/>
      <point x="410" y="448"/>
      <point x="494" y="363"/>
      <point x="494" y="250" type="curve" smooth="yes"/>
      <point x="494" y="137"/>
      <point x="410" y="52"/>
      <point x="300" y="52" type="curve" smooth="yes"/>
      <point x="190" y="52"/>
      <point x="106" y="137"/>
    </contour>
  </outline>
</glyph>
<glyph name="blackCircle" format="2">
  <advance width="600"/>
  <unicode hex="25CF"/>
  <outline>
    <contour>
      <point x="523" y="250" type="curve" smooth="yes"/>
      <point x="523" y="378"/>
      <point x="428" y="473"/>
      <point x="300" y="473" type="curve" smooth="yes"/>
      <point x="172" y="473"/>
      <point x="77" y="378"/>
      <point x="77" y="250" type="curve" smooth="yes"/>
      <point x="77" y="122"/>
      <point x="172" y="27"/>
      <point x="300" y="27" type="curve" smooth="yes"/>
      <point x="428" y="27"/>
      <point x="523" y="122"/>
    </contour>
  </outline>
</glyph>
<glyph name="heavyquoteleft" format="2">
  <advance width="684"/>
  <unicode hex="275B"/>
  <outline>
    <contour>
      <point x="53" y="272" type="curve" smooth="yes"/>
      <point x="53" y="116"/>
      <point x="137" y="-10"/>
      <point x="355" y="-10" type="curve" smooth="yes"/>
      <point x="541" y="-10"/>
      <point x="641" y="73"/>
      <point x="641" y="235" type="curve" smooth="yes"/>
      <point x="641" y="392"/>
      <point x="522" y="472"/>
      <point x="366" y="472" type="curve" smooth="yes"/>
      <point x="247" y="472"/>
      <point x="159" y="435"/>
      <point x="99" y="354" type="curve"/>
      <point x="91" y="359" type="line"/>
      <point x="125" y="488"/>
      <point x="204" y="663"/>
      <point x="590" y="633" type="curve"/>
      <point x="572" y="661" type="line"/>
      <point x="138" y="690"/>
      <point x="53" y="466"/>
    </contour>
  </outline>
</glyph>
<glyph name="Adieresis.titl.001" format="2">
  <advance width="600"/>
  <outline>
    <contour>
      <point x="44" y="0" type="line"/>
      <point x="280" y="578" type="line"/>
      <point x="300" y="631" type="line"/>
      <point x="300" y="631" type="line"/>
      <point x="320" y="577" type="line"/>
      <point x="556" y="0" type="line"/>
      <point x="585" y="0" type="line"/>
      <point x="316" y="660" type="line"/>
      <point x="284" y="660" type="line"/>
      <point x="15" y="0" type="line"/>
    </contour>
    <contour>
      <point x="474" y="224" type="line"/>
      <point x="474" y="250" type="line"/>
      <point x="124" y="250" type="line"/>
      <point x="124" y="224" type="line"/>
    </contour>
    <contour>
      <point x="209" y="608" type="curve"/>
      <point x="224" y="640" type="line"/>
      <point x="221" y="653"/>
      <point x="211" y="662"/>
      <point x="196" y="662" type="curve" smooth="yes"/>
      <point x="180" y="662"/>
      <point x="168" y="651"/>
      <point x="168" y="634" type="curve" smooth="yes"/>
      <point x="168" y="617"/>
      <point x="180" y="606"/>
      <point x="196" y="606" type="curve" smooth="yes"/>
      <point x="201" y="606"/>
      <point x="205" y="607"/>
    </contour>
    <contour>
      <point x="430" y="634" type="curve" smooth="yes"/>
      <point x="430" y="651"/>
      <point x="419" y="662"/>
      <point x="402" y="662" type="curve" smooth="yes"/>
      <point x="388" y="662"/>
      <point x="377" y="653"/>
      <point x="375" y="640" type="curve"/>
      <point x="390" y="608" type="line"/>
      <point x="393" y="607"/>
      <point x="398" y="606"/>
      <point x="402" y="606" type="curve" smooth="yes"/>
      <point x="419" y="606"/>
      <point x="430" y="617"/>
    </contour>
  </outline>
</glyph>
<glyph name="Adieresis.titl" format="2">
  <advance width="600"/>
  <outline>
    <contour>
      <point x="434" y="634" type="curve" smooth="yes"/>
      <point x="434" y="651"/>
      <point x="423" y="662"/>
      <point x="406" y="662" type="curve" smooth="yes"/>
      <point x="389" y="662"/>
      <point x="378" y="651"/>
      <point x="378" y="634" type="curve" smooth="yes"/>
      <point x="378" y="617"/>
      <point x="389" y="606"/>
      <point x="406" y="606" type="curve" smooth="yes"/>
      <point x="423" y="606"/>
      <point x="434" y="617"/>
    </contour>
    <contour>
      <point x="221" y="634" type="curve" smooth="yes"/>
      <point x="221" y="651"/>
      <point x="209" y="662"/>
      <point x="193" y="662" type="curve" smooth="yes"/>
      <point x="176" y="662"/>
      <point x="165" y="651"/>
      <point x="165" y="634" type="curve" smooth="yes"/>
      <point x="165" y="617"/>
      <point x="176" y="606"/>
      <point x="193" y="606" type="curve" smooth="yes"/>
      <point x="209" y="606"/>
      <point x="221" y="617"/>
    </contour>
    <contour>
      <point x="44" y="0" type="line"/>
      <point x="280" y="578" type="line"/>
      <point x="300" y="631" type="line"/>
      <point x="300" y="631" type="line"/>
      <point x="320" y="577" type="line"/>
      <point x="556" y="0" type="line"/>
      <point x="585" y="0" type="line"/>
      <point x="316" y="660" type="line"/>
      <point x="284" y="660" type="line"/>
      <point x="15" y="0" type="line"/>
    </contour>
    <contour>
      <point x="474" y="224" type="line"/>
      <point x="474" y="250" type="line"/>
      <point x="124" y="250" type="line"/>
      <point x="124" y="224" type="line"/>
    </contour>
  </outline>
</glyph>
<glyph name="Aogonek_j" format="2">
  <advance width="801"/>
  <anchor x="300" y="660" name="top"/>
  <anchor x="585" y="0" name="ogonek"/>
  <anchor x="300" y="0" name="bottom"/>
  <anchor x="581" y="0" name="bottomC"/>
  <outline>
    <contour>
      <point x="714" y="-86" type="curve" smooth="yes"/>
      <point x="714" y="500" type="line"/>
      <point x="686" y="500" type="line"/>
      <point x="686" y="-84" type="line" smooth="yes"/>
      <point x="686" y="-159"/>
      <point x="668" y="-189"/>
      <point x="626" y="-189" type="curve" smooth="yes"/>
      <point x="600" y="-189"/>
      <point x="589" y="-185"/>
      <point x="577" y="-175" type="curve"/>
      <point x="570" y="-200" type="line"/>
      <point x="587" y="-212"/>
      <point x="602" y="-215"/>
      <point x="626" y="-215" type="curve" smooth="yes"/>
      <point x="683" y="-215"/>
      <point x="714" y="-178"/>
    </contour>
    <contour>
      <point x="542" y="-187" type="curve"/>
      <point x="538" y="-166" type="line"/>
      <point x="526" y="-176"/>
      <point x="511" y="-182"/>
      <point x="489" y="-182" type="curve" smooth="yes"/>
      <point x="451" y="-182"/>
      <point x="428" y="-164"/>
      <point x="428" y="-129" type="curve" smooth="yes"/>
      <point x="428" y="-78"/>
      <point x="482" y="-37"/>
      <point x="585" y="0" type="curve"/>
      <point x="569" y="12" type="line"/>
      <point x="463" y="-24"/>
      <point x="404" y="-69"/>
      <point x="404" y="-131" type="curve" smooth="yes"/>
      <point x="404" y="-179"/>
      <point x="436" y="-204"/>
      <point x="486" y="-204" type="curve" smooth="yes"/>
      <point x="512" y="-204"/>
      <point x="529" y="-197"/>
    </contour>
    <contour>
      <point x="694" y="627" type="curve" smooth="yes"/>
      <point x="694" y="622"/>
      <point x="696" y="620"/>
      <point x="700" y="620" type="curve" smooth="yes"/>
      <point x="705" y="620"/>
      <point x="707" y="622"/>
      <point x="707" y="627" type="curve" smooth="yes"/>
      <point x="707" y="631"/>
      <point x="705" y="633"/>
      <point x="700" y="633" type="curve" smooth="yes"/>
      <point x="696" y="633"/>
      <point x="694" y="631"/>
    </contour>
    <component base="A"/>
  </outline>
</glyph>
<glyph name="E.swsh.001" format="2">
  <advance width="698"/>
  <anchor x="321" y="0" name="bottomC"/>
  <anchor x="359" y="660" name="top"/>
  <anchor x="505" y="0" name="ogonek"/>
  <anchor x="321" y="0" name="bottom"/>
  <outline>
    <contour>
      <point x="572" y="266" type="line"/>
      <point x="629" y="256"/>
      <point x="660" y="214"/>
      <point x="660" y="146" type="curve" smooth="yes"/>
      <point x="660" y="59"/>
      <point x="605" y="25"/>
      <point x="501" y="25" type="curve" smooth="yes"/>
      <point x="297" y="25" type="line"/>
      <point x="297" y="0" type="line"/>
      <point x="509" y="0" type="line" smooth="yes"/>
      <point x="623" y="0"/>
      <point x="688" y="47"/>
      <point x="688" y="146" type="curve" smooth="yes"/>
      <point x="688" y="225"/>
      <point x="650" y="274"/>
      <point x="587" y="287" type="curve"/>
    </contour>
    <contour>
      <point x="101" y="0" type="line"/>
      <point x="129" y="0" type="line"/>
      <point x="129" y="660" type="line"/>
      <point x="101" y="660" type="line"/>
    </contour>
    <contour>
      <point x="113" y="322" type="line"/>
      <point x="404" y="322" type="line"/>
      <point x="404" y="348" type="line"/>
      <point x="113" y="348" type="line"/>
    </contour>
    <contour>
      <point x="113" y="635" type="line"/>
      <point x="585" y="635" type="line"/>
      <point x="585" y="660" type="line"/>
      <point x="113" y="660" type="line"/>
    </contour>
    <contour>
      <point x="113" y="0" type="line"/>
      <point x="408" y="0" type="line"/>
      <point x="408" y="25" type="line"/>
      <point x="113" y="25" type="line"/>
    </contour>
  </outline>
</glyph>
<glyph name="G.ss04" format="2">
  <advance width="669"/>
  <anchor x="343" y="0" name="bottomC"/>
  <anchor x="349" y="660" name="top"/>
  <anchor x="435" y="0" name="ogonek"/>
  <anchor x="361" y="0" name="bottom"/>
  <outline>
    <contour>
      <point x="624" y="290" type="curve" smooth="yes"/>
      <point x="624" y="315" type="line"/>
      <point x="355" y="315" type="line"/>
      <point x="355" y="290" type="line"/>
      <point x="610" y="290" type="line"/>
      <point x="597" y="304" type="line"/>
      <point x="597" y="291" type="line" smooth="yes"/>
      <point x="597" y="179"/>
      <point x="555" y="15"/>
      <point x="353" y="15" type="curve" smooth="yes"/>
      <point x="190" y="15"/>
      <point x="87" y="136"/>
      <point x="87" y="330" type="curve" smooth="yes"/>
      <point x="87" y="524"/>
      <point x="194" y="645"/>
      <point x="354" y="645" type="curve" smooth="yes"/>
      <point x="477" y="645"/>
      <point x="554" y="592"/>
      <point x="587" y="487" type="curve"/>
      <point x="612" y="500" type="line"/>
      <point x="575" y="614"/>
      <point x="492" y="670"/>
      <point x="354" y="670" type="curve" smooth="yes"/>
      <point x="176" y="670"/>
      <point x="58" y="539"/>
      <point x="58" y="330" type="curve" smooth="yes"/>
      <point x="58" y="121"/>
      <point x="173" y="-10"/>
      <point x="352" y="-10" type="curve" smooth="yes"/>
      <point x="554" y="-10"/>
      <point x="624" y="134"/>
    </contour>
  </outline>
</glyph>
<glyph name="Hsuperior" format="2">
  <advance width="431"/>
  <outline>
    <contour>
      <point x="343" y="730" type="line"/>
      <point x="343" y="333" type="line"/>
      <point x="369" y="333" type="line"/>
      <point x="369" y="730" type="line"/>
    </contour>
    <contour>
      <point x="62" y="730" type="line"/>
      <point x="62" y="333" type="line"/>
      <point x="88" y="333" type="line"/>
      <point x="88" y="730" type="line"/>
    </contour>
    <contour>
      <point x="75" y="548" type="line"/>
      <point x="75" y="526" type="line"/>
      <point x="356" y="526" type="line"/>
      <point x="356" y="548" type="line"/>
    </contour>
  </outline>
</glyph>
<glyph name="IJ.ss05" format="2">
  <advance width="582"/>
  <outline>
    <contour>
      <point x="101" y="660" type="line"/>
      <point x="101" y="267" type="line"/>
      <point x="129" y="267" type="line"/>
      <point x="129" y="660" type="line"/>
    </contour>
    <contour>
      <point x="460" y="660" type="line"/>
      <point x="460" y="216" type="line" smooth="yes"/>
      <point x="460" y="92"/>
      <point x="400" y="15"/>
      <point x="288" y="15" type="curve" smooth="yes"/>
      <point x="174" y="15"/>
      <point x="123" y="69"/>
      <point x="126" y="168" type="curve"/>
      <point x="98" y="168" type="line"/>
      <point x="95" y="52"/>
      <point x="154" y="-10"/>
      <point x="288" y="-10" type="curve" smooth="yes"/>
      <point x="417" y="-10"/>
      <point x="488" y="76"/>
      <point x="488" y="212" type="curve" smooth="yes"/>
      <point x="488" y="660" type="line"/>
    </contour>
  </outline>
</glyph>
<glyph name="L.swsh" format="2">
  <advance width="593"/>
  <anchor x="465" y="336" name="center"/>
  <anchor x="317" y="0" name="bottomC"/>
  <anchor x="115" y="660" name="top"/>
  <anchor x="336" y="0" name="bottom"/>
  <anchor x="268" y="700" name="topright"/>
  <anchor x="403" y="0" name="ogonek"/>
  <outline>
    <contour>
      <point x="403" y="0" type="line" smooth="yes"/>
      <point x="518" y="0"/>
      <point x="583" y="53"/>
      <point x="583" y="162" type="curve" smooth="yes"/>
      <point x="583" y="252"/>
      <point x="529" y="304"/>
      <point x="454" y="317" type="curve"/>
      <point x="439" y="296" type="line"/>
      <point x="510" y="283"/>
      <point x="555" y="239"/>
      <point x="555" y="162" type="curve" smooth="yes"/>
      <point x="555" y="66"/>
      <point x="498" y="25"/>
      <point x="396" y="25" type="curve" smooth="yes"/>
      <point x="263" y="25" type="line"/>
      <point x="263" y="0" type="line"/>
    </contour>
    <contour>
      <point x="358" y="0" type="line"/>
      <point x="358" y="25" type="line"/>
      <point x="113" y="25" type="line"/>
      <point x="113" y="0" type="line"/>
    </contour>
    <contour>
      <point x="129" y="0" type="line"/>
      <point x="129" y="660" type="line"/>
      <point x="101" y="660" type="line"/>
      <point x="101" y="0" type="line"/>
    </contour>
  </outline>
</glyph>
<glyph name="Lslash.swsh" format="2">
  <advance width="608"/>
  <anchor x="479" y="336" name="center"/>
  <anchor x="351" y="0" name="bottomC"/>
  <anchor x="129" y="660" name="top"/>
  <anchor x="351" y="0" name="bottom"/>
  <anchor x="283" y="700" name="topright"/>
  <anchor x="418" y="0" name="ogonek"/>
  <outline>
    <contour>
      <point x="14" y="241" type="line"/>
      <point x="14" y="209" type="line"/>
      <point x="345" y="415" type="line"/>
      <point x="345" y="447" type="line"/>
    </contour>
    <component base="L.swsh" xOffset="15"/>
  </outline>
</glyph>
<glyph name="M.swsh.001" format="2">
  <advance width="1014"/>
  <anchor x="627" y="0" name="bottomC"/>
  <anchor x="614" y="660" name="top"/>
  <anchor x="913" y="0" name="ogonek"/>
  <anchor x="614" y="0" name="bottom"/>
  <outline>
    <contour>
      <point x="154" y="362" type="line"/>
      <point x="83" y="377"/>
      <point x="38" y="423"/>
      <point x="38" y="498" type="curve" smooth="yes"/>
      <point x="38" y="594"/>
      <point x="95" y="636"/>
      <point x="197" y="636" type="curve" smooth="yes"/>
      <point x="344" y="636" type="line"/>
      <point x="344" y="660" type="line"/>
      <point x="190" y="660" type="line" smooth="yes"/>
      <point x="75" y="660"/>
      <point x="10" y="605"/>
      <point x="10" y="498" type="curve" smooth="yes"/>
      <point x="10" y="410"/>
      <point x="64" y="356"/>
      <point x="139" y="341" type="curve"/>
    </contour>
    <component base="M" xOffset="215"/>
  </outline>
</glyph>
<glyph name="N.swsh" format="2">
  <advance width="702"/>
  <anchor x="593" y="0" name="bottomC"/>
  <anchor x="356" y="660" name="top"/>
  <anchor x="601" y="0" name="ogonek"/>
  <anchor x="356" y="0" name="bottom"/>
  <outline>
    <contour>
      <point x="128" y="0" type="line"/>
      <point x="128" y="564" type="line"/>
      <point x="126" y="631" type="line"/>
      <point x="127" y="631" type="line"/>
      <point x="161" y="574" type="line"/>
      <point x="564" y="0" type="line"/>
      <point x="601" y="0" type="line"/>
      <point x="601" y="467" type="line"/>
      <point x="574" y="467" type="line"/>
      <point x="574" y="96" type="line"/>
      <point x="575" y="30" type="line"/>
      <point x="575" y="30" type="line"/>
      <point x="541" y="86" type="line"/>
      <point x="137" y="660" type="line"/>
      <point x="101" y="660" type="line"/>
      <point x="101" y="0" type="line"/>
    </contour>
    <contour>
      <point x="601" y="423" type="line"/>
      <point x="601" y="557" type="line" smooth="yes"/>
      <point x="601" y="658"/>
      <point x="650" y="711"/>
      <point x="731" y="711" type="curve" smooth="yes"/>
      <point x="807" y="711"/>
      <point x="849" y="677"/>
      <point x="859" y="602" type="curve"/>
      <point x="881" y="616" type="line"/>
      <point x="871" y="695"/>
      <point x="820" y="735"/>
      <point x="731" y="735" type="curve" smooth="yes"/>
      <point x="631" y="735"/>
      <point x="574" y="672"/>
      <point x="574" y="559" type="curve" smooth="yes"/>
      <point x="574" y="423" type="line"/>
    </contour>
  </outline>
</glyph>
<glyph name="Odieresis.titl.001" format="2">
  <advance width="720"/>
  <outline>
    <contour>
      <point x="58" y="330" type="curve" smooth="yes"/>
      <point x="58" y="121"/>
      <point x="175" y="-10"/>
      <point x="360" y="-10" type="curve" smooth="yes"/>
      <point x="546" y="-10"/>
      <point x="662" y="121"/>
      <point x="662" y="330" type="curve" smooth="yes"/>
      <point x="662" y="539"/>
      <point x="546" y="670"/>
      <point x="360" y="670" type="curve" smooth="yes"/>
      <point x="175" y="670"/>
      <point x="58" y="539"/>
    </contour>
    <contour>
      <point x="633" y="330" type="curve" smooth="yes"/>
      <point x="633" y="136"/>
      <point x="528" y="15"/>
      <point x="360" y="15" type="curve" smooth="yes"/>
      <point x="192" y="15"/>
      <point x="87" y="136"/>
      <point x="87" y="330" type="curve" smooth="yes"/>
      <point x="87" y="524"/>
      <point x="192" y="645"/>
      <point x="360" y="645" type="curve" smooth="yes"/>
      <point x="528" y="645"/>
      <point x="633" y="524"/>
    </contour>
    <contour>
      <point x="546" y="642" type="curve" smooth="yes"/>
      <point x="546" y="659"/>
      <point x="534" y="670"/>
      <point x="518" y="670" type="curve" smooth="yes"/>
      <point x="504" y="670"/>
      <point x="495" y="663"/>
      <point x="491" y="652" type="curve"/>
      <point x="509" y="644"/>
      <point x="523" y="635"/>
      <point x="538" y="623" type="curve"/>
      <point x="543" y="627"/>
      <point x="546" y="634"/>
    </contour>
    <contour>
      <point x="203" y="670" type="curve" smooth="yes"/>
      <point x="186" y="670"/>
      <point x="175" y="659"/>
      <point x="175" y="642" type="curve" smooth="yes"/>
      <point x="175" y="634"/>
      <point x="177" y="627"/>
      <point x="182" y="623" type="curve"/>
      <point x="197" y="634"/>
      <point x="211" y="644"/>
      <point x="229" y="652" type="curve"/>
      <point x="225" y="663"/>
      <point x="216" y="670"/>
    </contour>
  </outline>
</glyph>
<glyph name="Odieresis.titl" format="2">
  <advance width="720"/>
  <outline>
    <contour>
      <point x="263" y="565" type="curve" smooth="yes"/>
      <point x="263" y="548"/>
      <point x="274" y="536"/>
      <point x="291" y="536" type="curve" smooth="yes"/>
      <point x="308" y="536"/>
      <point x="319" y="548"/>
      <point x="319" y="565" type="curve" smooth="yes"/>
      <point x="319" y="581"/>
      <point x="308" y="593"/>
      <point x="291" y="593" type="curve" smooth="yes"/>
      <point x="274" y="593"/>
      <point x="263" y="581"/>
    </contour>
    <contour>
      <point x="401" y="565" type="curve" smooth="yes"/>
      <point x="401" y="548"/>
      <point x="413" y="536"/>
      <point x="430" y="536" type="curve" smooth="yes"/>
      <point x="446" y="536"/>
      <point x="458" y="548"/>
      <point x="458" y="565" type="curve" smooth="yes"/>
      <point x="458" y="581"/>
      <point x="446" y="593"/>
      <point x="430" y="593" type="curve" smooth="yes"/>
      <point x="413" y="593"/>
      <point x="401" y="581"/>
    </contour>
    <contour>
      <point x="58" y="330" type="curve" smooth="yes"/>
      <point x="58" y="121"/>
      <point x="175" y="-10"/>
      <point x="360" y="-10" type="curve" smooth="yes"/>
      <point x="546" y="-10"/>
      <point x="662" y="121"/>
      <point x="662" y="330" type="curve" smooth="yes"/>
      <point x="662" y="539"/>
      <point x="546" y="670"/>
      <point x="360" y="670" type="curve" smooth="yes"/>
      <point x="175" y="670"/>
      <point x="58" y="539"/>
    </contour>
    <contour>
      <point x="633" y="330" type="curve" smooth="yes"/>
      <point x="633" y="136"/>
      <point x="528" y="15"/>
      <point x="360" y="15" type="curve" smooth="yes"/>
      <point x="192" y="15"/>
      <point x="87" y="136"/>
      <point x="87" y="330" type="curve" smooth="yes"/>
      <point x="87" y="524"/>
      <point x="192" y="645"/>
      <point x="360" y="645" type="curve" smooth="yes"/>
      <point x="528" y="645"/>
      <point x="633" y="524"/>
    </contour>
  </outline>
</glyph>
<glyph name="R.ss03" format="2">
  <advance width="620"/>
  <anchor x="558" y="0" name="bottomC"/>
  <anchor x="298" y="660" name="top"/>
  <anchor x="563" y="0" name="ogonek"/>
  <anchor x="350" y="0" name="bottom"/>
  <outline>
    <contour>
      <point x="129" y="0" type="line"/>
      <point x="129" y="295" type="line"/>
      <point x="347" y="295" type="line" smooth="yes"/>
      <point x="454" y="295"/>
      <point x="506" y="243"/>
      <point x="509" y="157" type="curve" smooth="yes"/>
      <point x="512" y="41"/>
      <point x="524" y="16"/>
      <point x="533" y="0" type="curve"/>
      <point x="563" y="0" type="line"/>
      <point x="563" y="2" type="line"/>
      <point x="554" y="16"/>
      <point x="541" y="26"/>
      <point x="536" y="161" type="curve" smooth="yes"/>
      <point x="534" y="242"/>
      <point x="492" y="293"/>
      <point x="407" y="306" type="curve"/>
      <point x="407" y="307" type="line"/>
      <point x="496" y="322"/>
      <point x="553" y="383"/>
      <point x="553" y="478" type="curve" smooth="yes"/>
      <point x="553" y="591"/>
      <point x="472" y="660"/>
      <point x="342" y="660" type="curve" smooth="yes"/>
      <point x="101" y="660" type="line"/>
      <point x="101" y="0" type="line"/>
    </contour>
    <contour>
      <point x="129" y="635" type="line"/>
      <point x="342" y="635" type="line" smooth="yes"/>
      <point x="458" y="635"/>
      <point x="525" y="577"/>
      <point x="525" y="478" type="curve" smooth="yes"/>
      <point x="525" y="378"/>
      <point x="458" y="321"/>
      <point x="342" y="321" type="curve" smooth="yes"/>
      <point x="129" y="321" type="line"/>
    </contour>
  </outline>
</glyph>
<glyph name="R.swsh.001" format="2">
  <advance width="668"/>
  <anchor x="659" y="-92" name="bottomC"/>
  <anchor x="298" y="660" name="top"/>
  <anchor x="656" y="-94" name="ogonek"/>
  <anchor x="350" y="0" name="bottom"/>
  <outline>
    <contour>
      <point x="342" y="295" type="line" smooth="yes"/>
      <point x="472" y="295"/>
      <point x="553" y="364"/>
      <point x="553" y="478" type="curve" smooth="yes"/>
      <point x="553" y="591"/>
      <point x="472" y="660"/>
      <point x="342" y="660" type="curve" smooth="yes"/>
      <point x="115" y="660" type="line"/>
      <point x="115" y="635" type="line"/>
      <point x="342" y="635" type="line" smooth="yes"/>
      <point x="458" y="635"/>
      <point x="525" y="577"/>
      <point x="525" y="478" type="curve" smooth="yes"/>
      <point x="525" y="378"/>
      <point x="458" y="321"/>
      <point x="342" y="321" type="curve" smooth="yes"/>
      <point x="115" y="321" type="line"/>
      <point x="115" y="295" type="line"/>
    </contour>
    <contour>
      <point x="129" y="0" type="line"/>
      <point x="129" y="660" type="line"/>
      <point x="101" y="660" type="line"/>
      <point x="101" y="0" type="line"/>
    </contour>
    <contour>
      <point x="668" y="-81" type="line"/>
      <point x="622" y="-69"/>
      <point x="583" y="-32"/>
      <point x="562" y="-3" type="curve" smooth="yes"/>
      <point x="343" y="316" type="line"/>
      <point x="322" y="301" type="line"/>
      <point x="535" y="-11" type="line" smooth="yes"/>
      <point x="558" y="-45"/>
      <point x="590" y="-79"/>
      <point x="654" y="-101" type="curve"/>
    </contour>
  </outline>
</glyph>
<glyph name="R.swsh" format="2">
  <advance width="836"/>
  <anchor x="792" y="0" name="bottomC"/>
  <anchor x="513" y="660" name="top"/>
  <anchor x="799" y="0" name="ogonek"/>
  <anchor x="565" y="0" name="bottom"/>
  <outline>
    <contour>
      <point x="557" y="295" type="line" smooth="yes"/>
      <point x="687" y="295"/>
      <point x="768" y="364"/>
      <point x="768" y="478" type="curve" smooth="yes"/>
      <point x="768" y="591"/>
      <point x="687" y="660"/>
      <point x="557" y="660" type="curve" smooth="yes"/>
      <point x="330" y="660" type="line"/>
      <point x="330" y="635" type="line"/>
      <point x="557" y="635" type="line" smooth="yes"/>
      <point x="672" y="635"/>
      <point x="740" y="577"/>
      <point x="740" y="478" type="curve" smooth="yes"/>
      <point x="740" y="378"/>
      <point x="672" y="321"/>
      <point x="557" y="321" type="curve" smooth="yes"/>
      <point x="330" y="321" type="line"/>
      <point x="330" y="295" type="line"/>
    </contour>
    <contour>
      <point x="344" y="50" type="curve" smooth="yes"/>
      <point x="344" y="202" type="line"/>
      <point x="316" y="202" type="line"/>
      <point x="316" y="52" type="line" smooth="yes"/>
      <point x="316" y="-33"/>
      <point x="267" y="-86"/>
      <point x="185" y="-86" type="curve" smooth="yes"/>
      <point x="105" y="-86"/>
      <point x="59" y="-41"/>
      <point x="57" y="39" type="curve"/>
      <point x="36" y="25" type="line"/>
      <point x="38" y="-59"/>
      <point x="92" y="-110"/>
      <point x="185" y="-110" type="curve" smooth="yes"/>
      <point x="286" y="-110"/>
      <point x="344" y="-47"/>
    </contour>
    <contour>
      <point x="344" y="168" type="line"/>
      <point x="344" y="660" type="line"/>
      <point x="316" y="660" type="line"/>
      <point x="316" y="168" type="line"/>
    </contour>
    <contour>
      <point x="799" y="0" type="line"/>
      <point x="590" y="318" type="line"/>
      <point x="567" y="301" type="line"/>
      <point x="767" y="0" type="line"/>
    </contour>
    <component base="__swash_topleft" xOffset="-35"/>
  </outline>
</glyph>
<glyph name="S.swsh" format="2">
  <advance width="603"/>
  <anchor x="292" y="-100" name="bottomC"/>
  <anchor x="297" y="660" name="top"/>
  <anchor x="396" y="-100" name="ogonek"/>
  <anchor x="324" y="-100" name="bottom"/>
  <outline>
    <contour>
      <point x="555" y="82" type="curve" smooth="yes"/>
      <point x="555" y="178"/>
      <point x="498" y="232"/>
      <point x="330" y="284" type="curve" smooth="yes"/>
      <point x="168" y="334"/>
      <point x="117" y="383"/>
      <point x="117" y="470" type="curve" smooth="yes"/>
      <point x="117" y="579"/>
      <point x="189" y="645"/>
      <point x="310" y="645" type="curve" smooth="yes"/>
      <point x="449" y="645"/>
      <point x="515" y="584"/>
      <point x="508" y="464" type="curve"/>
      <point x="534" y="476" type="line"/>
      <point x="539" y="603"/>
      <point x="459" y="670"/>
      <point x="310" y="670" type="curve" smooth="yes"/>
      <point x="174" y="670"/>
      <point x="88" y="591"/>
      <point x="88" y="468" type="curve" smooth="yes"/>
      <point x="88" y="369"/>
      <point x="147" y="311"/>
      <point x="318" y="260" type="curve" smooth="yes"/>
      <point x="474" y="212"/>
      <point x="526" y="164"/>
      <point x="526" y="81" type="curve" smooth="yes"/>
      <point x="526" y="-23"/>
      <point x="448" y="-85"/>
      <point x="313" y="-85" type="curve" smooth="yes"/>
      <point x="176" y="-85"/>
      <point x="100" y="-30"/>
      <point x="100" y="69" type="curve" smooth="yes"/>
      <point x="100" y="90"/>
      <point x="102" y="110"/>
      <point x="107" y="130" type="curve"/>
      <point x="81" y="122" type="line"/>
      <point x="76" y="100"/>
      <point x="73" y="82"/>
      <point x="73" y="64" type="curve" smooth="yes"/>
      <point x="73" y="-46"/>
      <point x="161" y="-110"/>
      <point x="312" y="-110" type="curve" smooth="yes"/>
      <point x="462" y="-110"/>
      <point x="555" y="-36"/>
    </contour>
  </outline>
</glyph>
<glyph name="T.swsh" format="2">
  <advance width="637"/>
  <anchor x="371" y="0" name="bottomC"/>
  <anchor x="359" y="660" name="top"/>
  <anchor x="373" y="0" name="ogonek"/>
  <anchor x="359" y="363" name="center"/>
  <anchor x="365" y="0" name="bottom"/>
  <outline>
    <contour>
      <point x="154" y="362" type="line"/>
      <point x="83" y="377"/>
      <point x="38" y="423"/>
      <point x="38" y="498" type="curve" smooth="yes"/>
      <point x="38" y="594"/>
      <point x="95" y="635"/>
      <point x="197" y="635" type="curve" smooth="yes"/>
      <point x="348" y="635" type="line"/>
      <point x="348" y="660" type="line"/>
      <point x="190" y="660" type="line" smooth="yes"/>
      <point x="75" y="660"/>
      <point x="10" y="605"/>
      <point x="10" y="498" type="curve" smooth="yes"/>
      <point x="10" y="410"/>
      <point x="64" y="356"/>
      <point x="139" y="341" type="curve"/>
    </contour>
    <contour>
      <point x="373" y="0" type="line"/>
      <point x="373" y="654" type="line"/>
      <point x="345" y="654" type="line"/>
      <point x="345" y="0" type="line"/>
    </contour>
    <contour>
      <point x="622" y="635" type="line"/>
      <point x="622" y="660" type="line"/>
      <point x="204" y="660" type="line"/>
      <point x="204" y="635" type="line"/>
    </contour>
  </outline>
</glyph>
<glyph name="Udieresis.titl" format="2">
  <advance width="688"/>
  <outline>
    <contour>
      <point x="445" y="634" type="curve" smooth="yes"/>
      <point x="445" y="651"/>
      <point x="434" y="662"/>
      <point x="417" y="662" type="curve" smooth="yes"/>
      <point x="401" y="662"/>
      <point x="389" y="651"/>
      <point x="389" y="634" type="curve" smooth="yes"/>
      <point x="389" y="617"/>
      <point x="401" y="606"/>
      <point x="417" y="606" type="curve" smooth="yes"/>
      <point x="434" y="606"/>
      <point x="445" y="617"/>
    </contour>
    <contour>
      <point x="297" y="634" type="curve" smooth="yes"/>
      <point x="297" y="651"/>
      <point x="285" y="662"/>
      <point x="269" y="662" type="curve" smooth="yes"/>
      <point x="252" y="662"/>
      <point x="241" y="651"/>
      <point x="241" y="634" type="curve" smooth="yes"/>
      <point x="241" y="617"/>
      <point x="252" y="606"/>
      <point x="269" y="606" type="curve" smooth="yes"/>
      <point x="285" y="606"/>
      <point x="297" y="617"/>
    </contour>
    <contour>
      <point x="567" y="660" type="line"/>
      <point x="567" y="241" type="line" smooth="yes"/>
      <point x="567" y="96"/>
      <point x="485" y="15"/>
      <point x="344" y="15" type="curve" smooth="yes"/>
      <point x="202" y="15"/>
      <point x="121" y="96"/>
      <point x="121" y="241" type="curve" smooth="yes"/>
      <point x="121" y="660" type="line"/>
      <point x="93" y="660" type="line"/>
      <point x="93" y="237" type="line" smooth="yes"/>
      <point x="93" y="78"/>
      <point x="186" y="-10"/>
      <point x="344" y="-10" type="curve" smooth="yes"/>
      <point x="502" y="-10"/>
      <point x="595" y="78"/>
      <point x="595" y="237" type="curve" smooth="yes"/>
      <point x="595" y="660" type="line"/>
    </contour>
  </outline>
</glyph>
<glyph name="Ydieresis.titl" format="2">
  <advance width="523"/>
  <outline>
    <contour>
      <point x="354" y="642" type="curve" smooth="yes"/>
      <point x="354" y="658"/>
      <point x="342" y="670"/>
      <point x="326" y="670" type="curve" smooth="yes"/>
      <point x="310" y="670"/>
      <point x="298" y="658"/>
      <point x="298" y="642" type="curve" smooth="yes"/>
      <point x="298" y="626"/>
      <point x="310" y="614"/>
      <point x="326" y="614" type="curve" smooth="yes"/>
      <point x="342" y="614"/>
      <point x="354" y="626"/>
    </contour>
    <contour>
      <point x="224" y="642" type="curve" smooth="yes"/>
      <point x="224" y="658"/>
      <point x="212" y="670"/>
      <point x="196" y="670" type="curve" smooth="yes"/>
      <point x="180" y="670"/>
      <point x="168" y="658"/>
      <point x="168" y="642" type="curve" smooth="yes"/>
      <point x="168" y="626"/>
      <point x="180" y="614"/>
      <point x="196" y="614" type="curve" smooth="yes"/>
      <point x="212" y="614"/>
      <point x="224" y="626"/>
    </contour>
    <contour>
      <point x="475" y="660" type="line"/>
      <point x="346" y="434" type="line"/>
      <point x="262" y="286" type="line"/>
      <point x="177" y="434" type="line"/>
      <point x="48" y="660" type="line"/>
      <point x="15" y="660" type="line"/>
      <point x="248" y="256" type="line"/>
      <point x="248" y="0" type="line"/>
      <point x="276" y="0" type="line"/>
      <point x="276" y="256" type="line"/>
      <point x="508" y="660" type="line"/>
    </contour>
  </outline>
</glyph>
<glyph name="adieresis.titl.sc" format="2">
  <advance width="536"/>
  <outline>
    <contour>
      <point x="194" y="538" type="curve" smooth="yes"/>
      <point x="194" y="554"/>
      <point x="183" y="565"/>
      <point x="166" y="565" type="curve" smooth="yes"/>
      <point x="150" y="565"/>
      <point x="138" y="554"/>
      <point x="138" y="538" type="curve" smooth="yes"/>
      <point x="138" y="522"/>
      <point x="150" y="511"/>
      <point x="166" y="511" type="curve" smooth="yes"/>
      <point x="183" y="511"/>
      <point x="194" y="522"/>
    </contour>
    <contour>
      <point x="399" y="538" type="curve" smooth="yes"/>
      <point x="399" y="554"/>
      <point x="387" y="565"/>
      <point x="371" y="565" type="curve" smooth="yes"/>
      <point x="355" y="565"/>
      <point x="343" y="554"/>
      <point x="343" y="538" type="curve" smooth="yes"/>
      <point x="343" y="522"/>
      <point x="355" y="511"/>
      <point x="371" y="511" type="curve" smooth="yes"/>
      <point x="387" y="511"/>
      <point x="399" y="522"/>
    </contour>
    <contour>
      <point x="45" y="0" type="line"/>
      <point x="252" y="487" type="line"/>
      <point x="269" y="533" type="line"/>
      <point x="269" y="533" type="line"/>
      <point x="286" y="487" type="line"/>
      <point x="492" y="0" type="line"/>
      <point x="522" y="0" type="line"/>
      <point x="285" y="560" type="line"/>
      <point x="252" y="560" type="line"/>
      <point x="16" y="0" type="line"/>
    </contour>
    <contour>
      <point x="423" y="189" type="line"/>
      <point x="423" y="213" type="line"/>
      <point x="114" y="213" type="line"/>
      <point x="114" y="189" type="line"/>
    </contour>
  </outline>
</glyph>
<glyph name="ae.sc" format="2">
  <advance width="777"/>
  <anchor x="384" y="560" name="top"/>
  <anchor x="384" y="0" name="bottom"/>
  <outline>
    <contour>
      <point x="338" y="560" type="line"/>
      <point x="7" y="0" type="line"/>
      <point x="38" y="0" type="line"/>
      <point x="367" y="560" type="line"/>
    </contour>
    <contour>
      <point x="160" y="232" type="line"/>
      <point x="147" y="208" type="line"/>
      <point x="382" y="208" type="line"/>
      <point x="382" y="232" type="line"/>
    </contour>
    <contour>
      <point x="385" y="24" type="line"/>
      <point x="385" y="0" type="line"/>
      <point x="744" y="0" type="line"/>
      <point x="744" y="24" type="line"/>
    </contour>
    <contour>
      <point x="370" y="560" type="line"/>
      <point x="370" y="0" type="line"/>
      <point x="397" y="0" type="line"/>
      <point x="397" y="560" type="line"/>
    </contour>
    <contour>
      <point x="385" y="296" type="line"/>
      <point x="385" y="272" type="line"/>
      <point x="662" y="272" type="line"/>
      <point x="662" y="296" type="line"/>
    </contour>
    <contour>
      <point x="354" y="560" type="line"/>
      <point x="339" y="536" type="line"/>
      <point x="381" y="536" type="line"/>
      <point x="387" y="536" type="line"/>
      <point x="731" y="536" type="line"/>
      <point x="731" y="560" type="line"/>
    </contour>
  </outline>
</glyph>
<glyph name="aogonek_j" format="2">
  <advance width="727"/>
  <outline>
    <contour>
      <point x="58" y="388" type="curve"/>
      <point x="80" y="372" type="line"/>
      <point x="110" y="449"/>
      <point x="165" y="486"/>
      <point x="252" y="486" type="curve" smooth="yes"/>
      <point x="350" y="486"/>
      <point x="403" y="433"/>
      <point x="403" y="345" type="curve" smooth="yes"/>
      <point x="403" y="115" type="line"/>
      <point x="403" y="88" type="line" smooth="yes"/>
      <point x="403" y="6"/>
      <point x="448" y="-10"/>
      <point x="481" y="-10" type="curve" smooth="yes"/>
      <point x="484" y="-10"/>
      <point x="517" y="-2"/>
      <point x="519" y="-1" type="curve"/>
      <point x="521" y="22" type="line"/>
      <point x="512" y="16"/>
      <point x="497" y="14"/>
      <point x="483" y="14" type="curve" smooth="yes"/>
      <point x="451" y="14"/>
      <point x="431" y="35"/>
      <point x="431" y="79" type="curve" smooth="yes"/>
      <point x="431" y="347" type="line" smooth="yes"/>
      <point x="431" y="454"/>
      <point x="365" y="510"/>
      <point x="252" y="510" type="curve" smooth="yes"/>
      <point x="152" y="510"/>
      <point x="88" y="469"/>
    </contour>
    <contour>
      <point x="234" y="258" type="line" smooth="yes"/>
      <point x="104" y="234"/>
      <point x="48" y="189"/>
      <point x="48" y="111" type="curve" smooth="yes"/>
      <point x="48" y="34"/>
      <point x="109" y="-10"/>
      <point x="207" y="-10" type="curve" smooth="yes"/>
      <point x="303" y="-10"/>
      <point x="414" y="38"/>
      <point x="414" y="137" type="curve"/>
      <point x="403" y="154" type="line"/>
      <point x="403" y="57"/>
      <point x="290" y="15"/>
      <point x="212" y="15" type="curve" smooth="yes"/>
      <point x="127" y="15"/>
      <point x="77" y="50"/>
      <point x="77" y="111" type="curve" smooth="yes"/>
      <point x="77" y="174"/>
      <point x="124" y="213"/>
      <point x="247" y="236" type="curve" smooth="yes"/>
      <point x="417" y="268" type="line"/>
      <point x="414" y="291" type="line"/>
    </contour>
    <contour>
      <point x="330" y="-132" type="curve" smooth="yes"/>
      <point x="330" y="-177"/>
      <point x="362" y="-204"/>
      <point x="412" y="-204" type="curve" smooth="yes"/>
      <point x="439" y="-204"/>
      <point x="455" y="-197"/>
      <point x="469" y="-187" type="curve"/>
      <point x="465" y="-166" type="line"/>
      <point x="453" y="-176"/>
      <point x="437" y="-182"/>
      <point x="416" y="-182" type="curve" smooth="yes"/>
      <point x="378" y="-182"/>
      <point x="354" y="-162"/>
      <point x="354" y="-129" type="curve" smooth="yes"/>
      <point x="354" y="-73"/>
      <point x="429" y="-28"/>
      <point x="519" y="-1" type="curve"/>
      <point x="498" y="7" type="line"/>
      <point x="394" y="-24"/>
      <point x="330" y="-67"/>
    </contour>
    <contour>
      <point x="613" y="500" type="line"/>
      <point x="613" y="-84" type="line" smooth="yes"/>
      <point x="613" y="-159"/>
      <point x="594" y="-189"/>
      <point x="552" y="-189" type="curve" smooth="yes"/>
      <point x="526" y="-189"/>
      <point x="515" y="-185"/>
      <point x="503" y="-175" type="curve"/>
      <point x="496" y="-200" type="line"/>
      <point x="513" y="-212"/>
      <point x="528" y="-215"/>
      <point x="553" y="-215" type="curve" smooth="yes"/>
      <point x="609" y="-215"/>
      <point x="641" y="-178"/>
      <point x="641" y="-86" type="curve" smooth="yes"/>
      <point x="641" y="500" type="line"/>
    </contour>
    <contour>
      <point x="598" y="627" type="curve" smooth="yes"/>
      <point x="598" y="610"/>
      <point x="610" y="598"/>
      <point x="627" y="598" type="curve" smooth="yes"/>
      <point x="643" y="598"/>
      <point x="656" y="610"/>
      <point x="656" y="627" type="curve" smooth="yes"/>
      <point x="656" y="644"/>
      <point x="643" y="656"/>
      <point x="627" y="656" type="curve" smooth="yes"/>
      <point x="610" y="656"/>
      <point x="598" y="644"/>
    </contour>
  </outline>
</glyph>
<glyph name="b.sc" format="2">
  <advance width="552"/>
  <anchor x="260" y="0" name="bottomC"/>
  <anchor x="276" y="560" name="top"/>
  <anchor x="300" y="0" name="ogonek"/>
  <anchor x="276" y="0" name="bottom"/>
  <outline>
    <contour>
      <point x="300" y="0" type="line" smooth="yes"/>
      <point x="430" y="0"/>
      <point x="498" y="51"/>
      <point x="498" y="146" type="curve" smooth="yes"/>
      <point x="498" y="219"/>
      <point x="454" y="272"/>
      <point x="369" y="282" type="curve"/>
      <point x="369" y="283" type="line"/>
      <point x="441" y="295"/>
      <point x="482" y="345"/>
      <point x="482" y="416" type="curve" smooth="yes"/>
      <point x="482" y="510"/>
      <point x="420" y="560"/>
      <point x="300" y="560" type="curve" smooth="yes"/>
      <point x="91" y="560" type="line"/>
      <point x="91" y="0" type="line"/>
    </contour>
    <contour>
      <point x="119" y="270" type="line"/>
      <point x="302" y="270" type="line" smooth="yes"/>
      <point x="413" y="270"/>
      <point x="470" y="229"/>
      <point x="470" y="147" type="curve" smooth="yes"/>
      <point x="470" y="66"/>
      <point x="413" y="24"/>
      <point x="302" y="24" type="curve" smooth="yes"/>
      <point x="119" y="24" type="line"/>
    </contour>
    <contour>
      <point x="119" y="536" type="line"/>
      <point x="301" y="536" type="line" smooth="yes"/>
      <point x="401" y="536"/>
      <point x="454" y="495"/>
      <point x="454" y="415" type="curve" smooth="yes"/>
      <point x="454" y="334"/>
      <point x="401" y="294"/>
      <point x="301" y="294" type="curve" smooth="yes"/>
      <point x="119" y="294" type="line"/>
    </contour>
  </outline>
</glyph>
<glyph name="bar.case" format="2">
  <advance width="181"/>
  <outline>
    <contour>
      <point x="78" y="752" type="line"/>
      <point x="78" y="-97" type="line"/>
      <point x="103" y="-97" type="line"/>
      <point x="103" y="752" type="line"/>
    </contour>
  </outline>
</glyph>
<glyph name="blackCircle.case" format="2">
  <advance width="683"/>
  <outline>
    <contour>
      <point x="612" y="330" type="curve" smooth="yes"/>
      <point x="612" y="485"/>
      <point x="496" y="601"/>
      <point x="341" y="601" type="curve" smooth="yes"/>
      <point x="186" y="601"/>
      <point x="70" y="485"/>
      <point x="70" y="330" type="curve" smooth="yes"/>
      <point x="70" y="175"/>
      <point x="186" y="59"/>
      <point x="341" y="59" type="curve" smooth="yes"/>
      <point x="496" y="59"/>
      <point x="612" y="175"/>
    </contour>
  </outline>
</glyph>
<glyph name="bowl" format="2">
  <advance width="649"/>
  <outline>
    <contour>
      <point x="116" y="250" type="curve" smooth="yes"/>
      <point x="116" y="87"/>
      <point x="202" y="-10"/>
      <point x="345" y="-10" type="curve" smooth="yes"/>
      <point x="471" y="-10"/>
      <point x="553" y="77"/>
      <point x="553" y="217" type="curve"/>
      <point x="541" y="246" type="line"/>
      <point x="541" y="102"/>
      <point x="465" y="15"/>
      <point x="349" y="15" type="curve" smooth="yes"/>
      <point x="220" y="15"/>
      <point x="144" y="102"/>
      <point x="144" y="250" type="curve" smooth="yes"/>
      <point x="144" y="398"/>
      <point x="220" y="486"/>
      <point x="349" y="486" type="curve" smooth="yes"/>
      <point x="466" y="486"/>
      <point x="541" y="397"/>
      <point x="541" y="254" type="curve"/>
      <point x="554" y="280" type="line"/>
      <point x="554" y="422"/>
      <point x="470" y="510"/>
      <point x="345" y="510" type="curve" smooth="yes"/>
      <point x="202" y="510"/>
      <point x="116" y="413"/>
    </contour>
  </outline>
</glyph>
<glyph name="bracketleftsuperior" format="2">
  <advance width="187"/>
  <outline>
    <contour>
      <point x="97" y="810" type="line"/>
      <point x="72" y="810" type="line"/>
      <point x="72" y="253" type="line"/>
      <point x="97" y="253" type="line"/>
    </contour>
    <contour>
      <point x="84" y="789" type="line"/>
      <point x="188" y="789" type="line"/>
      <point x="188" y="810" type="line"/>
      <point x="84" y="810" type="line"/>
    </contour>
    <contour>
      <point x="84" y="253" type="line"/>
      <point x="188" y="253" type="line"/>
      <point x="188" y="274" type="line"/>
      <point x="84" y="274" type="line"/>
    </contour>
  </outline>
</glyph>
<glyph name="caroncmb.asc" format="2">
  <anchor x="0" y="730" name="_top"/>
  <outline>
    <contour>
      <point x="90" y="930" type="line"/>
      <point x="0" y="814" type="line"/>
      <point x="-90" y="930" type="line"/>
      <point x="-117" y="930" type="line"/>
      <point x="-17" y="794" type="line"/>
      <point x="17" y="794" type="line"/>
      <point x="117" y="930" type="line"/>
    </contour>
  </outline>
</glyph>
<glyph name="cent.001" format="2">
  <advance width="523"/>
  <outline>
    <contour>
      <point x="58" y="250" type="curve" smooth="yes"/>
      <point x="58" y="88"/>
      <point x="138" y="-10"/>
      <point x="278" y="-10" type="curve" smooth="yes"/>
      <point x="375" y="-10"/>
      <point x="455" y="47"/>
      <point x="473" y="137" type="curve"/>
      <point x="448" y="146" type="line"/>
      <point x="434" y="64"/>
      <point x="362" y="14"/>
      <point x="278" y="14" type="curve" smooth="yes"/>
      <point x="154" y="14"/>
      <point x="85" y="102"/>
      <point x="85" y="250" type="curve" smooth="yes"/>
      <point x="85" y="398"/>
      <point x="157" y="486"/>
      <point x="280" y="486" type="curve" smooth="yes"/>
      <point x="364" y="486"/>
      <point x="423" y="442"/>
      <point x="443" y="361" type="curve"/>
      <point x="469" y="374" type="line"/>
      <point x="444" y="461"/>
      <point x="375" y="510"/>
      <point x="281" y="510" type="curve" smooth="yes"/>
      <point x="140" y="510"/>
      <point x="58" y="412"/>
    </contour>
    <contour>
      <point x="259" y="0" type="line"/>
      <point x="259" y="-118" type="line"/>
      <point x="285" y="-118" type="line"/>
      <point x="285" y="0" type="line"/>
    </contour>
    <contour>
      <point x="259" y="618" type="line"/>
      <point x="259" y="500" type="line"/>
      <point x="285" y="500" type="line"/>
      <point x="285" y="618" type="line"/>
    </contour>
  </outline>
</glyph>
<glyph name="commasuperior" format="2">
  <advance width="139"/>
  <outline>
    <contour>
      <point x="46" y="354" type="curve" smooth="yes"/>
      <point x="46" y="340"/>
      <point x="56" y="329"/>
      <point x="69" y="329" type="curve" smooth="yes"/>
      <point x="75" y="329"/>
      <point x="82" y="332"/>
      <point x="83" y="335" type="curve"/>
      <point x="84" y="335" type="line"/>
      <point x="89" y="312"/>
      <point x="71" y="279"/>
      <point x="45" y="267" type="curve"/>
      <point x="61" y="255" type="line"/>
      <point x="90" y="271"/>
      <point x="105" y="303"/>
      <point x="105" y="333" type="curve" smooth="yes"/>
      <point x="105" y="359"/>
      <point x="92" y="377"/>
      <point x="70" y="377" type="curve" smooth="yes"/>
      <point x="54" y="377"/>
      <point x="46" y="367"/>
    </contour>
  </outline>
</glyph>
<glyph name="daggersuperior" format="2">
  <advance width="402"/>
  <outline>
    <contour>
      <point x="184" y="730" type="line"/>
      <point x="184" y="276" type="line"/>
      <point x="210" y="276" type="line"/>
      <point x="210" y="730" type="line"/>
    </contour>
    <contour>
      <point x="37" y="589" type="line"/>
      <point x="37" y="567" type="line"/>
      <point x="365" y="567" type="line"/>
      <point x="365" y="589" type="line"/>
    </contour>
  </outline>
</glyph>
<glyph name="dollar.001" format="2">
  <advance width="566"/>
  <outline>
    <contour>
      <point x="422" y="222" type="curve" smooth="yes"/>
      <point x="422" y="376"/>
      <point x="158" y="278"/>
      <point x="158" y="429" type="curve" smooth="yes"/>
      <point x="158" y="487"/>
      <point x="207" y="537"/>
      <point x="285" y="537" type="curve" smooth="yes"/>
      <point x="355" y="537"/>
      <point x="397" y="512"/>
      <point x="414" y="447" type="curve"/>
      <point x="410" y="448" type="line"/>
      <point x="394" y="510"/>
      <point x="351" y="536"/>
      <point x="285" y="536" type="curve" smooth="yes"/>
      <point x="204" y="536"/>
      <point x="159" y="483"/>
      <point x="159" y="430" type="curve" smooth="yes"/>
      <point x="159" y="278"/>
      <point x="423" y="372"/>
      <point x="423" y="223" type="curve" smooth="yes"/>
      <point x="423" y="158"/>
      <point x="363" y="122"/>
      <point x="295" y="122" type="curve" smooth="yes"/>
      <point x="220" y="122"/>
      <point x="157" y="163"/>
      <point x="146" y="233" type="curve"/>
      <point x="146" y="236" type="line"/>
      <point x="157" y="164"/>
      <point x="219" y="124"/>
      <point x="295" y="124" type="curve" smooth="yes"/>
      <point x="371" y="124"/>
      <point x="422" y="163"/>
    </contour>
    <contour>
      <point x="291" y="-91" type="line"/>
      <point x="291" y="-11" type="line"/>
      <point x="293" y="-11" type="line"/>
      <point x="293" y="-91" type="line"/>
    </contour>
    <contour>
      <point x="304" y="647" type="line"/>
      <point x="304" y="776" type="line"/>
      <point x="280" y="776" type="line"/>
      <point x="280" y="647" type="line"/>
    </contour>
  </outline>
</glyph>
<glyph name="eight.osf" format="2">
  <advance width="567"/>
  <outline>
    <contour>
      <point x="84" y="506" type="curve" smooth="yes"/>
      <point x="84" y="425"/>
      <point x="134" y="367"/>
      <point x="217" y="348" type="curve"/>
      <point x="217" y="347" type="line"/>
      <point x="120" y="328"/>
      <point x="56" y="261"/>
      <point x="56" y="171" type="curve" smooth="yes"/>
      <point x="56" y="64"/>
      <point x="149" y="-10"/>
      <point x="284" y="-10" type="curve" smooth="yes"/>
      <point x="419" y="-10"/>
      <point x="512" y="64"/>
      <point x="512" y="171" type="curve" smooth="yes"/>
      <point x="512" y="259"/>
      <point x="448" y="327"/>
      <point x="350" y="347" type="curve"/>
      <point x="350" y="348" type="line"/>
      <point x="433" y="368"/>
      <point x="483" y="425"/>
      <point x="483" y="506" type="curve" smooth="yes"/>
      <point x="483" y="605"/>
      <point x="405" y="670"/>
      <point x="284" y="670" type="curve" smooth="yes"/>
      <point x="162" y="670"/>
      <point x="84" y="605"/>
    </contour>
    <contour>
      <point x="455" y="505" type="curve" smooth="yes"/>
      <point x="455" y="418"/>
      <point x="387" y="360"/>
      <point x="284" y="360" type="curve" smooth="yes"/>
      <point x="180" y="360"/>
      <point x="112" y="418"/>
      <point x="112" y="505" type="curve" smooth="yes"/>
      <point x="112" y="591"/>
      <point x="180" y="646"/>
      <point x="284" y="646" type="curve" smooth="yes"/>
      <point x="387" y="646"/>
      <point x="455" y="591"/>
    </contour>
    <contour>
      <point x="84" y="172" type="curve" smooth="yes"/>
      <point x="84" y="267"/>
      <point x="165" y="334"/>
      <point x="284" y="334" type="curve" smooth="yes"/>
      <point x="402" y="334"/>
      <point x="484" y="267"/>
      <point x="484" y="172" type="curve" smooth="yes"/>
      <point x="484" y="78"/>
      <point x="402" y="14"/>
      <point x="284" y="14" type="curve" smooth="yes"/>
      <point x="165" y="14"/>
      <point x="84" y="78"/>
    </contour>
  </outline>
</glyph>
<glyph name="eight.sc" format="2">
  <advance width="513"/>
  <outline>
    <contour>
      <point x="459" y="145" type="curve" smooth="yes"/>
      <point x="459" y="220"/>
      <point x="403" y="277"/>
      <point x="316" y="294" type="curve"/>
      <point x="316" y="295" type="line"/>
      <point x="390" y="312"/>
      <point x="435" y="360"/>
      <point x="435" y="428" type="curve" smooth="yes"/>
      <point x="435" y="513"/>
      <point x="365" y="568"/>
      <point x="256" y="568" type="curve" smooth="yes"/>
      <point x="147" y="568"/>
      <point x="78" y="513"/>
      <point x="78" y="428" type="curve" smooth="yes"/>
      <point x="78" y="360"/>
      <point x="123" y="312"/>
      <point x="197" y="295" type="curve"/>
      <point x="197" y="294" type="line"/>
      <point x="111" y="278"/>
      <point x="54" y="221"/>
      <point x="54" y="145" type="curve" smooth="yes"/>
      <point x="54" y="54"/>
      <point x="136" y="-8"/>
      <point x="256" y="-8" type="curve" smooth="yes"/>
      <point x="377" y="-8"/>
      <point x="459" y="54"/>
    </contour>
    <contour>
      <point x="82" y="147" type="curve" smooth="yes"/>
      <point x="82" y="226"/>
      <point x="153" y="281"/>
      <point x="256" y="281" type="curve" smooth="yes"/>
      <point x="360" y="281"/>
      <point x="431" y="226"/>
      <point x="431" y="147" type="curve" smooth="yes"/>
      <point x="431" y="69"/>
      <point x="361" y="16"/>
      <point x="256" y="16" type="curve" smooth="yes"/>
      <point x="152" y="16"/>
      <point x="82" y="69"/>
    </contour>
    <contour>
      <point x="105" y="427" type="curve" smooth="yes"/>
      <point x="105" y="499"/>
      <point x="165" y="544"/>
      <point x="256" y="544" type="curve" smooth="yes"/>
      <point x="348" y="544"/>
      <point x="407" y="499"/>
      <point x="407" y="427" type="curve" smooth="yes"/>
      <point x="407" y="355"/>
      <point x="347" y="306"/>
      <point x="256" y="306" type="curve" smooth="yes"/>
      <point x="165" y="306"/>
      <point x="105" y="355"/>
    </contour>
  </outline>
</glyph>
<glyph name="eight.tf" format="2">
  <advance width="604"/>
  <outline>
    <contour>
      <point x="107" y="506" type="curve" smooth="yes"/>
      <point x="107" y="425"/>
      <point x="156" y="367"/>
      <point x="236" y="348" type="curve"/>
      <point x="236" y="347" type="line"/>
      <point x="142" y="328"/>
      <point x="79" y="261"/>
      <point x="79" y="171" type="curve" smooth="yes"/>
      <point x="79" y="64"/>
      <point x="170" y="-10"/>
      <point x="302" y="-10" type="curve" smooth="yes"/>
      <point x="433" y="-10"/>
      <point x="524" y="64"/>
      <point x="524" y="171" type="curve" smooth="yes"/>
      <point x="524" y="259"/>
      <point x="463" y="327"/>
      <point x="368" y="347" type="curve"/>
      <point x="368" y="348" type="line"/>
      <point x="447" y="368"/>
      <point x="496" y="425"/>
      <point x="496" y="506" type="curve" smooth="yes"/>
      <point x="496" y="605"/>
      <point x="419" y="670"/>
      <point x="302" y="670" type="curve" smooth="yes"/>
      <point x="183" y="670"/>
      <point x="107" y="605"/>
    </contour>
    <contour>
      <point x="468" y="504" type="curve" smooth="yes"/>
      <point x="468" y="418"/>
      <point x="402" y="360"/>
      <point x="302" y="360" type="curve" smooth="yes"/>
      <point x="202" y="360"/>
      <point x="136" y="418"/>
      <point x="136" y="504" type="curve" smooth="yes"/>
      <point x="136" y="590"/>
      <point x="201" y="644"/>
      <point x="302" y="644" type="curve" smooth="yes"/>
      <point x="402" y="644"/>
      <point x="468" y="590"/>
    </contour>
    <contour>
      <point x="107" y="172" type="curve" smooth="yes"/>
      <point x="107" y="267"/>
      <point x="187" y="333"/>
      <point x="302" y="333" type="curve" smooth="yes"/>
      <point x="417" y="333"/>
      <point x="496" y="267"/>
      <point x="496" y="172" type="curve" smooth="yes"/>
      <point x="496" y="79"/>
      <point x="417" y="15"/>
      <point x="302" y="15" type="curve" smooth="yes"/>
      <point x="186" y="15"/>
      <point x="107" y="79"/>
    </contour>
  </outline>
</glyph>
<glyph name="euro.part" format="2">
  <advance width="658"/>
  <outline>
    <contour>
      <point x="124" y="330" type="curve" smooth="yes"/>
      <point x="124" y="118"/>
      <point x="223" y="-10"/>
      <point x="388" y="-10" type="curve" smooth="yes"/>
      <point x="485" y="-10"/>
      <point x="578" y="50"/>
      <point x="609" y="169" type="curve"/>
      <point x="584" y="180" type="line"/>
      <point x="557" y="70"/>
      <point x="475" y="15"/>
      <point x="388" y="15" type="curve" smooth="yes"/>
      <point x="241" y="15"/>
      <point x="152" y="133"/>
      <point x="152" y="330" type="curve" smooth="yes"/>
      <point x="152" y="527"/>
      <point x="241" y="646"/>
      <point x="388" y="646" type="curve" smooth="yes"/>
      <point x="482" y="646"/>
      <point x="547" y="599"/>
      <point x="577" y="511" type="curve"/>
      <point x="600" y="526" type="line"/>
      <point x="568" y="620"/>
      <point x="493" y="670"/>
      <point x="387" y="670" type="curve" smooth="yes"/>
      <point x="222" y="670"/>
      <point x="124" y="542"/>
    </contour>
  </outline>
</glyph>
<glyph name="f_idieresis" format="2">
  <advance width="540"/>
  <outline>
    <contour>
      <point x="144" y="0" type="line"/>
      <point x="144" y="488" type="line"/>
      <point x="144" y="494" type="line"/>
      <point x="144" y="524"/>
      <point x="144" y="553"/>
      <point x="144" y="582" type="curve" smooth="yes"/>
      <point x="144" y="663"/>
      <point x="186" y="710"/>
      <point x="256" y="710" type="curve" smooth="yes"/>
      <point x="286" y="710"/>
      <point x="306" y="703"/>
      <point x="323" y="684" type="curve"/>
      <point x="333" y="706" type="line"/>
      <point x="317" y="723"/>
      <point x="293" y="735"/>
      <point x="255" y="735" type="curve" smooth="yes"/>
      <point x="167" y="735"/>
      <point x="116" y="677"/>
      <point x="116" y="583" type="curve" smooth="yes"/>
      <point x="116" y="553"/>
      <point x="116" y="524"/>
      <point x="116" y="494" type="curve"/>
      <point x="116" y="488" type="line"/>
      <point x="116" y="0" type="line"/>
    </contour>
    <contour>
      <point x="326" y="476" type="line"/>
      <point x="326" y="500" type="line"/>
      <point x="16" y="500" type="line"/>
      <point x="16" y="476" type="line"/>
    </contour>
    <contour>
      <point x="454" y="0" type="line"/>
      <point x="454" y="500" type="line"/>
      <point x="426" y="500" type="line"/>
      <point x="426" y="0" type="line"/>
    </contour>
    <contour>
      <point x="413" y="624" type="curve" smooth="yes"/>
      <point x="413" y="641"/>
      <point x="401" y="652"/>
      <point x="384" y="652" type="curve" smooth="yes"/>
      <point x="367" y="652"/>
      <point x="356" y="641"/>
      <point x="356" y="624" type="curve" smooth="yes"/>
      <point x="356" y="607"/>
      <point x="367" y="595"/>
      <point x="384" y="595" type="curve" smooth="yes"/>
      <point x="401" y="595"/>
      <point x="413" y="607"/>
    </contour>
    <contour>
      <point x="524" y="624" type="curve" smooth="yes"/>
      <point x="524" y="641"/>
      <point x="512" y="652"/>
      <point x="495" y="652" type="curve" smooth="yes"/>
      <point x="478" y="652"/>
      <point x="467" y="641"/>
      <point x="467" y="624" type="curve" smooth="yes"/>
      <point x="467" y="607"/>
      <point x="478" y="595"/>
      <point x="495" y="595" type="curve" smooth="yes"/>
      <point x="512" y="595"/>
      <point x="524" y="607"/>
    </contour>
  </outline>
</glyph>
<glyph name="f_t.liga" format="2">
  <advance width="638"/>
  <anchor x="419" y="275" name="center"/>
  <anchor x="547" y="767" name="topright"/>
  <anchor x="519" y="0" name="bottom"/>
  <outline>
    <contour>
      <point x="116" y="583" type="curve" smooth="yes"/>
      <point x="116" y="0" type="line"/>
      <point x="144" y="0" type="line"/>
      <point x="144" y="488" type="line"/>
      <point x="144" y="500" type="line"/>
      <point x="144" y="582" type="line" smooth="yes"/>
      <point x="144" y="663"/>
      <point x="186" y="710"/>
      <point x="256" y="710" type="curve" smooth="yes"/>
      <point x="286" y="710"/>
      <point x="306" y="703"/>
      <point x="323" y="684" type="curve"/>
      <point x="333" y="706" type="line"/>
      <point x="317" y="723"/>
      <point x="293" y="735"/>
      <point x="255" y="735" type="curve" smooth="yes"/>
      <point x="167" y="735"/>
      <point x="116" y="677"/>
    </contour>
    <contour>
      <point x="16" y="500" type="line"/>
      <point x="16" y="476" type="line"/>
      <point x="326" y="476" type="line"/>
      <point x="326" y="500" type="line"/>
    </contour>
    <contour>
      <point x="407" y="628" type="line"/>
      <point x="407" y="126" type="line" smooth="yes"/>
      <point x="407" y="35"/>
      <point x="450" y="-10"/>
      <point x="530" y="-10" type="curve" smooth="yes"/>
      <point x="573" y="-10"/>
      <point x="610" y="7"/>
      <point x="632" y="29" type="curve"/>
      <point x="621" y="52" type="line"/>
      <point x="597" y="27"/>
      <point x="568" y="15"/>
      <point x="533" y="15" type="curve" smooth="yes"/>
      <point x="466" y="15"/>
      <point x="435" y="54"/>
      <point x="435" y="128" type="curve" smooth="yes"/>
      <point x="435" y="636" type="line"/>
    </contour>
    <contour>
      <point x="307" y="500" type="line"/>
      <point x="307" y="476" type="line"/>
      <point x="626" y="476" type="line"/>
      <point x="626" y="500" type="line"/>
    </contour>
  </outline>
</glyph>
<glyph name="five.sc" format="2">
  <advance width="484"/>
  <outline>
    <contour>
      <point x="93" y="278" type="curve"/>
      <point x="92" y="278" type="line"/>
      <point x="94" y="296" type="line"/>
      <point x="116" y="536" type="line"/>
      <point x="413" y="536" type="line"/>
      <point x="413" y="560" type="line"/>
      <point x="93" y="560" type="line"/>
      <point x="65" y="253" type="line"/>
      <point x="89" y="252" type="line"/>
      <point x="115" y="286"/>
      <point x="164" y="319"/>
      <point x="251" y="319" type="curve" smooth="yes"/>
      <point x="345" y="319"/>
      <point x="408" y="258"/>
      <point x="408" y="169" type="curve" smooth="yes"/>
      <point x="408" y="78"/>
      <point x="343" y="16"/>
      <point x="246" y="16" type="curve" smooth="yes"/>
      <point x="150" y="16"/>
      <point x="87" y="54"/>
      <point x="72" y="137" type="curve"/>
      <point x="46" y="124" type="line"/>
      <point x="70" y="28"/>
      <point x="145" y="-8"/>
      <point x="247" y="-8" type="curve" smooth="yes"/>
      <point x="359" y="-8"/>
      <point x="436" y="62"/>
      <point x="436" y="169" type="curve" smooth="yes"/>
      <point x="436" y="272"/>
      <point x="362" y="344"/>
      <point x="254" y="344" type="curve" smooth="yes"/>
      <point x="167" y="344"/>
      <point x="120" y="313"/>
    </contour>
  </outline>
</glyph>
<glyph name="florin.tf" format="2">
  <advance width="604"/>
  <outline>
    <contour>
      <point x="328" y="591" type="curve" smooth="yes"/>
      <point x="224" y="17" type="line" smooth="yes"/>
      <point x="210" y="-62"/>
      <point x="167" y="-103"/>
      <point x="96" y="-103" type="curve" smooth="yes"/>
      <point x="66" y="-103"/>
      <point x="45" y="-98"/>
      <point x="27" y="-87" type="curve"/>
      <point x="20" y="-110" type="line"/>
      <point x="47" y="-124"/>
      <point x="65" y="-128"/>
      <point x="97" y="-128" type="curve" smooth="yes"/>
      <point x="183" y="-128"/>
      <point x="236" y="-79"/>
      <point x="253" y="16" type="curve" smooth="yes"/>
      <point x="357" y="591" type="line" smooth="yes"/>
      <point x="371" y="671"/>
      <point x="414" y="710"/>
      <point x="488" y="710" type="curve" smooth="yes"/>
      <point x="511" y="710"/>
      <point x="532" y="705"/>
      <point x="553" y="695" type="curve"/>
      <point x="556" y="720" type="line"/>
      <point x="531" y="732"/>
      <point x="512" y="735"/>
      <point x="480" y="735" type="curve" smooth="yes"/>
      <point x="394" y="735"/>
      <point x="345" y="688"/>
    </contour>
    <contour>
      <point x="118" y="400" type="line"/>
      <point x="118" y="376" type="line"/>
      <point x="524" y="376" type="line"/>
      <point x="524" y="400" type="line"/>
    </contour>
  </outline>
</glyph>
<glyph name="four.tf" format="2">
  <advance width="604"/>
  <outline>
    <contour>
      <point x="410" y="0" type="line"/>
      <point x="410" y="199" type="line"/>
      <point x="556" y="199" type="line"/>
      <point x="556" y="223" type="line"/>
      <point x="410" y="223" type="line"/>
      <point x="410" y="660" type="line"/>
      <point x="371" y="660" type="line"/>
      <point x="55" y="221" type="line"/>
      <point x="55" y="199" type="line"/>
      <point x="382" y="199" type="line"/>
      <point x="382" y="0" type="line"/>
    </contour>
    <contour>
      <point x="326" y="555" type="line" smooth="yes"/>
      <point x="345" y="580"/>
      <point x="364" y="607"/>
      <point x="382" y="635" type="curve"/>
      <point x="383" y="635" type="line"/>
      <point x="382" y="591"/>
      <point x="382" y="546"/>
      <point x="382" y="503" type="curve" smooth="yes"/>
      <point x="382" y="223" type="line"/>
      <point x="85" y="223" type="line"/>
    </contour>
  </outline>
</glyph>
<glyph name="g.sc" format="2">
  <advance width="610"/>
  <anchor x="317" y="0" name="bottomC"/>
  <anchor x="314" y="560" name="top"/>
  <anchor x="377" y="0" name="ogonek"/>
  <anchor x="343" y="0" name="bottom"/>
  <outline>
    <contour>
      <point x="54" y="280" type="curve" smooth="yes"/>
      <point x="54" y="103"/>
      <point x="155" y="-8"/>
      <point x="312" y="-8" type="curve" smooth="yes"/>
      <point x="458" y="-8"/>
      <point x="534" y="82"/>
      <point x="534" y="228" type="curve"/>
      <point x="522" y="238" type="line"/>
      <point x="522" y="137"/>
      <point x="472" y="16"/>
      <point x="313" y="16" type="curve" smooth="yes"/>
      <point x="171" y="16"/>
      <point x="82" y="117"/>
      <point x="82" y="280" type="curve" smooth="yes"/>
      <point x="82" y="442"/>
      <point x="181" y="544"/>
      <point x="319" y="544" type="curve" smooth="yes"/>
      <point x="425" y="544"/>
      <point x="494" y="500"/>
      <point x="522" y="410" type="curve"/>
      <point x="547" y="424" type="line"/>
      <point x="514" y="520"/>
      <point x="439" y="568"/>
      <point x="318" y="568" type="curve" smooth="yes"/>
      <point x="164" y="568"/>
      <point x="54" y="457"/>
    </contour>
    <contour>
      <point x="313" y="245" type="line"/>
      <point x="522" y="245" type="line"/>
      <point x="522" y="191" type="line"/>
      <point x="523" y="181" type="line"/>
      <point x="524" y="0" type="line"/>
      <point x="547" y="0" type="line"/>
      <point x="547" y="269" type="line"/>
      <point x="313" y="269" type="line"/>
    </contour>
  </outline>
</glyph>
<glyph name="g.sc.ss04" format="2">
  <advance width="596"/>
  <anchor x="309" y="0" name="bottomC"/>
  <anchor x="310" y="560" name="top"/>
  <anchor x="377" y="0" name="ogonek"/>
  <anchor x="321" y="0" name="bottom"/>
  <outline>
    <contour>
      <point x="554" y="250" type="curve" smooth="yes"/>
      <point x="554" y="269" type="line"/>
      <point x="317" y="269" type="line"/>
      <point x="317" y="245" type="line"/>
      <point x="541" y="245" type="line"/>
      <point x="528" y="257" type="line"/>
      <point x="528" y="246" type="line" smooth="yes"/>
      <point x="528" y="152"/>
      <point x="491" y="16"/>
      <point x="315" y="16" type="curve" smooth="yes"/>
      <point x="171" y="16"/>
      <point x="82" y="117"/>
      <point x="82" y="280" type="curve" smooth="yes"/>
      <point x="82" y="442"/>
      <point x="175" y="544"/>
      <point x="315" y="544" type="curve" smooth="yes"/>
      <point x="423" y="544"/>
      <point x="490" y="500"/>
      <point x="518" y="411" type="curve"/>
      <point x="544" y="424" type="line"/>
      <point x="511" y="520"/>
      <point x="438" y="568"/>
      <point x="315" y="568" type="curve" smooth="yes"/>
      <point x="158" y="568"/>
      <point x="54" y="457"/>
      <point x="54" y="280" type="curve" smooth="yes"/>
      <point x="54" y="103"/>
      <point x="155" y="-8"/>
      <point x="313" y="-8" type="curve" smooth="yes"/>
      <point x="492" y="-8"/>
      <point x="554" y="112"/>
    </contour>
  </outline>
</glyph>
<glyph name="g_j.liga" format="2">
  <advance width="733"/>
  <outline>
    <contour>
      <point x="378" y="468" type="curve"/>
      <point x="398" y="460" type="line"/>
      <point x="398" y="526"/>
      <point x="435" y="568"/>
      <point x="503" y="568" type="curve"/>
      <point x="495" y="592" type="line"/>
      <point x="424" y="592"/>
      <point x="378" y="544"/>
    </contour>
    <contour>
      <point x="63" y="113" type="curve" smooth="yes"/>
      <point x="63" y="58"/>
      <point x="121" y="18"/>
      <point x="199" y="18" type="curve" smooth="yes"/>
      <point x="328" y="18" type="line" smooth="yes"/>
      <point x="418" y="18"/>
      <point x="471" y="-18"/>
      <point x="471" y="-73" type="curve" smooth="yes"/>
      <point x="471" y="-142"/>
      <point x="386" y="-191"/>
      <point x="269" y="-191" type="curve" smooth="yes"/>
      <point x="138" y="-191"/>
      <point x="61" y="-145"/>
      <point x="61" y="-77" type="curve" smooth="yes"/>
      <point x="61" y="-21"/>
      <point x="117" y="18"/>
      <point x="200" y="18" type="curve"/>
      <point x="185" y="32" type="line"/>
      <point x="96" y="32"/>
      <point x="34" y="-14"/>
      <point x="34" y="-81" type="curve" smooth="yes"/>
      <point x="34" y="-160"/>
      <point x="118" y="-215"/>
      <point x="265" y="-215" type="curve" smooth="yes"/>
      <point x="402" y="-215"/>
      <point x="497" y="-156"/>
      <point x="497" y="-70" type="curve" smooth="yes"/>
      <point x="497" y="-3"/>
      <point x="434" y="42"/>
      <point x="333" y="42" type="curve" smooth="yes"/>
      <point x="208" y="42" type="line" smooth="yes"/>
      <point x="130" y="42"/>
      <point x="90" y="74"/>
      <point x="90" y="117" type="curve" smooth="yes"/>
      <point x="90" y="163"/>
      <point x="143" y="198"/>
      <point x="217" y="199" type="curve"/>
      <point x="196" y="213" type="line"/>
      <point x="122" y="212"/>
      <point x="63" y="174"/>
    </contour>
    <contour>
      <point x="61" y="351" type="curve" smooth="yes"/>
      <point x="61" y="254"/>
      <point x="140" y="192"/>
      <point x="260" y="192" type="curve" smooth="yes"/>
      <point x="380" y="192"/>
      <point x="459" y="254"/>
      <point x="459" y="351" type="curve" smooth="yes"/>
      <point x="459" y="447"/>
      <point x="380" y="510"/>
      <point x="260" y="510" type="curve" smooth="yes"/>
      <point x="140" y="510"/>
      <point x="61" y="447"/>
    </contour>
    <contour>
      <point x="431" y="351" type="curve" smooth="yes"/>
      <point x="431" y="269"/>
      <point x="364" y="215"/>
      <point x="260" y="215" type="curve" smooth="yes"/>
      <point x="156" y="215"/>
      <point x="89" y="269"/>
      <point x="89" y="351" type="curve" smooth="yes"/>
      <point x="89" y="433"/>
      <point x="156" y="486"/>
      <point x="260" y="486" type="curve" smooth="yes"/>
      <point x="364" y="486"/>
      <point x="431" y="433"/>
    </contour>
    <contour>
      <point x="618" y="500" type="line"/>
      <point x="618" y="-84" type="line" smooth="yes"/>
      <point x="618" y="-159"/>
      <point x="600" y="-189"/>
      <point x="558" y="-189" type="curve" smooth="yes"/>
      <point x="532" y="-189"/>
      <point x="521" y="-185"/>
      <point x="509" y="-175" type="curve"/>
      <point x="502" y="-200" type="line"/>
      <point x="519" y="-212"/>
      <point x="534" y="-215"/>
      <point x="558" y="-215" type="curve" smooth="yes"/>
      <point x="615" y="-215"/>
      <point x="646" y="-178"/>
      <point x="646" y="-86" type="curve" smooth="yes"/>
      <point x="646" y="500" type="line"/>
    </contour>
    <contour>
      <point x="603" y="627" type="curve" smooth="yes"/>
      <point x="603" y="610"/>
      <point x="616" y="598"/>
      <point x="632" y="598" type="curve" smooth="yes"/>
      <point x="649" y="598"/>
      <point x="662" y="610"/>
      <point x="662" y="627" type="curve" smooth="yes"/>
      <point x="662" y="644"/>
      <point x="649" y="656"/>
      <point x="632" y="656" type="curve" smooth="yes"/>
      <point x="616" y="656"/>
      <point x="603" y="644"/>
    </contour>
  </outline>
</glyph>
<glyph name="gbase" format="2">
  <advance width="514"/>
  <outline>
    <contour>
      <point x="77" y="113" type="curve" smooth="yes"/>
      <point x="77" y="58"/>
      <point x="136" y="18"/>
      <point x="213" y="18" type="curve" smooth="yes"/>
      <point x="342" y="18" type="line" smooth="yes"/>
      <point x="432" y="18"/>
      <point x="485" y="-18"/>
      <point x="485" y="-73" type="curve" smooth="yes"/>
      <point x="485" y="-142"/>
      <point x="400" y="-191"/>
      <point x="283" y="-191" type="curve" smooth="yes"/>
      <point x="152" y="-191"/>
      <point x="75" y="-145"/>
      <point x="75" y="-77" type="curve" smooth="yes"/>
      <point x="75" y="-21"/>
      <point x="131" y="18"/>
      <point x="214" y="18" type="curve"/>
      <point x="199" y="32" type="line"/>
      <point x="110" y="32"/>
      <point x="48" y="-14"/>
      <point x="48" y="-81" type="curve" smooth="yes"/>
      <point x="48" y="-160"/>
      <point x="132" y="-215"/>
      <point x="279" y="-215" type="curve" smooth="yes"/>
      <point x="416" y="-215"/>
      <point x="511" y="-156"/>
      <point x="511" y="-70" type="curve" smooth="yes"/>
      <point x="511" y="-3"/>
      <point x="448" y="42"/>
      <point x="347" y="42" type="curve" smooth="yes"/>
      <point x="222" y="42" type="line" smooth="yes"/>
      <point x="144" y="42"/>
      <point x="104" y="74"/>
      <point x="104" y="117" type="curve" smooth="yes"/>
      <point x="104" y="163"/>
      <point x="157" y="198"/>
      <point x="232" y="199" type="curve"/>
      <point x="210" y="213" type="line"/>
      <point x="136" y="212"/>
      <point x="77" y="174"/>
    </contour>
    <contour>
      <point x="75" y="351" type="curve" smooth="yes"/>
      <point x="75" y="254"/>
      <point x="154" y="192"/>
      <point x="275" y="192" type="curve" smooth="yes"/>
      <point x="394" y="192"/>
      <point x="473" y="254"/>
      <point x="473" y="351" type="curve" smooth="yes"/>
      <point x="473" y="447"/>
      <point x="394" y="510"/>
      <point x="275" y="510" type="curve" smooth="yes"/>
      <point x="154" y="510"/>
      <point x="75" y="447"/>
    </contour>
    <contour>
      <point x="445" y="351" type="curve" smooth="yes"/>
      <point x="445" y="269"/>
      <point x="378" y="215"/>
      <point x="275" y="215" type="curve" smooth="yes"/>
      <point x="170" y="215"/>
      <point x="103" y="269"/>
      <point x="103" y="351" type="curve" smooth="yes"/>
      <point x="103" y="433"/>
      <point x="170" y="486"/>
      <point x="275" y="486" type="curve" smooth="yes"/>
      <point x="378" y="486"/>
      <point x="445" y="433"/>
    </contour>
  </outline>
</glyph>
<glyph name="germandbls.sc" format="2">
  <advance width="580"/>
  <anchor x="366" y="0" name="bottomC"/>
  <anchor x="315" y="560" name="top"/>
  <anchor x="410" y="0" name="ogonek"/>
  <anchor x="315" y="0" name="bottom"/>
  <outline>
    <contour>
      <point x="119" y="0" type="line"/>
      <point x="119" y="373" type="line" smooth="yes"/>
      <point x="119" y="469"/>
      <point x="182" y="536"/>
      <point x="282" y="536" type="curve" smooth="yes"/>
      <point x="476" y="536" type="line"/>
      <point x="274" y="295" type="line"/>
      <point x="294" y="284" type="line"/>
      <point x="507" y="535" type="line"/>
      <point x="507" y="560" type="line"/>
      <point x="281" y="560" type="line" smooth="yes"/>
      <point x="164" y="560"/>
      <point x="91" y="486"/>
      <point x="91" y="373" type="curve" smooth="yes"/>
      <point x="91" y="0" type="line"/>
    </contour>
    <contour>
      <point x="539" y="149" type="curve" smooth="yes"/>
      <point x="539" y="247"/>
      <point x="477" y="295"/>
      <point x="375" y="295" type="curve" smooth="yes"/>
      <point x="274" y="295" type="line"/>
      <point x="274" y="273" type="line"/>
      <point x="370" y="273" type="line" smooth="yes"/>
      <point x="459" y="273"/>
      <point x="511" y="235"/>
      <point x="511" y="149" type="curve" smooth="yes"/>
      <point x="511" y="69"/>
      <point x="452" y="20"/>
      <point x="367" y="20" type="curve" smooth="yes"/>
      <point x="313" y="20"/>
      <point x="272" y="40"/>
      <point x="247" y="68" type="curve"/>
      <point x="233" y="47" type="line"/>
      <point x="258" y="17"/>
      <point x="310" y="-4"/>
      <point x="369" y="-4" type="curve" smooth="yes"/>
      <point x="472" y="-4"/>
      <point x="539" y="54"/>
    </contour>
  </outline>
</glyph>
<glyph name="h.sc" format="2">
  <advance width="627"/>
  <anchor x="529" y="0" name="bottomC"/>
  <anchor x="314" y="560" name="top"/>
  <anchor x="536" y="0" name="ogonek"/>
  <anchor x="314" y="0" name="bottom"/>
  <outline>
    <contour>
      <point x="508" y="560" type="line"/>
      <point x="508" y="0" type="line"/>
      <point x="536" y="0" type="line"/>
      <point x="536" y="560" type="line"/>
    </contour>
    <contour>
      <point x="91" y="560" type="line"/>
      <point x="91" y="0" type="line"/>
      <point x="119" y="0" type="line"/>
      <point x="119" y="560" type="line"/>
    </contour>
    <contour>
      <point x="105" y="298" type="line"/>
      <point x="105" y="273" type="line"/>
      <point x="523" y="273" type="line"/>
      <point x="523" y="298" type="line"/>
    </contour>
  </outline>
</glyph>
<glyph name="i.sc" format="2">
  <advance width="210"/>
  <anchor x="111" y="0" name="bottomC"/>
  <anchor x="105" y="560" name="top"/>
  <anchor x="119" y="0" name="ogonek"/>
  <anchor x="105" y="0" name="bottom"/>
  <outline>
    <contour>
      <point x="91" y="560" type="line"/>
      <point x="91" y="0" type="line"/>
      <point x="119" y="0" type="line"/>
      <point x="119" y="560" type="line"/>
    </contour>
  </outline>
</glyph>
<glyph name="idieresis.sc" format="2">
  <advance width="210"/>
  <anchor x="105" y="560" name="top"/>
  <anchor x="119" y="0" name="ogonek"/>
  <anchor x="105" y="0" name="bottom"/>
  <anchor x="111" y="0" name="bottomC"/>
  <outline>
    <contour>
      <point x="20" y="684" type="curve" smooth="yes"/>
      <point x="20" y="667"/>
      <point x="32" y="655"/>
      <point x="49" y="655" type="curve" smooth="yes"/>
      <point x="66" y="655"/>
      <point x="78" y="667"/>
      <point x="78" y="684" type="curve" smooth="yes"/>
      <point x="78" y="701"/>
      <point x="66" y="712"/>
      <point x="49" y="712" type="curve" smooth="yes"/>
      <point x="32" y="712"/>
      <point x="20" y="701"/>
    </contour>
    <contour>
      <point x="132" y="684" type="curve" smooth="yes"/>
      <point x="132" y="667"/>
      <point x="144" y="655"/>
      <point x="161" y="655" type="curve" smooth="yes"/>
      <point x="178" y="655"/>
      <point x="189" y="667"/>
      <point x="189" y="684" type="curve" smooth="yes"/>
      <point x="189" y="701"/>
      <point x="178" y="712"/>
      <point x="161" y="712" type="curve" smooth="yes"/>
      <point x="144" y="712"/>
      <point x="132" y="701"/>
    </contour>
    <component base="i.sc"/>
  </outline>
</glyph>
<glyph name="iogonek_j" format="2">
  <advance width="402"/>
  <anchor x="115" y="0" name="ogonek_1"/>
  <anchor x="270" y="-204" name="ogonek_2"/>
  <anchor x="107" y="0" name="bottomC_1"/>
  <anchor x="243" y="-210" name="bottomC_2"/>
  <anchor x="101" y="0" name="bottom_1"/>
  <anchor x="243" y="-210" name="bottom_2"/>
  <anchor x="101" y="646" name="top_1"/>
  <anchor x="302" y="646" name="top_2"/>
  <outline>
    <contour>
      <point x="142" y="-185" type="curve"/>
      <point x="137" y="-165" type="line"/>
      <point x="122" y="-177"/>
      <point x="111" y="-182"/>
      <point x="92" y="-182" type="curve" smooth="yes"/>
      <point x="50" y="-182"/>
      <point x="27" y="-159"/>
      <point x="27" y="-118" type="curve" smooth="yes"/>
      <point x="27" y="-76"/>
      <point x="52" y="-49"/>
      <point x="115" y="0" type="curve"/>
      <point x="95" y="7" type="line"/>
      <point x="30" y="-41"/>
      <point x="3" y="-72"/>
      <point x="3" y="-121" type="curve" smooth="yes"/>
      <point x="3" y="-173"/>
      <point x="35" y="-204"/>
      <point x="90" y="-204" type="curve" smooth="yes"/>
      <point x="112" y="-204"/>
      <point x="126" y="-199"/>
    </contour>
    <component base="i"/>
    <component base="j.ogonek" xOffset="165"/>
  </outline>
</glyph>
<glyph name="j.ogonek" format="2">
  <advance width="219"/>
  <anchor x="79" y="-210" name="bottomC"/>
  <anchor x="137" y="646" name="top"/>
  <anchor x="106" y="-204" name="ogonek"/>
  <anchor x="79" y="-210" name="bottom"/>
  <outline>
    <contour>
      <point x="108" y="627" type="curve" smooth="yes"/>
      <point x="108" y="610"/>
      <point x="120" y="598"/>
      <point x="137" y="598" type="curve" smooth="yes"/>
      <point x="154" y="598"/>
      <point x="166" y="610"/>
      <point x="166" y="627" type="curve" smooth="yes"/>
      <point x="166" y="644"/>
      <point x="154" y="656"/>
      <point x="137" y="656" type="curve" smooth="yes"/>
      <point x="120" y="656"/>
      <point x="108" y="644"/>
    </contour>
    <component base="jdotless.ogonek"/>
  </outline>
</glyph>
<glyph name="l.sc" format="2">
  <advance width="504"/>
  <anchor x="305" y="0" name="bottomC"/>
  <anchor x="106" y="560" name="top"/>
  <anchor x="478" y="0" name="ogonek"/>
  <anchor x="239" y="560" name="topright"/>
  <anchor x="305" y="0" name="bottom"/>
  <outline>
    <contour>
      <point x="91" y="560" type="line"/>
      <point x="91" y="0" type="line"/>
      <point x="119" y="0" type="line"/>
      <point x="119" y="560" type="line"/>
    </contour>
    <contour>
      <point x="103" y="24" type="line"/>
      <point x="103" y="0" type="line"/>
      <point x="478" y="0" type="line"/>
      <point x="478" y="24" type="line"/>
    </contour>
  </outline>
</glyph>
<glyph name="lslash.sc" format="2">
  <advance width="507"/>
  <anchor x="318" y="0" name="bottomC"/>
  <anchor x="119" y="560" name="top"/>
  <anchor x="491" y="0" name="ogonek"/>
  <anchor x="251" y="560" name="topright"/>
  <anchor x="318" y="0" name="bottom"/>
  <outline>
    <contour>
      <point x="10" y="203" type="line"/>
      <point x="10" y="176" type="line"/>
      <point x="306" y="353" type="line"/>
      <point x="306" y="380" type="line"/>
    </contour>
    <component base="l.sc" xOffset="13"/>
  </outline>
</glyph>
<glyph name="m.sc" format="2">
  <advance width="713"/>
  <anchor x="369" y="0" name="bottomC"/>
  <anchor x="357" y="560" name="top"/>
  <anchor x="622" y="0" name="ogonek"/>
  <anchor x="357" y="0" name="bottom"/>
  <outline>
    <contour>
      <point x="118" y="0" type="line"/>
      <point x="118" y="457" type="line"/>
      <point x="116" y="529" type="line"/>
      <point x="117" y="529" type="line"/>
      <point x="342" y="0" type="line"/>
      <point x="371" y="0" type="line"/>
      <point x="596" y="529" type="line"/>
      <point x="597" y="529" type="line"/>
      <point x="595" y="457" type="line"/>
      <point x="595" y="0" type="line"/>
      <point x="622" y="0" type="line"/>
      <point x="622" y="560" type="line"/>
      <point x="581" y="560" type="line"/>
      <point x="380" y="90" type="line"/>
      <point x="357" y="32" type="line"/>
      <point x="356" y="32" type="line"/>
      <point x="333" y="90" type="line"/>
      <point x="133" y="560" type="line"/>
      <point x="91" y="560" type="line"/>
      <point x="91" y="0" type="line"/>
    </contour>
  </outline>
</glyph>
<glyph name="n.sc" format="2">
  <advance width="626"/>
  <anchor x="527" y="0" name="bottomC"/>
  <anchor x="311" y="560" name="top"/>
  <anchor x="535" y="0" name="ogonek"/>
  <anchor x="317" y="0" name="bottom"/>
  <outline>
    <contour>
      <point x="508" y="560" type="line"/>
      <point x="508" y="85" type="line"/>
      <point x="509" y="31" type="line"/>
      <point x="508" y="31" type="line"/>
      <point x="471" y="85" type="line"/>
      <point x="129" y="560" type="line"/>
      <point x="91" y="560" type="line"/>
      <point x="91" y="0" type="line"/>
      <point x="118" y="0" type="line"/>
      <point x="118" y="475" type="line"/>
      <point x="117" y="529" type="line"/>
      <point x="118" y="529" type="line"/>
      <point x="149" y="484" type="line"/>
      <point x="497" y="0" type="line"/>
      <point x="535" y="0" type="line"/>
      <point x="535" y="560" type="line"/>
    </contour>
  </outline>
</glyph>
